<svg width="30" height="31" viewBox="0 0 30 31" fill="none" xmlns="http://www.w3.org/2000/svg">
<path d="M20.6864 15.8184L29.2151 7.28966C30.2616 6.24307 30.2616 4.5462 29.2151 3.49876L27.3196 1.6033C26.273 0.556712 24.5761 0.556712 23.5287 1.6033L15 10.132L6.47131 1.6033C5.42472 0.556712 3.72784 0.556712 2.6804 1.6033L0.784943 3.49876C-0.261648 4.54535 -0.261648 6.24222 0.784943 7.28966L9.31364 15.8184L0.784943 24.3471C-0.261648 25.3936 -0.261648 27.0905 0.784943 28.138L2.6804 30.0334C3.72699 31.08 5.42472 31.08 6.47131 30.0334L15 21.5047L23.5287 30.0334C24.5753 31.08 26.273 31.08 27.3196 30.0334L29.2151 28.138C30.2616 27.0914 30.2616 25.3945 29.2151 24.3471L20.6864 15.8184Z" fill="black"/>
</svg>
