<svg width="46" height="60" viewBox="0 0 46 60" fill="none" xmlns="http://www.w3.org/2000/svg">
<path d="M3 -0.5H81C82.6569 -0.5 84 -1.84306 84 -3.5V-11C84 -12.6569 82.6569 -14 81 -14H3C1.34306 -14 0 -12.6569 0 -11V-3.5C0 -1.84306 1.34306 -0.5 3 -0.5ZM3 29.5H81C82.6569 29.5 84 28.1569 84 26.5V19C84 17.3431 82.6569 16 81 16H3C1.34306 16 0 17.3431 0 19V26.5C0 28.1569 1.34306 29.5 3 29.5ZM3 59.5H81C82.6569 59.5 84 58.1569 84 56.5V49C84 47.3431 82.6569 46 81 46H3C1.34306 46 0 47.3431 0 49V56.5C0 58.1569 1.34306 59.5 3 59.5Z" fill="black"/>
</svg>
