<svg width="19" height="19" viewBox="0 0 19 19" fill="none" xmlns="http://www.w3.org/2000/svg">
<path d="M14.4398 1.18161L9.46796 6.15345L4.49612 1.18161C3.88603 0.571523 2.89649 0.571523 2.28641 1.18161L1.18155 2.28646C0.571466 2.89655 0.571466 3.88609 1.18155 4.49617L6.1534 9.46802L1.18155 14.4399C0.571466 15.0499 0.571466 16.0395 1.18155 16.6496L2.28641 17.7544C2.89649 18.3645 3.88603 18.3645 4.49612 17.7544L9.46796 12.7826L14.4398 17.7544C15.0499 18.3645 16.0394 18.3645 16.6495 17.7544L17.7544 16.6496C18.3645 16.0395 18.3645 15.0499 17.7544 14.4399L12.7825 9.46802L17.7544 4.49617C18.3645 3.88609 18.3645 2.89655 17.7544 2.28646L16.6495 1.18161C16.0394 0.571523 15.0499 0.571523 14.4398 1.18161Z" fill="#505050"/>
</svg>
