<svg width="172" height="202" viewBox="0 0 172 202" fill="none" xmlns="http://www.w3.org/2000/svg">
<path d="M85.6805 63.247L85.8424 63.4375L86.0042 63.247L134.489 6.16687C140.349 -0.732103 149.854 -0.732109 155.714 6.16686L166.489 18.8513C172.349 25.7503 172.349 36.9402 166.489 43.8392L118.004 100.919L117.842 101.11L118.004 101.3L166.489 158.381C172.349 165.279 172.349 176.469 166.489 183.368L155.714 196.053C149.854 202.952 140.349 202.952 134.489 196.053L86.0042 138.973L85.8424 138.782L85.6805 138.973L37.1955 196.053C31.3353 202.952 21.8304 202.952 15.9703 196.053L5.1958 183.368C-0.664334 176.469 -0.664334 165.279 5.1958 158.381L53.6808 101.3L53.8427 101.11L53.6808 100.919L5.1958 43.8392C-0.664334 36.9402 -0.664334 25.7503 5.1958 18.8513L15.9703 6.16687C21.8304 -0.732109 31.3353 -0.732103 37.1955 6.16687L85.6805 63.247Z" fill="#FF7878" stroke="#CA2B2B" stroke-width="0.5"/>
</svg>
