<svg width="184" height="184" viewBox="0 0 184 184" fill="none" xmlns="http://www.w3.org/2000/svg">
<path d="M39.3373 87.702L87.702 39.3446L71.8464 23.4889L49.6801 45.6552C49.4158 45.92 49.1018 46.1301 48.7562 46.2735C48.4105 46.4169 48.04 46.4907 47.6658 46.4907C47.2916 46.4907 46.9211 46.4169 46.5755 46.2735C46.2298 46.1301 45.9159 45.92 45.6515 45.6552L41.6229 41.6266C40.5089 40.5125 40.5089 38.7085 41.6229 37.598L63.7892 15.4317L51.6998 3.33877C47.2471 -1.11389 40.0309 -1.11389 35.5782 3.33877L3.3387 35.5783C-1.11036 40.031 -1.11395 47.2472 3.3387 51.6999L39.3373 87.702ZM178.944 45.7271C185.686 38.9852 185.682 28.0566 178.944 21.3147L162.682 5.05299C155.94 -1.68889 145.008 -1.68889 138.262 5.05299L121.724 21.5878L162.405 62.2691L178.944 45.7271ZM113.591 29.7241L6.85698 136.444L0.115109 175.055C-0.79411 180.263 3.7412 184.798 8.95214 183.882L47.567 177.111L154.273 70.4017L113.591 29.7241ZM180.662 132.3L168.572 120.211L146.406 142.377C145.292 143.491 143.488 143.491 142.377 142.377L138.349 138.349C137.238 137.235 137.238 135.431 138.349 134.32L160.515 112.154L144.652 96.2911L96.2875 144.649L132.3 180.658C136.753 185.111 143.969 185.111 148.422 180.658L180.662 148.422C185.114 143.969 185.114 136.753 180.662 132.3Z" fill="black"/>
</svg>
