<svg width="159" height="156" viewBox="0 0 159 156" fill="none" xmlns="http://www.w3.org/2000/svg">
<ellipse cx="79.2787" cy="78" rx="79.2787" ry="78" fill="#E6E6E6"/>
<path d="M78.5454 47.9562C70.6242 47.9704 63.4321 51.0919 58.1223 56.1662L53.8534 51.8973C52.0461 50.09 48.9561 51.3699 48.9561 53.9257V69.95C48.9561 71.5344 50.2404 72.8187 51.8248 72.8187H67.849C70.4049 72.8187 71.6848 69.7287 69.8776 67.9214L64.8872 62.931C68.5764 59.4766 73.3501 57.5632 78.4217 57.5194C89.4662 57.4241 98.7758 66.362 98.6803 77.7731C98.5897 88.5979 89.8137 97.6812 78.5998 97.6812C73.6838 97.6812 69.0377 95.9267 65.3761 92.714C64.8091 92.2166 63.9529 92.2469 63.4196 92.7801L58.6787 97.5209C58.0964 98.1033 58.1252 99.0527 58.7363 99.6047C63.9928 104.353 70.9587 107.244 78.5998 107.244C94.9715 107.244 108.243 93.9718 108.244 77.6002C108.244 61.2473 94.8984 47.9269 78.5454 47.9562Z" fill="black"/>
</svg>
