<svg width="135" height="42" viewBox="0 0 135 42" fill="none" xmlns="http://www.w3.org/2000/svg">
<g filter="url(#filter0_d_331_5138)">
<path d="M23.2098 0C12.5994 0 4 6.98608 4 15.608C4 19.3299 5.60582 22.7367 8.27719 25.4155C7.33921 29.1975 4.2026 32.5667 4.16508 32.6042C4 32.7768 3.95498 33.0319 4.05253 33.2571C4.15008 33.4822 4.36018 33.6172 4.60031 33.6172C9.57536 33.6172 13.3048 31.231 15.1507 29.7603C17.6045 30.6832 20.3284 31.216 23.2098 31.216C33.8203 31.216 42.4197 24.2299 42.4197 15.608C42.4197 6.98608 33.8203 0 23.2098 0Z" fill="white"/>
<path d="M22 0H115.39C124.011 0 131 6.9888 131 15.6099V15.6099C131 24.1096 124.11 31 115.61 31H22V0Z" fill="white"/>
<path d="M21.6671 11.6316H22.9302V19H21.6671V11.6316ZM24.046 19H22.4355V17.8316H24.0144C24.3793 17.8316 24.7162 17.7789 25.025 17.6737C25.3337 17.5684 25.6004 17.4105 25.825 17.2C26.0565 16.9895 26.2355 16.7263 26.3618 16.4105C26.4951 16.0947 26.5618 15.7298 26.5618 15.3158C26.5618 14.9018 26.4951 14.5368 26.3618 14.2211C26.2355 13.9053 26.0565 13.6421 25.825 13.4316C25.6004 13.2211 25.3337 13.0632 25.025 12.9579C24.7162 12.8526 24.3793 12.8 24.0144 12.8H22.4355V11.6316H24.046C24.7969 11.6316 25.4565 11.786 26.025 12.0947C26.5934 12.3965 27.0355 12.8246 27.3513 13.3789C27.6741 13.9263 27.8355 14.5719 27.8355 15.3158C27.8355 16.0596 27.6741 16.7088 27.3513 17.2632C27.0355 17.8105 26.5934 18.2386 26.025 18.5474C25.4565 18.8491 24.7969 19 24.046 19ZM29.2583 16.8421V16.0632H32.3005C32.2724 15.8316 32.2092 15.6316 32.111 15.4632C32.0198 15.2877 31.8899 15.1544 31.7215 15.0632C31.5531 14.9649 31.3461 14.9158 31.1005 14.9158C30.8478 14.9158 30.6198 14.9719 30.4162 15.0842C30.2127 15.1895 30.0513 15.3474 29.932 15.5579C29.8127 15.7614 29.7531 16.0035 29.7531 16.2842L29.732 16.5789C29.732 16.9368 29.7882 17.2351 29.9005 17.4737C30.0198 17.7053 30.1812 17.8807 30.3847 18C30.5952 18.1123 30.8373 18.1684 31.111 18.1684C31.3355 18.1684 31.532 18.1368 31.7005 18.0737C31.8759 18.0105 32.0303 17.9228 32.1636 17.8105C32.2969 17.6912 32.4092 17.5544 32.5005 17.4L33.4794 17.8C33.318 18.0596 33.132 18.2877 32.9215 18.4842C32.718 18.6807 32.4654 18.8351 32.1636 18.9474C31.8689 19.0526 31.5005 19.1053 31.0583 19.1053C30.5601 19.1053 30.125 18.9965 29.7531 18.7789C29.3812 18.5614 29.0934 18.2632 28.8899 17.8842C28.6864 17.4982 28.5847 17.0632 28.5847 16.5789C28.5847 16.4877 28.5882 16.4 28.5952 16.3158C28.6022 16.2316 28.6127 16.1474 28.6268 16.0632C28.6969 15.6632 28.8373 15.3123 29.0478 15.0105C29.2654 14.7088 29.5496 14.4737 29.9005 14.3053C30.2513 14.1368 30.6548 14.0526 31.111 14.0526C31.6092 14.0526 32.0373 14.1544 32.3952 14.3579C32.7601 14.5544 33.0408 14.8386 33.2373 15.2105C33.4338 15.5754 33.532 16.014 33.532 16.5263C33.532 16.5684 33.532 16.6175 33.532 16.6737C33.532 16.7228 33.525 16.7789 33.511 16.8421H29.2583ZM32.8478 11.7579L30.9531 13.3368L30.311 12.9684L31.8899 11.2842L32.8478 11.7579ZM35.7224 21.3158H34.575V14.1579H35.7224V21.3158ZM39.7329 16.5789C39.7329 17.1123 39.6242 17.5719 39.4066 17.9579C39.1891 18.3368 38.9014 18.6281 38.5435 18.8316C38.1856 19.0281 37.7961 19.1263 37.375 19.1263C36.961 19.1263 36.5996 19.0246 36.2908 18.8211C35.9891 18.6105 35.754 18.3158 35.5856 17.9368C35.4242 17.5509 35.3435 17.0982 35.3435 16.5789C35.3435 16.0526 35.4242 15.6 35.5856 15.2211C35.754 14.8421 35.9891 14.5509 36.2908 14.3474C36.5996 14.1368 36.961 14.0316 37.375 14.0316C37.7961 14.0316 38.1856 14.1333 38.5435 14.3368C38.9014 14.5333 39.1891 14.8211 39.4066 15.2C39.6242 15.5789 39.7329 16.0386 39.7329 16.5789ZM38.554 16.5789C38.554 16.2561 38.4873 15.9825 38.354 15.7579C38.2207 15.5263 38.0417 15.3544 37.8171 15.2421C37.5996 15.1228 37.3575 15.0632 37.0908 15.0632C36.8733 15.0632 36.6593 15.1228 36.4487 15.2421C36.2382 15.3544 36.0628 15.5228 35.9224 15.7474C35.7891 15.9719 35.7224 16.2491 35.7224 16.5789C35.7224 16.9088 35.7891 17.186 35.9224 17.4105C36.0628 17.6351 36.2382 17.807 36.4487 17.9263C36.6593 18.0386 36.8733 18.0947 37.0908 18.0947C37.3575 18.0947 37.5996 18.0386 37.8171 17.9263C38.0417 17.807 38.2207 17.6351 38.354 17.4105C38.4873 17.1789 38.554 16.9018 38.554 16.5789ZM40.8157 10.7895H41.9526V19H40.8157V10.7895ZM44.122 17.4947C44.122 17.6561 44.1606 17.7965 44.2378 17.9158C44.315 18.0281 44.4202 18.1123 44.5536 18.1684C44.6939 18.2246 44.8518 18.2526 45.0273 18.2526C45.2518 18.2526 45.4553 18.207 45.6378 18.1158C45.8273 18.0246 45.9781 17.8912 46.0904 17.7158C46.2097 17.5333 46.2694 17.3228 46.2694 17.0842L46.4378 17.7158C46.4378 18.0246 46.3466 18.2842 46.1641 18.4947C45.9887 18.6982 45.7641 18.8526 45.4904 18.9579C45.2238 19.0561 44.9501 19.1053 44.6694 19.1053C44.3676 19.1053 44.0869 19.0456 43.8273 18.9263C43.5676 18.807 43.3606 18.6316 43.2062 18.4C43.0518 18.1684 42.9746 17.8877 42.9746 17.5579C42.9746 17.0877 43.1395 16.7158 43.4694 16.4421C43.7992 16.1614 44.2659 16.0211 44.8694 16.0211C45.1922 16.0211 45.4694 16.0561 45.7009 16.1263C45.9395 16.1965 46.136 16.2807 46.2904 16.3789C46.4448 16.4702 46.5536 16.5544 46.6167 16.6316V17.2105C46.3992 17.0561 46.1676 16.9439 45.922 16.8737C45.6764 16.8035 45.4167 16.7684 45.1431 16.7684C44.9045 16.7684 44.7115 16.8 44.5641 16.8632C44.4167 16.9193 44.3045 17 44.2273 17.1053C44.1571 17.2105 44.122 17.3404 44.122 17.4947ZM43.7641 15.4211L43.3009 14.6211C43.5185 14.4877 43.7992 14.3579 44.1431 14.2316C44.4939 14.1053 44.8939 14.0421 45.3431 14.0421C45.7431 14.0421 46.0939 14.1018 46.3957 14.2211C46.7045 14.3404 46.9466 14.5123 47.122 14.7368C47.2974 14.9544 47.3852 15.2246 47.3852 15.5474V19H46.2694V15.7684C46.2694 15.614 46.2413 15.4877 46.1852 15.3895C46.136 15.2912 46.0659 15.2105 45.9746 15.1474C45.8834 15.0842 45.7746 15.0386 45.6483 15.0105C45.522 14.9825 45.3852 14.9684 45.2378 14.9684C45.0132 14.9684 44.7992 14.9965 44.5957 15.0526C44.3992 15.1018 44.2273 15.1649 44.0799 15.2421C43.9395 15.3123 43.8343 15.3719 43.7641 15.4211ZM49.4684 16.5789C49.4684 16.8877 49.535 17.1579 49.6684 17.3895C49.8017 17.614 49.9807 17.793 50.2052 17.9263C50.4368 18.0596 50.6929 18.1263 50.9736 18.1263C51.2052 18.1263 51.4263 18.0912 51.6368 18.0211C51.8473 17.9509 52.0333 17.8526 52.1947 17.7263C52.3561 17.6 52.4754 17.4596 52.5526 17.3053V18.5579C52.3842 18.7263 52.1561 18.8596 51.8684 18.9579C51.5807 19.0561 51.2649 19.1053 50.921 19.1053C50.4228 19.1053 49.9736 19 49.5736 18.7895C49.1807 18.5719 48.8684 18.2737 48.6368 17.8947C48.4122 17.5088 48.3 17.0702 48.3 16.5789C48.3 16.0807 48.4122 15.6421 48.6368 15.2632C48.8684 14.8842 49.1807 14.5895 49.5736 14.3789C49.9736 14.1614 50.4228 14.0526 50.921 14.0526C51.2649 14.0526 51.5807 14.1018 51.8684 14.2C52.1561 14.2982 52.3842 14.4316 52.5526 14.6V15.8526C52.4754 15.6912 52.3526 15.5509 52.1842 15.4316C52.0228 15.3053 51.8368 15.207 51.6263 15.1368C51.4157 15.0667 51.1982 15.0316 50.9736 15.0316C50.6929 15.0316 50.4368 15.0982 50.2052 15.2316C49.9807 15.3649 49.8017 15.5474 49.6684 15.7789C49.535 16.0105 49.4684 16.2772 49.4684 16.5789ZM55.9144 19.1053C55.4232 19.1053 54.9881 19 54.6092 18.7895C54.2372 18.5789 53.9495 18.2842 53.746 17.9053C53.5425 17.5263 53.4407 17.0842 53.4407 16.5789C53.4407 16.0667 53.5425 15.6211 53.746 15.2421C53.9565 14.8632 54.2513 14.5719 54.6302 14.3684C55.0092 14.1579 55.4548 14.0526 55.9671 14.0526C56.4793 14.0526 56.9144 14.1509 57.2723 14.3474C57.6302 14.5439 57.9039 14.8281 58.0934 15.2C58.2899 15.5649 58.3881 16.007 58.3881 16.5263C58.3881 16.5825 58.3846 16.6421 58.3776 16.7053C58.3776 16.7684 58.3741 16.814 58.3671 16.8421H54.1144V16.0632H57.3986L57.0513 16.5474C57.0723 16.5053 57.0934 16.4491 57.1144 16.3789C57.1425 16.3018 57.1565 16.2386 57.1565 16.1895C57.1565 15.9298 57.1039 15.7053 56.9986 15.5158C56.9004 15.3263 56.76 15.1789 56.5776 15.0737C56.4022 14.9684 56.1951 14.9158 55.9565 14.9158C55.6688 14.9158 55.4232 14.9789 55.2197 15.1053C55.0162 15.2316 54.8618 15.414 54.7565 15.6526C54.6513 15.8912 54.5951 16.186 54.5881 16.5368C54.5881 16.8877 54.6408 17.186 54.746 17.4316C54.8513 17.6702 55.0057 17.8526 55.2092 17.9789C55.4197 18.1053 55.6723 18.1684 55.9671 18.1684C56.2758 18.1684 56.546 18.1053 56.7776 17.9789C57.0092 17.8526 57.2022 17.6596 57.3565 17.4L58.3355 17.8C58.0829 18.2351 57.7565 18.5614 57.3565 18.7789C56.9565 18.9965 56.4758 19.1053 55.9144 19.1053ZM60.5995 14.1579V19H59.4732V14.1579H60.5995ZM62.0417 15.3684C61.9364 15.2842 61.8381 15.2211 61.7469 15.1789C61.6557 15.1368 61.5399 15.1158 61.3995 15.1158C61.2101 15.1158 61.0557 15.1649 60.9364 15.2632C60.8171 15.3614 60.7294 15.4982 60.6732 15.6737C60.6241 15.8421 60.5995 16.0421 60.5995 16.2737L60.2206 16.0526C60.2206 15.6667 60.2908 15.3263 60.4311 15.0316C60.5785 14.7298 60.7645 14.4912 60.989 14.3158C61.2206 14.1404 61.4592 14.0526 61.7048 14.0526C61.8803 14.0526 62.0452 14.0807 62.1995 14.1368C62.3539 14.186 62.4838 14.2772 62.589 14.4105L62.0417 15.3684ZM66.525 10.7895H67.6619V19H66.525V10.7895ZM71.2208 19.1053C70.7295 19.1053 70.2945 19 69.9155 18.7895C69.5436 18.5789 69.2559 18.2842 69.0523 17.9053C68.8488 17.5263 68.7471 17.0842 68.7471 16.5789C68.7471 16.0667 68.8488 15.6211 69.0523 15.2421C69.2629 14.8632 69.5576 14.5719 69.9366 14.3684C70.3155 14.1579 70.7611 14.0526 71.2734 14.0526C71.7857 14.0526 72.2208 14.1509 72.5787 14.3474C72.9366 14.5439 73.2102 14.8281 73.3997 15.2C73.5962 15.5649 73.6945 16.007 73.6945 16.5263C73.6945 16.5825 73.6909 16.6421 73.6839 16.7053C73.6839 16.7684 73.6804 16.814 73.6734 16.8421H69.4208V16.0632H72.705L72.3576 16.5474C72.3787 16.5053 72.3997 16.4491 72.4208 16.3789C72.4488 16.3018 72.4629 16.2386 72.4629 16.1895C72.4629 15.9298 72.4102 15.7053 72.305 15.5158C72.2067 15.3263 72.0664 15.1789 71.8839 15.0737C71.7085 14.9684 71.5015 14.9158 71.2629 14.9158C70.9752 14.9158 70.7295 14.9789 70.526 15.1053C70.3225 15.2316 70.1681 15.414 70.0629 15.6526C69.9576 15.8912 69.9015 16.186 69.8945 16.5368C69.8945 16.8877 69.9471 17.186 70.0523 17.4316C70.1576 17.6702 70.312 17.8526 70.5155 17.9789C70.726 18.1053 70.9787 18.1684 71.2734 18.1684C71.5822 18.1684 71.8523 18.1053 72.0839 17.9789C72.3155 17.8526 72.5085 17.6596 72.6629 17.4L73.6418 17.8C73.3892 18.2351 73.0629 18.5614 72.6629 18.7789C72.2629 18.9965 71.7822 19.1053 71.2208 19.1053ZM78.6933 16.5789C78.6933 16.8877 78.76 17.1579 78.8933 17.3895C79.0266 17.614 79.2056 17.793 79.4301 17.9263C79.6617 18.0596 79.9179 18.1263 80.1986 18.1263C80.4301 18.1263 80.6512 18.0912 80.8617 18.0211C81.0722 17.9509 81.2582 17.8526 81.4196 17.7263C81.581 17.6 81.7003 17.4596 81.7775 17.3053V18.5579C81.6091 18.7263 81.381 18.8596 81.0933 18.9579C80.8056 19.0561 80.4898 19.1053 80.1459 19.1053C79.6477 19.1053 79.1986 19 78.7986 18.7895C78.4056 18.5719 78.0933 18.2737 77.8617 17.8947C77.6372 17.5088 77.5249 17.0702 77.5249 16.5789C77.5249 16.0807 77.6372 15.6421 77.8617 15.2632C78.0933 14.8842 78.4056 14.5895 78.7986 14.3789C79.1986 14.1614 79.6477 14.0526 80.1459 14.0526C80.4898 14.0526 80.8056 14.1018 81.0933 14.2C81.381 14.2982 81.6091 14.4316 81.7775 14.6V15.8526C81.7003 15.6912 81.5775 15.5509 81.4091 15.4316C81.2477 15.3053 81.0617 15.207 80.8512 15.1368C80.6407 15.0667 80.4231 15.0316 80.1986 15.0316C79.9179 15.0316 79.6617 15.0982 79.4301 15.2316C79.2056 15.3649 79.0266 15.5474 78.8933 15.7789C78.76 16.0105 78.6933 16.2772 78.6933 16.5789ZM84.1604 14.1579V19H83.0341V14.1579H84.1604ZM85.6025 15.3684C85.4972 15.2842 85.399 15.2211 85.3078 15.1789C85.2165 15.1368 85.1008 15.1158 84.9604 15.1158C84.7709 15.1158 84.6165 15.1649 84.4972 15.2632C84.3779 15.3614 84.2902 15.4982 84.2341 15.6737C84.185 15.8421 84.1604 16.0421 84.1604 16.2737L83.7815 16.0526C83.7815 15.6667 83.8516 15.3263 83.992 15.0316C84.1393 14.7298 84.3253 14.4912 84.5499 14.3158C84.7815 14.1404 85.0201 14.0526 85.2657 14.0526C85.4411 14.0526 85.606 14.0807 85.7604 14.1368C85.9148 14.186 86.0446 14.2772 86.1499 14.4105L85.6025 15.3684ZM87.0811 16.8421V16.0632H90.1232C90.0952 15.8316 90.032 15.6316 89.9338 15.4632C89.8425 15.2877 89.7127 15.1544 89.5443 15.0632C89.3759 14.9649 89.1688 14.9158 88.9232 14.9158C88.6706 14.9158 88.4425 14.9719 88.239 15.0842C88.0355 15.1895 87.8741 15.3474 87.7548 15.5579C87.6355 15.7614 87.5759 16.0035 87.5759 16.2842L87.5548 16.5789C87.5548 16.9368 87.6109 17.2351 87.7232 17.4737C87.8425 17.7053 88.0039 17.8807 88.2074 18C88.418 18.1123 88.6601 18.1684 88.9338 18.1684C89.1583 18.1684 89.3548 18.1368 89.5232 18.0737C89.6987 18.0105 89.8531 17.9228 89.9864 17.8105C90.1197 17.6912 90.232 17.5544 90.3232 17.4L91.3022 17.8C91.1408 18.0596 90.9548 18.2877 90.7443 18.4842C90.5408 18.6807 90.2881 18.8351 89.9864 18.9474C89.6917 19.0526 89.3232 19.1053 88.8811 19.1053C88.3829 19.1053 87.9478 18.9965 87.5759 18.7789C87.2039 18.5614 86.9162 18.2632 86.7127 17.8842C86.5092 17.4982 86.4074 17.0632 86.4074 16.5789C86.4074 16.4877 86.4109 16.4 86.418 16.3158C86.425 16.2316 86.4355 16.1474 86.4495 16.0632C86.5197 15.6632 86.6601 15.3123 86.8706 15.0105C87.0881 14.7088 87.3724 14.4737 87.7232 14.3053C88.0741 14.1368 88.4776 14.0526 88.9338 14.0526C89.432 14.0526 89.8601 14.1544 90.218 14.3579C90.5829 14.5544 90.8636 14.8386 91.0601 15.2105C91.2566 15.5754 91.3548 16.014 91.3548 16.5263C91.3548 16.5684 91.3548 16.6175 91.3548 16.6737C91.3548 16.7228 91.3478 16.7789 91.3338 16.8421H87.0811ZM90.6706 11.7579L88.7759 13.3368L88.1338 12.9684L89.7127 11.2842L90.6706 11.7579ZM95.5557 16.0526C95.5557 15.6947 95.482 15.4246 95.3347 15.2421C95.1873 15.0596 94.9592 14.9684 94.6505 14.9684C94.4399 14.9684 94.254 15.014 94.0926 15.1053C93.9312 15.1895 93.8048 15.3158 93.7136 15.4842C93.6224 15.6456 93.5768 15.8351 93.5768 16.0526V19H92.4399V14.1579H93.5768V14.9053C93.7312 14.6175 93.9276 14.4035 94.1662 14.2632C94.4119 14.1228 94.7031 14.0526 95.0399 14.0526C95.5873 14.0526 96.0048 14.2211 96.2926 14.5579C96.5803 14.8877 96.7241 15.3439 96.7241 15.9263V19H95.5557V16.0526ZM100.281 19.1053C99.79 19.1053 99.3549 19 98.9759 18.7895C98.604 18.5789 98.3163 18.2842 98.1128 17.9053C97.9093 17.5263 97.8075 17.0842 97.8075 16.5789C97.8075 16.0667 97.9093 15.6211 98.1128 15.2421C98.3233 14.8632 98.6181 14.5719 98.997 14.3684C99.3759 14.1579 99.8216 14.0526 100.334 14.0526C100.846 14.0526 101.281 14.1509 101.639 14.3474C101.997 14.5439 102.271 14.8281 102.46 15.2C102.657 15.5649 102.755 16.007 102.755 16.5263C102.755 16.5825 102.751 16.6421 102.744 16.7053C102.744 16.7684 102.741 16.814 102.734 16.8421H98.4812V16.0632H101.765L101.418 16.5474C101.439 16.5053 101.46 16.4491 101.481 16.3789C101.509 16.3018 101.523 16.2386 101.523 16.1895C101.523 15.9298 101.471 15.7053 101.365 15.5158C101.267 15.3263 101.127 15.1789 100.944 15.0737C100.769 14.9684 100.562 14.9158 100.323 14.9158C100.036 14.9158 99.79 14.9789 99.5865 15.1053C99.383 15.2316 99.2286 15.414 99.1233 15.6526C99.0181 15.8912 98.9619 16.186 98.9549 16.5368C98.9549 16.8877 99.0075 17.186 99.1128 17.4316C99.2181 17.6702 99.3724 17.8526 99.5759 17.9789C99.7865 18.1053 100.039 18.1684 100.334 18.1684C100.643 18.1684 100.913 18.1053 101.144 17.9789C101.376 17.8526 101.569 17.6596 101.723 17.4L102.702 17.8C102.45 18.2351 102.123 18.5614 101.723 18.7789C101.323 18.9965 100.843 19.1053 100.281 19.1053ZM104.556 17.4947C104.556 17.6561 104.594 17.7965 104.672 17.9158C104.749 18.0281 104.854 18.1123 104.987 18.1684C105.128 18.2246 105.286 18.2526 105.461 18.2526C105.686 18.2526 105.889 18.207 106.072 18.1158C106.261 18.0246 106.412 17.8912 106.524 17.7158C106.644 17.5333 106.703 17.3228 106.703 17.0842L106.872 17.7158C106.872 18.0246 106.78 18.2842 106.598 18.4947C106.422 18.6982 106.198 18.8526 105.924 18.9579C105.658 19.0561 105.384 19.1053 105.103 19.1053C104.801 19.1053 104.521 19.0456 104.261 18.9263C104.001 18.807 103.794 18.6316 103.64 18.4C103.486 18.1684 103.408 17.8877 103.408 17.5579C103.408 17.0877 103.573 16.7158 103.903 16.4421C104.233 16.1614 104.7 16.0211 105.303 16.0211C105.626 16.0211 105.903 16.0561 106.135 16.1263C106.373 16.1965 106.57 16.2807 106.724 16.3789C106.879 16.4702 106.987 16.5544 107.051 16.6316V17.2105C106.833 17.0561 106.601 16.9439 106.356 16.8737C106.11 16.8035 105.851 16.7684 105.577 16.7684C105.338 16.7684 105.145 16.8 104.998 16.8632C104.851 16.9193 104.738 17 104.661 17.1053C104.591 17.2105 104.556 17.3404 104.556 17.4947ZM104.198 15.4211L103.735 14.6211C103.952 14.4877 104.233 14.3579 104.577 14.2316C104.928 14.1053 105.328 14.0421 105.777 14.0421C106.177 14.0421 106.528 14.1018 106.829 14.2211C107.138 14.3404 107.38 14.5123 107.556 14.7368C107.731 14.9544 107.819 15.2246 107.819 15.5474V19H106.703V15.7684C106.703 15.614 106.675 15.4877 106.619 15.3895C106.57 15.2912 106.5 15.2105 106.408 15.1474C106.317 15.0842 106.208 15.0386 106.082 15.0105C105.956 14.9825 105.819 14.9684 105.672 14.9684C105.447 14.9684 105.233 14.9965 105.029 15.0526C104.833 15.1018 104.661 15.1649 104.514 15.2421C104.373 15.3123 104.268 15.3719 104.198 15.4211ZM110.313 17.1053C110.313 17.4491 110.386 17.7158 110.534 17.9053C110.681 18.0947 110.906 18.1895 111.207 18.1895C111.425 18.1895 111.614 18.1474 111.776 18.0632C111.937 17.9719 112.064 17.8456 112.155 17.6842C112.246 17.5158 112.292 17.3228 112.292 17.1053V14.1579H113.428V19H112.292V18.2526C112.137 18.5333 111.937 18.7474 111.692 18.8947C111.453 19.0351 111.165 19.1053 110.828 19.1053C110.288 19.1053 109.871 18.9368 109.576 18.6C109.288 18.2632 109.144 17.807 109.144 17.2316V14.1579H110.313V17.1053Z" fill="black"/>
</g>
<defs>
<filter id="filter0_d_331_5138" x="0" y="0" width="135" height="41.6172" filterUnits="userSpaceOnUse" color-interpolation-filters="sRGB">
<feFlood flood-opacity="0" result="BackgroundImageFix"/>
<feColorMatrix in="SourceAlpha" type="matrix" values="0 0 0 0 0 0 0 0 0 0 0 0 0 0 0 0 0 0 127 0" result="hardAlpha"/>
<feOffset dy="4"/>
<feGaussianBlur stdDeviation="2"/>
<feComposite in2="hardAlpha" operator="out"/>
<feColorMatrix type="matrix" values="0 0 0 0 0 0 0 0 0 0 0 0 0 0 0 0 0 0 0.25 0"/>
<feBlend mode="normal" in2="BackgroundImageFix" result="effect1_dropShadow_331_5138"/>
<feBlend mode="normal" in="SourceGraphic" in2="effect1_dropShadow_331_5138" result="shape"/>
</filter>
</defs>
</svg>
