<svg width="42" height="39" viewBox="0 0 42 39" fill="none" xmlns="http://www.w3.org/2000/svg">
<g filter="url(#filter0_d_331_5133)">
<path d="M20.9725 0.457764C11.5978 0.457764 4 6.63018 4 14.2479C4 17.5363 5.41879 20.5463 7.77903 22.9132C6.9503 26.2546 4.17901 29.2314 4.14586 29.2646C4 29.4171 3.96022 29.6425 4.04641 29.8414C4.1326 30.0403 4.31823 30.1596 4.53039 30.1596C8.926 30.1596 12.221 28.0513 13.852 26.7519C16.02 27.5673 18.4266 28.0381 20.9725 28.0381C30.3471 28.0381 37.945 21.8656 37.945 14.2479C37.945 6.63018 30.3471 0.457764 20.9725 0.457764Z" fill="white"/>
<path d="M23.6627 17.2263L22.0227 18.8663C21.8286 19.0604 21.514 19.0604 21.3199 18.8663L19.6799 17.2263C19.3668 16.9132 19.5886 16.3779 20.0313 16.3779H21.0908L21.0908 14.2904H19.0033V15.3499C19.0033 15.7927 18.468 16.0144 18.1549 15.7013L16.515 14.0614C16.3209 13.8673 16.3209 13.5526 16.515 13.3585L18.1549 11.7185C18.468 11.4055 19.0033 11.6272 19.0033 12.07V13.1308H21.0908V11.0434H20.0299C19.5871 11.0434 19.3654 10.5081 19.6785 10.195L21.3185 8.55499C21.5125 8.3609 21.8272 8.3609 22.0213 8.55499L23.6613 10.195C23.9743 10.508 23.7526 11.0434 23.3098 11.0434H22.2504V13.1308H24.3378V12.0714C24.3378 11.6286 24.8731 11.4068 25.1862 11.7199L26.8262 13.3599C27.0203 13.554 27.0203 13.8687 26.8262 14.0627L25.1862 15.7027C24.8731 16.0158 24.3378 15.7941 24.3378 15.3513V14.2904H22.2504V16.3779H23.3113C23.754 16.3779 23.9758 16.9132 23.6627 17.2263Z" fill="black"/>
</g>
<defs>
<filter id="filter0_d_331_5133" x="0" y="0.457764" width="41.9451" height="37.7019" filterUnits="userSpaceOnUse" color-interpolation-filters="sRGB">
<feFlood flood-opacity="0" result="BackgroundImageFix"/>
<feColorMatrix in="SourceAlpha" type="matrix" values="0 0 0 0 0 0 0 0 0 0 0 0 0 0 0 0 0 0 127 0" result="hardAlpha"/>
<feOffset dy="4"/>
<feGaussianBlur stdDeviation="2"/>
<feComposite in2="hardAlpha" operator="out"/>
<feColorMatrix type="matrix" values="0 0 0 0 0 0 0 0 0 0 0 0 0 0 0 0 0 0 0.25 0"/>
<feBlend mode="normal" in2="BackgroundImageFix" result="effect1_dropShadow_331_5133"/>
<feBlend mode="normal" in="SourceGraphic" in2="effect1_dropShadow_331_5133" result="shape"/>
</filter>
</defs>
</svg>
