<svg width="307" height="268" viewBox="0 0 307 268" fill="none" xmlns="http://www.w3.org/2000/svg">
<path d="M153.143 0C68.5554 0 0 55.6937 0 124.429C0 154.1 12.8018 181.259 34.0982 202.615C26.6205 232.765 1.61518 259.625 1.31607 259.924C0 261.3 -0.358929 263.334 0.41875 265.129C1.19643 266.923 2.87143 268 4.78571 268C44.4473 268 74.1786 248.977 88.8946 237.252C108.456 244.61 130.171 248.857 153.143 248.857C237.73 248.857 306.286 193.163 306.286 124.429C306.286 55.6937 237.73 0 153.143 0Z" fill="white"/>
<path d="M182.883 161.242L163.271 180.853C160.95 183.174 157.187 183.174 154.866 180.853L135.254 161.242C131.51 157.498 134.162 151.096 139.457 151.096H152.126L152.126 126.133H127.164V138.803C127.164 144.098 120.762 146.749 117.018 143.005L97.4061 123.394C95.085 121.073 95.085 117.31 97.4061 114.989L117.018 95.3771C120.762 91.6331 127.164 94.2848 127.164 99.5797V112.266H152.126V87.3032H139.44C134.145 87.3032 131.493 80.9016 135.237 77.1574L154.849 57.5457C157.17 55.2247 160.933 55.2247 163.254 57.5457L182.865 77.1574C186.609 80.9014 183.958 87.3032 178.663 87.3032H165.993V112.266H190.956V99.5963C190.956 94.3014 197.358 91.6497 201.102 95.3937L220.713 115.005C223.034 117.326 223.034 121.089 220.713 123.41L201.102 143.022C197.358 146.766 190.956 144.114 190.956 138.819V126.133H165.994V151.096H178.68C183.975 151.096 186.627 157.497 182.883 161.242Z" fill="black"/>
</svg>
