<svg width="213" height="188" viewBox="0 0 213 188" fill="none" xmlns="http://www.w3.org/2000/svg">
<g filter="url(#filter0_d_331_5133)">
<path d="M106.5 0.32666C49.8848 0.32666 4 37.603 4 83.6079C4 103.467 12.5684 121.645 26.8223 135.939C21.8174 156.119 5.08105 174.096 4.88086 174.296C4 175.217 3.75977 176.579 4.28027 177.78C4.80078 178.981 5.92187 179.702 7.20312 179.702C33.749 179.702 53.6484 166.969 63.498 159.122C76.5908 164.046 91.125 166.889 106.5 166.889C163.115 166.889 209 129.613 209 83.6079C209 37.603 163.115 0.32666 106.5 0.32666Z" fill="white"/>
<path class="second-path" d="M122.747 101.595L112.843 111.499C111.67 112.671 109.77 112.671 108.598 111.499L98.6938 101.595C96.8031 99.7043 98.1422 96.4713 100.816 96.4715H107.214L107.214 83.865H94.6079V90.2632C94.6079 92.9372 91.375 94.2763 89.4842 92.3856L79.5801 82.4815C78.4079 81.3093 78.4079 79.4089 79.5801 78.2369L89.4842 68.3328C91.3749 66.442 94.6079 67.7811 94.6079 70.4551V76.8617H107.214V64.2554H100.808C98.1335 64.2554 96.7944 61.0225 98.6852 59.1316L108.589 49.2275C109.761 48.0553 111.662 48.0553 112.834 49.2275L122.738 59.1316C124.629 61.0224 123.29 64.2554 120.616 64.2554H114.217V76.8617H126.824V70.4635C126.824 67.7895 130.057 66.4504 131.947 68.3411L141.851 78.2452C143.024 79.4174 143.024 81.3178 141.851 82.4898L131.947 92.3939C130.057 94.2847 126.824 92.9456 126.824 90.2716V83.865H114.218V96.4713H120.624C123.298 96.4713 124.637 99.7042 122.747 101.595Z" fill="black"/>
</g>
<defs>
<filter id="filter0_d_331_5133" x="0" y="0.32666" width="213" height="187.375" filterUnits="userSpaceOnUse" color-interpolation-filters="sRGB">
<feFlood flood-opacity="0" result="BackgroundImageFix"/>
<feColorMatrix in="SourceAlpha" type="matrix" values="0 0 0 0 0 0 0 0 0 0 0 0 0 0 0 0 0 0 127 0" result="hardAlpha"/>
<feOffset dy="4"/>
<feGaussianBlur stdDeviation="2"/>
<feComposite in2="hardAlpha" operator="out"/>
<feColorMatrix type="matrix" values="0 0 0 0 0 0 0 0 0 0 0 0 0 0 0 0 0 0 0.25 0"/>
<feBlend mode="normal" in2="BackgroundImageFix" result="effect1_dropShadow_331_5133"/>
<feBlend mode="normal" in="SourceGraphic" in2="effect1_dropShadow_331_5133" result="shape"/>
</filter>
</defs>
</svg>
