<svg width="38" height="30" viewBox="0 0 38 30" fill="none" xmlns="http://www.w3.org/2000/svg">
<path d="M19.0731 0C9.69843 0 2.10059 6.17242 2.10059 13.7901C2.10059 17.0786 3.51938 20.0885 5.87962 22.4554C5.05088 25.7969 2.27959 28.7737 2.24644 28.8068C2.10059 28.9593 2.06081 29.1847 2.147 29.3836C2.23318 29.5825 2.41882 29.7019 2.63098 29.7019C7.02658 29.7019 10.3216 27.5936 11.9526 26.2941C14.1206 27.1096 16.5272 27.5803 19.0731 27.5803C28.4477 27.5803 36.0456 21.4079 36.0456 13.7901C36.0456 6.17242 28.4477 0 19.0731 0Z" fill="white"/>
<path d="M8.66346 12.2522H9.54063V15.781H8.66346V12.2522ZM9.92376 15.781H9.22808V15.0248H9.89351C10.0279 15.0248 10.1573 15.008 10.2817 14.9744C10.4094 14.9408 10.5203 14.8854 10.6144 14.8081C10.7119 14.7308 10.7892 14.6283 10.8463 14.5005C10.9034 14.3695 10.932 14.2082 10.932 14.0166C10.932 13.825 10.9034 13.6654 10.8463 13.5377C10.7892 13.4066 10.7119 13.3024 10.6144 13.2251C10.5203 13.1478 10.4094 13.0924 10.2817 13.0588C10.1573 13.0251 10.0279 13.0083 9.89351 13.0083H9.22808V12.2522H9.92376C10.3103 12.2522 10.6447 12.3244 10.927 12.4689C11.2093 12.6135 11.4277 12.8168 11.5823 13.0789C11.7369 13.3411 11.8142 13.6536 11.8142 14.0166C11.8142 14.3762 11.7369 14.6887 11.5823 14.9542C11.4277 15.2164 11.2093 15.4197 10.927 15.5642C10.6447 15.7087 10.3103 15.781 9.92376 15.781ZM12.5774 14.7828V14.3594H13.8882C13.8747 14.2653 13.8495 14.1863 13.8125 14.1225C13.7789 14.0586 13.7302 14.0099 13.6663 13.9763C13.6058 13.9393 13.5302 13.9208 13.4395 13.9208C13.3353 13.9208 13.2446 13.9443 13.1673 13.9914C13.0933 14.0351 13.0345 14.1006 12.9908 14.188C12.9471 14.272 12.9253 14.3762 12.9253 14.5005L12.9152 14.6215C12.9152 14.7795 12.9387 14.9072 12.9858 15.0047C13.0362 15.1021 13.1017 15.1727 13.1824 15.2164C13.2664 15.2601 13.3571 15.2819 13.4546 15.2819C13.5487 15.2819 13.6311 15.2702 13.7016 15.2466C13.7756 15.2231 13.8394 15.1895 13.8932 15.1458C13.947 15.0988 13.9923 15.0433 14.0293 14.9795L14.7099 15.1458C14.6326 15.287 14.5401 15.4096 14.4326 15.5138C14.3251 15.6146 14.1923 15.6936 14.0343 15.7508C13.8798 15.8045 13.6899 15.8314 13.4647 15.8314C13.1857 15.8314 12.9471 15.7793 12.7488 15.6751C12.5539 15.571 12.4044 15.4281 12.3002 15.2466C12.1994 15.0618 12.1489 14.8534 12.1489 14.6215C12.1489 14.5778 12.1506 14.5358 12.154 14.4955C12.1573 14.4552 12.1624 14.4148 12.1691 14.3745C12.2027 14.1829 12.2716 14.0149 12.3758 13.8704C12.4833 13.7259 12.6262 13.6133 12.8043 13.5326C12.9858 13.452 13.2026 13.4116 13.4546 13.4116C13.7268 13.4116 13.9554 13.4587 14.1402 13.5528C14.3251 13.6469 14.4645 13.7813 14.5586 13.9561C14.6561 14.1309 14.7048 14.3409 14.7048 14.5862C14.7048 14.6064 14.7048 14.635 14.7048 14.6719C14.7048 14.7055 14.7015 14.7425 14.6947 14.7828H12.5774ZM14.3217 12.3328L13.4143 13.089L12.9858 12.8722L13.742 12.0656L14.3217 12.3328ZM15.9311 16.8901H15.1698V13.4621H15.9311V16.8901ZM17.8266 14.6215C17.8266 14.8904 17.7728 15.1172 17.6652 15.3021C17.5611 15.4869 17.4249 15.6264 17.2569 15.7205C17.0922 15.8146 16.9141 15.8617 16.7225 15.8617C16.5209 15.8617 16.3461 15.8113 16.1982 15.7104C16.0537 15.6062 15.9428 15.4617 15.8655 15.2769C15.7882 15.0887 15.7496 14.8702 15.7496 14.6215C15.7496 14.3695 15.7882 14.151 15.8655 13.9662C15.9428 13.7813 16.0537 13.6385 16.1982 13.5377C16.3461 13.4335 16.5209 13.3814 16.7225 13.3814C16.9141 13.3814 17.0922 13.4284 17.2569 13.5225C17.4249 13.6167 17.5611 13.7561 17.6652 13.941C17.7728 14.1225 17.8266 14.3493 17.8266 14.6215ZM17.025 14.6215C17.025 14.5005 16.9998 14.398 16.9494 14.314C16.899 14.23 16.8318 14.1661 16.7477 14.1225C16.6637 14.0788 16.5713 14.0569 16.4705 14.0569C16.3831 14.0569 16.2974 14.0788 16.2134 14.1225C16.1327 14.1628 16.0655 14.225 16.0117 14.309C15.9579 14.393 15.9311 14.4972 15.9311 14.6215C15.9311 14.7459 15.9579 14.8501 16.0117 14.9341C16.0655 15.0181 16.1327 15.082 16.2134 15.1256C16.2974 15.166 16.3831 15.1861 16.4705 15.1861C16.5713 15.1861 16.6637 15.1643 16.7477 15.1206C16.8318 15.0769 16.899 15.0131 16.9494 14.929C16.9998 14.845 17.025 14.7425 17.025 14.6215ZM18.2862 11.8489H19.0525V15.781H18.2862V11.8489ZM20.2348 15.0551C20.2348 15.1156 20.25 15.1677 20.2802 15.2114C20.3104 15.2517 20.3508 15.2836 20.4012 15.3071C20.4516 15.3273 20.5071 15.3374 20.5675 15.3374C20.6549 15.3374 20.7356 15.3189 20.8095 15.2819C20.8835 15.245 20.944 15.1895 20.991 15.1156C21.0381 15.0416 21.0616 14.9509 21.0616 14.8433L21.1422 15.1458C21.1422 15.2937 21.1019 15.4197 21.0213 15.5239C20.9406 15.6247 20.8364 15.702 20.7087 15.7558C20.581 15.8062 20.4432 15.8314 20.2953 15.8314C20.1474 15.8314 20.0097 15.8045 19.8819 15.7508C19.7576 15.6936 19.6568 15.6096 19.5795 15.4987C19.5055 15.3878 19.4686 15.2534 19.4686 15.0954C19.4686 14.8736 19.5475 14.6988 19.7055 14.5711C19.8635 14.44 20.087 14.3745 20.376 14.3745C20.5171 14.3745 20.6432 14.388 20.7541 14.4148C20.8683 14.4417 20.9658 14.4753 21.0465 14.5157C21.1271 14.556 21.1876 14.598 21.2279 14.6417V14.9795C21.1473 14.919 21.0532 14.8736 20.9456 14.8433C20.8415 14.8097 20.7305 14.7929 20.6129 14.7929C20.5222 14.7929 20.4499 14.803 20.3961 14.8232C20.3424 14.8433 20.302 14.8736 20.2752 14.9139C20.2483 14.9509 20.2348 14.9979 20.2348 15.0551ZM19.8971 14.1729L19.64 13.6637C19.771 13.5998 19.929 13.5394 20.1138 13.4822C20.2987 13.4251 20.5003 13.3965 20.7188 13.3965C20.9238 13.3965 21.107 13.4268 21.2683 13.4873C21.4296 13.5444 21.5573 13.6284 21.6514 13.7393C21.7455 13.8502 21.7926 13.9863 21.7926 14.1477V15.781H21.0616V14.3191C21.0616 14.2619 21.0515 14.2132 21.0313 14.1729C21.0145 14.1292 20.9876 14.0922 20.9507 14.062C20.9137 14.0317 20.8667 14.0099 20.8095 13.9964C20.7558 13.983 20.6936 13.9763 20.623 13.9763C20.5188 13.9763 20.4163 13.988 20.3155 14.0115C20.218 14.0351 20.1323 14.0636 20.0584 14.0972C19.9844 14.1275 19.9307 14.1527 19.8971 14.1729ZM23.0028 14.6215C23.0028 14.7459 23.0296 14.8534 23.0834 14.9442C23.1372 15.0315 23.2111 15.1004 23.3052 15.1509C23.4027 15.2013 23.5069 15.2265 23.6178 15.2265C23.7119 15.2265 23.801 15.213 23.885 15.1861C23.9724 15.1559 24.0513 15.1156 24.1219 15.0652C24.1958 15.0147 24.2563 14.9526 24.3034 14.8786V15.6197C24.2227 15.6835 24.1219 15.7356 24.0009 15.776C23.8799 15.8129 23.7321 15.8314 23.5573 15.8314C23.3019 15.8314 23.0717 15.781 22.8667 15.6802C22.665 15.5794 22.5054 15.4382 22.3877 15.2567C22.2735 15.0752 22.2163 14.8635 22.2163 14.6215C22.2163 14.3762 22.2735 14.1645 22.3877 13.9863C22.5054 13.8049 22.665 13.6637 22.8667 13.5629C23.0717 13.4621 23.3019 13.4116 23.5573 13.4116C23.7321 13.4116 23.8799 13.4318 24.0009 13.4721C24.1219 13.5091 24.2227 13.5562 24.3034 13.6133V14.3594C24.2563 14.2854 24.1942 14.2233 24.1169 14.1729C24.0429 14.1225 23.9623 14.0838 23.8749 14.0569C23.7875 14.03 23.7018 14.0166 23.6178 14.0166C23.5069 14.0166 23.4027 14.0435 23.3052 14.0972C23.2111 14.151 23.1372 14.2233 23.0834 14.314C23.0296 14.4048 23.0028 14.5073 23.0028 14.6215ZM26.0332 15.8314C25.7644 15.8314 25.5308 15.7827 25.3325 15.6852C25.1376 15.5844 24.9863 15.4432 24.8788 15.2618C24.7713 15.0803 24.7175 14.8669 24.7175 14.6215C24.7175 14.3728 24.7696 14.1577 24.8738 13.9763C24.9779 13.7948 25.1275 13.6553 25.3224 13.5578C25.5207 13.4604 25.7543 13.4116 26.0232 13.4116C26.292 13.4116 26.5189 13.4587 26.7037 13.5528C26.8886 13.6435 27.0297 13.7763 27.1272 13.9511C27.2246 14.1258 27.2734 14.3375 27.2734 14.5862C27.2734 14.6232 27.2734 14.6602 27.2734 14.6971C27.2734 14.7308 27.27 14.7593 27.2633 14.7828H25.146V14.3594H26.5777L26.3962 14.5913C26.413 14.5678 26.4264 14.5392 26.4365 14.5056C26.45 14.4686 26.4567 14.4384 26.4567 14.4148C26.4567 14.314 26.4382 14.2266 26.4012 14.1527C26.3643 14.0788 26.3122 14.0216 26.245 13.9813C26.1777 13.941 26.0988 13.9208 26.008 13.9208C25.8938 13.9208 25.798 13.946 25.7207 13.9964C25.6434 14.0468 25.5846 14.1241 25.5442 14.2283C25.5073 14.3291 25.4871 14.4569 25.4837 14.6114C25.4837 14.7526 25.5039 14.8736 25.5442 14.9744C25.5846 15.0752 25.6451 15.1525 25.7257 15.2063C25.8064 15.2567 25.9055 15.2819 26.0232 15.2819C26.1576 15.2819 26.2719 15.2567 26.366 15.2063C26.4634 15.1559 26.5407 15.0803 26.5978 14.9795L27.2784 15.1458C27.1574 15.3743 26.9927 15.5457 26.7844 15.66C26.5794 15.7743 26.329 15.8314 26.0332 15.8314ZM28.4946 13.4621V15.781H27.7434V13.4621H28.4946ZM29.165 14.2485C29.1247 14.2082 29.081 14.1762 29.034 14.1527C28.9903 14.1292 28.9348 14.1174 28.8676 14.1174C28.7937 14.1174 28.7281 14.1376 28.671 14.1779C28.6139 14.2182 28.5702 14.277 28.5399 14.3543C28.5097 14.4316 28.4946 14.5257 28.4946 14.6367L28.3131 14.3695C28.3131 14.1846 28.3484 14.0199 28.4189 13.8754C28.4929 13.7309 28.5887 13.6167 28.7063 13.5326C28.8239 13.4486 28.9466 13.4066 29.0743 13.4066C29.1583 13.4066 29.239 13.4234 29.3163 13.457C29.3936 13.4906 29.4524 13.5377 29.4927 13.5982L29.165 14.2485Z" fill="black"/>
</svg>
