<svg width="378" height="102" viewBox="0 0 378 102" fill="none" xmlns="http://www.w3.org/2000/svg">
<path d="M58.067 0C25.9941 0 0 21.1173 0 47.1794C0 58.4299 4.85404 68.7277 12.929 76.8254C10.0937 88.2573 0.612425 98.4417 0.499013 98.5551C0 99.0768 -0.136094 99.848 0.158777 100.528C0.453648 101.209 1.08876 101.617 1.81459 101.617C16.853 101.617 28.1262 94.4042 33.7061 89.9585C41.1232 92.7484 49.3569 94.3589 58.067 94.3589C90.1399 94.3589 116.134 73.2415 116.134 47.1794C116.134 21.1173 90.1399 0 58.067 0Z" fill="white"/>
<path d="M54.4099 0H330.661C356.721 0 377.847 21.1256 377.847 47.1853V47.1853C377.847 72.8779 357.019 93.7059 331.326 93.7059H54.4099V0Z" fill="white"/>
<path d="M53.2948 35.8407H57.1449V58.1138H53.2948V35.8407ZM60.4858 58.1138H55.6176V54.5819H60.3904C61.4934 54.5819 62.5116 54.4228 63.445 54.1046C64.3783 53.7652 65.1844 53.2879 65.8632 52.6728C66.5632 52.0364 67.1041 51.2409 67.4859 50.2864C67.889 49.3318 68.0905 48.2288 68.0905 46.9772C68.0905 45.7257 67.889 44.6227 67.4859 43.6681C67.1041 42.7135 66.5632 41.9181 65.8632 41.2817C65.1844 40.6453 64.3783 40.168 63.445 39.8499C62.5116 39.5317 61.4934 39.3726 60.3904 39.3726H55.6176V35.8407H60.4858C62.7556 35.8407 64.7495 36.3074 66.4677 37.2407C68.1859 38.1529 69.5223 39.4468 70.4769 41.1226C71.4527 42.7772 71.9405 44.7287 71.9405 46.9772C71.9405 49.2258 71.4527 51.1879 70.4769 52.8637C69.5223 54.5183 68.1859 55.8122 66.4677 56.7456C64.7495 57.6577 62.7556 58.1138 60.4858 58.1138ZM76.2733 51.5909V49.2045H85.4371C85.3523 48.5257 85.1614 47.9318 84.8644 47.4227C84.5886 46.8924 84.1962 46.4894 83.6871 46.2136C83.178 45.9166 82.5522 45.7681 81.8098 45.7681C81.0461 45.7681 80.3567 45.9378 79.7416 46.2772C79.1264 46.5954 78.6385 47.0727 78.2779 47.7091C77.9385 48.3242 77.7688 49.0561 77.7688 49.9046L77.7052 50.7955C77.7052 51.8561 77.8749 52.747 78.2143 53.4682C78.5749 54.1895 79.0628 54.7304 79.6779 55.091C80.3143 55.4304 81.0355 55.6001 81.8416 55.6001C82.5204 55.6001 83.1144 55.5046 83.6235 55.3137C84.1538 55.1228 84.6204 54.8577 85.0235 54.5183C85.4265 54.1577 85.7659 53.744 86.0417 53.2773L89.0326 54.4546C88.5447 55.2607 87.9826 55.9607 87.3462 56.5547C86.7099 57.1486 85.9356 57.6153 85.0235 57.9547C84.1326 58.2729 83.0189 58.432 81.6825 58.432C80.1977 58.432 78.8825 58.1032 77.737 57.4456C76.6127 56.788 75.743 55.8865 75.1279 54.741C74.5127 53.5743 74.2051 52.2591 74.2051 50.7955C74.2051 50.5197 74.2157 50.2546 74.237 50C74.2582 49.7455 74.29 49.4909 74.3324 49.2364C74.5445 48.0273 74.9688 46.9666 75.6052 46.0545C76.2627 45.1424 77.1218 44.4317 78.1825 43.9226C79.2431 43.4136 80.4628 43.159 81.8416 43.159C83.3689 43.159 84.6735 43.4666 85.7553 44.0817C86.8584 44.6757 87.6962 45.5348 88.269 46.6591C88.8629 47.7621 89.1599 49.0879 89.1599 50.6364C89.1599 50.7637 89.1599 50.9121 89.1599 51.0818C89.1599 51.2303 89.1493 51.4 89.1281 51.5909H76.2733ZM87.0917 36.2225L81.3643 40.9953L79.4234 39.8817L84.1962 34.7907L87.0917 36.2225ZM95.812 65.1139H92.3438V43.4772H95.812V65.1139ZM107.935 50.7955C107.935 52.4076 107.606 53.797 106.949 54.9637C106.291 56.1092 105.421 56.9895 104.339 57.6047C103.258 58.1986 102.08 58.4956 100.808 58.4956C99.5772 58.4956 98.4954 58.188 97.562 57.5729C96.6499 56.9365 95.9393 56.0456 95.4302 54.9001C94.9211 53.7334 94.6665 52.3652 94.6665 50.7955C94.6665 49.2045 94.9211 47.8363 95.4302 46.6909C95.9393 45.5454 96.6499 44.6545 97.562 44.0181C98.4954 43.3817 99.5772 43.0635 100.808 43.0635C102.08 43.0635 103.258 43.3711 104.339 43.9863C105.421 44.6014 106.291 45.4818 106.949 46.6272C107.606 47.7515 107.935 49.1409 107.935 50.7955ZM104.371 50.7955C104.371 49.8197 104.17 48.9924 103.767 48.3136C103.364 47.6136 102.833 47.0939 102.176 46.7545C101.518 46.3939 100.786 46.2136 99.9802 46.2136C99.3014 46.2136 98.6438 46.3939 98.0075 46.7545C97.3711 47.0939 96.8408 47.603 96.4165 48.2818C96.0135 48.9606 95.812 49.7985 95.812 50.7955C95.812 51.7925 96.0135 52.6304 96.4165 53.3092C96.8408 53.988 97.3711 54.5077 98.0075 54.8683C98.6438 55.2077 99.3014 55.3774 99.9802 55.3774C100.786 55.3774 101.518 55.1971 102.176 54.8364C102.833 54.4758 103.364 53.9561 103.767 53.2773C104.17 52.5985 104.371 51.7713 104.371 50.7955ZM111.208 33.2952H114.676V58.1138H111.208V33.2952ZM121.202 53.5637C121.202 54.0516 121.319 54.4758 121.552 54.8364C121.785 55.1758 122.104 55.4304 122.507 55.6001C122.931 55.7698 123.408 55.8546 123.938 55.8546C124.638 55.8546 125.264 55.7168 125.816 55.441C126.388 55.144 126.845 54.7304 127.184 54.2001C127.523 53.6698 127.693 53.0334 127.693 52.291L128.202 54.2001C128.202 55.1334 127.926 55.9183 127.375 56.5547C126.845 57.191 126.166 57.6683 125.338 57.9865C124.532 58.2835 123.705 58.432 122.857 58.432C121.944 58.432 121.096 58.2517 120.311 57.891C119.526 57.5304 118.9 57.0001 118.434 56.3001C117.967 55.6001 117.734 54.7516 117.734 53.7546C117.734 52.3334 118.232 51.2091 119.229 50.3818C120.226 49.5333 121.637 49.1091 123.461 49.1091C124.437 49.1091 125.275 49.2152 125.975 49.4273C126.696 49.6394 127.29 49.894 127.757 50.1909C128.223 50.4667 128.552 50.7212 128.743 50.9546V52.7046C128.085 52.2379 127.385 51.8985 126.643 51.6864C125.901 51.4743 125.116 51.3682 124.288 51.3682C123.567 51.3682 122.984 51.4637 122.538 51.6546C122.093 51.8243 121.754 52.0682 121.52 52.3864C121.308 52.7046 121.202 53.097 121.202 53.5637ZM120.12 47.2954L118.72 44.8772C119.399 44.4742 120.258 44.0817 121.297 43.6999C122.337 43.3181 123.546 43.1272 124.925 43.1272C126.113 43.1272 127.173 43.3075 128.107 43.6681C129.04 44.0075 129.761 44.5166 130.27 45.1954C130.801 45.8742 131.066 46.7015 131.066 47.6773V58.1138H127.693V48.3454C127.693 47.8788 127.619 47.4969 127.47 47.2C127.322 46.903 127.099 46.6591 126.802 46.4681C126.526 46.2772 126.198 46.1393 125.816 46.0545C125.434 45.9696 125.02 45.9272 124.575 45.9272C123.896 45.9272 123.249 46.0121 122.634 46.1818C122.04 46.3303 121.531 46.5212 121.107 46.7545C120.682 46.9666 120.354 47.1469 120.12 47.2954ZM137.363 50.7955C137.363 51.7076 137.564 52.5137 137.967 53.2137C138.371 53.9137 138.911 54.4652 139.59 54.8683C140.29 55.2713 141.064 55.4728 141.913 55.4728C142.634 55.4728 143.302 55.3668 143.918 55.1546C144.554 54.9213 145.116 54.6243 145.604 54.2637C146.092 53.8819 146.452 53.4576 146.686 52.991V56.7774C146.177 57.2865 145.487 57.6895 144.618 57.9865C143.748 58.2835 142.793 58.432 141.754 58.432C140.269 58.432 138.922 58.1138 137.713 57.4774C136.525 56.8198 135.581 55.9183 134.881 54.7728C134.181 53.6061 133.831 52.2803 133.831 50.7955C133.831 49.2894 134.181 47.9636 134.881 46.8181C135.581 45.6727 136.525 44.7818 137.713 44.1454C138.922 43.4878 140.269 43.159 141.754 43.159C142.793 43.159 143.748 43.3075 144.618 43.6045C145.487 43.9014 146.177 44.2939 146.686 44.7818V48.6C146.452 48.1121 146.081 47.6879 145.572 47.3272C145.084 46.9454 144.522 46.6484 143.886 46.4363C143.249 46.2242 142.592 46.1181 141.913 46.1181C141.064 46.1181 140.29 46.3197 139.59 46.7227C138.911 47.1257 138.371 47.6773 137.967 48.3773C137.564 49.0773 137.363 49.8833 137.363 50.7955ZM156.848 58.432C155.363 58.432 154.048 58.1138 152.902 57.4774C151.778 56.841 150.908 55.9501 150.293 54.8046C149.678 53.6592 149.37 52.3228 149.37 50.7955C149.37 49.247 149.678 47.9 150.293 46.7545C150.93 45.609 151.821 44.7287 152.966 44.1136C154.111 43.4772 155.458 43.159 157.007 43.159C158.555 43.159 159.871 43.456 160.952 44.0499C162.056 44.6439 162.893 45.503 163.466 46.6272C164.039 47.7303 164.325 49.0667 164.325 50.6364C164.325 50.8061 164.315 50.9864 164.293 51.1773C164.293 51.3682 164.293 51.5061 164.293 51.5909H151.439V49.2045H161.334L160.284 50.6682C160.348 50.5409 160.412 50.3712 160.475 50.1591C160.56 49.947 160.602 49.7667 160.602 49.6182C160.602 48.8333 160.443 48.1545 160.125 47.5818C159.828 47.0091 159.404 46.5636 158.852 46.2454C158.322 45.9272 157.696 45.7681 156.975 45.7681C156.105 45.7681 155.363 45.959 154.748 46.3409C154.154 46.7227 153.687 47.2742 153.348 47.9954C153.03 48.7167 152.871 49.6076 152.871 50.6682C152.849 51.7076 152.998 52.5985 153.316 53.341C153.655 54.0834 154.133 54.6455 154.748 55.0274C155.363 55.4092 156.116 55.6001 157.007 55.6001C157.962 55.6001 158.789 55.4092 159.489 55.0274C160.189 54.6455 160.762 54.0622 161.207 53.2773L164.198 54.4546C163.413 55.7698 162.416 56.7668 161.207 57.4456C159.998 58.1032 158.545 58.432 156.848 58.432ZM171.041 43.4772V58.1138H167.636V43.4772H171.041ZM175.4 47.1363C175.103 46.8818 174.806 46.6909 174.509 46.5636C174.233 46.4363 173.883 46.3727 173.459 46.3727C172.886 46.3727 172.42 46.5212 172.059 46.8181C171.699 47.1151 171.433 47.5288 171.264 48.0591C171.115 48.5682 171.041 49.1727 171.041 49.8727L169.896 49.2045C169.896 48.0379 170.108 47.0091 170.532 46.1181C170.977 45.206 171.539 44.4848 172.218 43.9545C172.918 43.4029 173.64 43.1272 174.382 43.1272C174.912 43.1272 175.411 43.212 175.877 43.3817C176.344 43.5514 176.747 43.8378 177.087 44.2408L175.4 47.1363ZM188.983 33.2952H192.452V58.1138H188.983V33.2952ZM203.178 58.432C201.693 58.432 200.378 58.1138 199.232 57.4774C198.108 56.841 197.238 55.9501 196.623 54.8046C196.008 53.6592 195.7 52.3228 195.7 50.7955C195.7 49.247 196.008 47.9 196.623 46.7545C197.259 45.609 198.15 44.7287 199.296 44.1136C200.441 43.4772 201.788 43.159 203.337 43.159C204.885 43.159 206.2 43.456 207.282 44.0499C208.385 44.6439 209.223 45.503 209.796 46.6272C210.369 47.7303 210.655 49.0667 210.655 50.6364C210.655 50.8061 210.644 50.9864 210.623 51.1773C210.623 51.3682 210.623 51.5061 210.623 51.5909H197.768V49.2045H207.664L206.614 50.6682C206.678 50.5409 206.741 50.3712 206.805 50.1591C206.89 49.947 206.932 49.7667 206.932 49.6182C206.932 48.8333 206.773 48.1545 206.455 47.5818C206.158 47.0091 205.734 46.5636 205.182 46.2454C204.652 45.9272 204.026 45.7681 203.305 45.7681C202.435 45.7681 201.693 45.959 201.078 46.3409C200.484 46.7227 200.017 47.2742 199.678 47.9954C199.359 48.7167 199.2 49.6076 199.2 50.6682C199.179 51.7076 199.328 52.5985 199.646 53.341C199.985 54.0834 200.462 54.6455 201.078 55.0274C201.693 55.4092 202.446 55.6001 203.337 55.6001C204.291 55.6001 205.119 55.4092 205.819 55.0274C206.519 54.6455 207.091 54.0622 207.537 53.2773L210.528 54.4546C209.743 55.7698 208.746 56.7668 207.537 57.4456C206.328 58.1032 204.875 58.432 203.178 58.432ZM225.796 50.7955C225.796 51.7076 225.998 52.5137 226.401 53.2137C226.804 53.9137 227.345 54.4652 228.024 54.8683C228.724 55.2713 229.498 55.4728 230.346 55.4728C231.068 55.4728 231.736 55.3668 232.351 55.1546C232.987 54.9213 233.55 54.6243 234.037 54.2637C234.525 53.8819 234.886 53.4576 235.119 52.991V56.7774C234.61 57.2865 233.921 57.6895 233.051 57.9865C232.181 58.2835 231.227 58.432 230.187 58.432C228.703 58.432 227.356 58.1138 226.146 57.4774C224.959 56.8198 224.015 55.9183 223.315 54.7728C222.615 53.6061 222.265 52.2803 222.265 50.7955C222.265 49.2894 222.615 47.9636 223.315 46.8181C224.015 45.6727 224.959 44.7818 226.146 44.1454C227.356 43.4878 228.703 43.159 230.187 43.159C231.227 43.159 232.181 43.3075 233.051 43.6045C233.921 43.9014 234.61 44.2939 235.119 44.7818V48.6C234.886 48.1121 234.515 47.6879 234.006 47.3272C233.518 46.9454 232.956 46.6484 232.319 46.4363C231.683 46.2242 231.025 46.1181 230.346 46.1181C229.498 46.1181 228.724 46.3197 228.024 46.7227C227.345 47.1257 226.804 47.6773 226.401 48.3773C225.998 49.0773 225.796 49.8833 225.796 50.7955ZM242.322 43.4772V58.1138H238.918V43.4772H242.322ZM246.681 47.1363C246.384 46.8818 246.087 46.6909 245.79 46.5636C245.515 46.4363 245.165 46.3727 244.74 46.3727C244.168 46.3727 243.701 46.5212 243.34 46.8181C242.98 47.1151 242.715 47.5288 242.545 48.0591C242.396 48.5682 242.322 49.1727 242.322 49.8727L241.177 49.2045C241.177 48.0379 241.389 47.0091 241.813 46.1181C242.259 45.206 242.821 44.4848 243.5 43.9545C244.2 43.4029 244.921 43.1272 245.663 43.1272C246.193 43.1272 246.692 43.212 247.159 43.3817C247.625 43.5514 248.028 43.8378 248.368 44.2408L246.681 47.1363ZM251.214 51.5909V49.2045H260.378C260.293 48.5257 260.102 47.9318 259.805 47.4227C259.529 46.8924 259.137 46.4894 258.628 46.2136C258.118 45.9166 257.493 45.7681 256.75 45.7681C255.987 45.7681 255.297 45.9378 254.682 46.2772C254.067 46.5954 253.579 47.0727 253.218 47.7091C252.879 48.3242 252.709 49.0561 252.709 49.9046L252.646 50.7955C252.646 51.8561 252.815 52.747 253.155 53.4682C253.515 54.1895 254.003 54.7304 254.618 55.091C255.255 55.4304 255.976 55.6001 256.782 55.6001C257.461 55.6001 258.055 55.5046 258.564 55.3137C259.094 55.1228 259.561 54.8577 259.964 54.5183C260.367 54.1577 260.706 53.744 260.982 53.2773L263.973 54.4546C263.485 55.2607 262.923 55.9607 262.287 56.5547C261.65 57.1486 260.876 57.6153 259.964 57.9547C259.073 58.2729 257.959 58.432 256.623 58.432C255.138 58.432 253.823 58.1032 252.677 57.4456C251.553 56.788 250.683 55.8865 250.068 54.741C249.453 53.5743 249.146 52.2591 249.146 50.7955C249.146 50.5197 249.156 50.2546 249.177 50C249.199 49.7455 249.23 49.4909 249.273 49.2364C249.485 48.0273 249.909 46.9666 250.546 46.0545C251.203 45.1424 252.062 44.4317 253.123 43.9226C254.184 43.4136 255.403 43.159 256.782 43.159C258.309 43.159 259.614 43.4666 260.696 44.0817C261.799 44.6757 262.637 45.5348 263.209 46.6591C263.803 47.7621 264.1 49.0879 264.1 50.6364C264.1 50.7637 264.1 50.9121 264.1 51.0818C264.1 51.2303 264.09 51.4 264.069 51.5909H251.214ZM262.032 36.2225L256.305 40.9953L254.364 39.8817L259.137 34.7907L262.032 36.2225ZM276.83 49.2045C276.83 48.1227 276.607 47.306 276.162 46.7545C275.716 46.203 275.037 45.9272 274.125 45.9272C273.468 45.9272 272.895 46.0651 272.407 46.3409C271.919 46.5954 271.537 46.9772 271.262 47.4863C271.007 47.9742 270.88 48.547 270.88 49.2045V58.1138H267.411V43.4772H270.88V45.7363C271.346 44.8666 271.94 44.2196 272.662 43.7954C273.404 43.3711 274.274 43.159 275.271 43.159C276.925 43.159 278.187 43.6681 279.057 44.6863C279.927 45.6833 280.362 47.0515 280.362 48.7909V58.1138H276.83V49.2045ZM291.114 58.432C289.629 58.432 288.314 58.1138 287.168 57.4774C286.044 56.841 285.174 55.9501 284.559 54.8046C283.944 53.6592 283.637 52.3228 283.637 50.7955C283.637 49.247 283.944 47.9 284.559 46.7545C285.196 45.609 286.087 44.7287 287.232 44.1136C288.377 43.4772 289.724 43.159 291.273 43.159C292.821 43.159 294.137 43.456 295.218 44.0499C296.322 44.6439 297.159 45.503 297.732 46.6272C298.305 47.7303 298.591 49.0667 298.591 50.6364C298.591 50.8061 298.581 50.9864 298.559 51.1773C298.559 51.3682 298.559 51.5061 298.559 51.5909H285.705V49.2045H295.6L294.55 50.6682C294.614 50.5409 294.678 50.3712 294.741 50.1591C294.826 49.947 294.868 49.7667 294.868 49.6182C294.868 48.8333 294.709 48.1545 294.391 47.5818C294.094 47.0091 293.67 46.5636 293.118 46.2454C292.588 45.9272 291.962 45.7681 291.241 45.7681C290.371 45.7681 289.629 45.959 289.014 46.3409C288.42 46.7227 287.953 47.2742 287.614 47.9954C287.296 48.7167 287.137 49.6076 287.137 50.6682C287.115 51.7076 287.264 52.5985 287.582 53.341C287.921 54.0834 288.399 54.6455 289.014 55.0274C289.629 55.4092 290.382 55.6001 291.273 55.6001C292.228 55.6001 293.055 55.4092 293.755 55.0274C294.455 54.6455 295.028 54.0622 295.473 53.2773L298.464 54.4546C297.679 55.7698 296.682 56.7668 295.473 57.4456C294.264 58.1032 292.811 58.432 291.114 58.432ZM304.066 53.5637C304.066 54.0516 304.183 54.4758 304.416 54.8364C304.649 55.1758 304.968 55.4304 305.371 55.6001C305.795 55.7698 306.272 55.8546 306.802 55.8546C307.502 55.8546 308.128 55.7168 308.68 55.441C309.253 55.144 309.709 54.7304 310.048 54.2001C310.387 53.6698 310.557 53.0334 310.557 52.291L311.066 54.2001C311.066 55.1334 310.79 55.9183 310.239 56.5547C309.709 57.191 309.03 57.6683 308.202 57.9865C307.396 58.2835 306.569 58.432 305.721 58.432C304.809 58.432 303.96 58.2517 303.175 57.891C302.39 57.5304 301.765 57.0001 301.298 56.3001C300.831 55.6001 300.598 54.7516 300.598 53.7546C300.598 52.3334 301.096 51.2091 302.093 50.3818C303.09 49.5333 304.501 49.1091 306.325 49.1091C307.301 49.1091 308.139 49.2152 308.839 49.4273C309.56 49.6394 310.154 49.894 310.621 50.1909C311.087 50.4667 311.416 50.7212 311.607 50.9546V52.7046C310.95 52.2379 310.249 51.8985 309.507 51.6864C308.765 51.4743 307.98 51.3682 307.152 51.3682C306.431 51.3682 305.848 51.4637 305.402 51.6546C304.957 51.8243 304.618 52.0682 304.384 52.3864C304.172 52.7046 304.066 53.097 304.066 53.5637ZM302.984 47.2954L301.584 44.8772C302.263 44.4742 303.122 44.0817 304.162 43.6999C305.201 43.3181 306.41 43.1272 307.789 43.1272C308.977 43.1272 310.037 43.3075 310.971 43.6681C311.904 44.0075 312.625 44.5166 313.134 45.1954C313.665 45.8742 313.93 46.7015 313.93 47.6773V58.1138H310.557V48.3454C310.557 47.8788 310.483 47.4969 310.334 47.2C310.186 46.903 309.963 46.6591 309.666 46.4681C309.39 46.2772 309.062 46.1393 308.68 46.0545C308.298 45.9696 307.884 45.9272 307.439 45.9272C306.76 45.9272 306.113 46.0121 305.498 46.1818C304.904 46.3303 304.395 46.5212 303.971 46.7545C303.546 46.9666 303.218 47.1469 302.984 47.2954ZM321.468 52.3864C321.468 53.4258 321.691 54.2319 322.136 54.8046C322.582 55.3774 323.271 55.6637 324.204 55.6637C324.841 55.6637 325.403 55.5259 325.891 55.2501C326.379 54.9743 326.76 54.5925 327.036 54.1046C327.312 53.6167 327.45 53.044 327.45 52.3864V43.4772H330.886V58.1138H327.45V55.8546C326.983 56.7031 326.379 57.3501 325.636 57.7956C324.915 58.2198 324.045 58.432 323.027 58.432C321.394 58.432 320.132 57.9229 319.241 56.9047C318.371 55.8865 317.936 54.5077 317.936 52.7682V43.4772H321.468V52.3864Z" fill="black"/>
</svg>
