<svg width="159" height="156" viewBox="0 0 159 156" fill="none" xmlns="http://www.w3.org/2000/svg">
<ellipse cx="79.2787" cy="78" rx="79.2787" ry="78" fill="#E6E6E6"/>
<path d="M50.5502 45.65H49.9127C48.8565 45.65 48.0002 44.7937 48.0002 43.7375V39.9125C48.0002 38.8563 48.8565 38 49.9127 38H107.288C108.344 38 109.2 38.8563 109.2 39.9125V43.7375C109.2 44.7937 108.344 45.65 107.288 45.65H106.65C106.65 58.4899 101.52 72.0755 91.1621 78.8C101.566 85.5545 106.65 99.1841 106.65 111.95H107.288C108.344 111.95 109.2 112.806 109.2 113.862V117.687C109.2 118.744 108.344 119.6 107.288 119.6H49.9127C48.8565 119.6 48.0002 118.744 48.0002 117.687V113.862C48.0002 112.806 48.8565 111.95 49.9127 111.95H50.5502C50.5502 99.1101 55.6802 85.5245 66.0383 78.8C55.6339 72.0455 50.5502 58.4159 50.5502 45.65ZM99.0002 45.65H58.2002C58.2002 61.8457 67.3335 74.975 78.6002 74.975C89.8669 74.975 99.0002 61.8458 99.0002 45.65ZM58.2002 111.95H99.0002C99.0002 95.7543 89.8667 82.625 78.6002 82.625C67.3337 82.625 58.2002 95.7543 58.2002 111.95Z" fill="black"/>
</svg>
