<svg width="159" height="156" viewBox="0 0 159 156" fill="none" xmlns="http://www.w3.org/2000/svg">
<ellipse cx="79.2787" cy="78" rx="79.2787" ry="78" fill="#E6E6E6"/>
<path d="M90.198 83.5984L107.596 66.2008C109.731 64.0658 109.731 60.6044 107.596 58.4677L103.729 54.6012C101.594 52.4663 98.1327 52.4663 95.996 54.6012L78.5984 71.9988L61.2008 54.6012C59.0658 52.4663 55.6044 52.4663 53.4677 54.6012L49.6012 58.4677C47.4663 60.6027 47.4663 64.0641 49.6012 66.2008L66.9988 83.5984L49.6012 100.996C47.4663 103.131 47.4663 106.592 49.6012 108.729L53.4677 112.596C55.6027 114.731 59.0658 114.731 61.2008 112.596L78.5984 95.198L95.996 112.596C98.1309 114.731 101.594 114.731 103.729 112.596L107.596 108.729C109.731 106.594 109.731 103.133 107.596 100.996L90.198 83.5984Z" fill="black"/>
</svg>
