<svg width="137" height="42" viewBox="0 0 137 42" fill="none" xmlns="http://www.w3.org/2000/svg">
<g filter="url(#filter0_d_1055_30)">
<path d="M23 0C12.5055 0 4 6.96172 4 15.5536C4 19.2625 5.58828 22.6574 8.23047 25.3269C7.30273 29.0956 4.20039 32.4531 4.16328 32.4905C4 32.6625 3.95547 32.9167 4.05195 33.1411C4.14844 33.3654 4.35625 33.5 4.59375 33.5C9.51445 33.5 13.2031 31.1221 15.0289 29.6565C17.4559 30.5762 20.15 31.1071 23 31.1071C33.4945 31.1071 42 24.1454 42 15.5536C42 6.96172 33.4945 0 23 0Z" fill="white"/>
<path d="M23 0H117.39C126.011 0 133 6.9888 133 15.6099C133 24.1096 126.11 31 117.61 31H23V0Z" fill="white"/>
<path d="M24.2382 14.5158L23.7329 19H22.4487L23.4593 11.2632L26.4803 16.2632L29.5119 11.2632L30.5224 19H29.2382L28.7224 14.5158L26.4803 18.3158L24.2382 14.5158ZM31.2676 16.5789C31.2676 16.0807 31.3799 15.6421 31.6045 15.2632C31.8361 14.8842 32.1483 14.5895 32.5413 14.3789C32.9343 14.1614 33.3799 14.0526 33.8782 14.0526C34.3764 14.0526 34.8185 14.1614 35.2045 14.3789C35.5975 14.5895 35.9097 14.8842 36.1413 15.2632C36.3729 15.6421 36.4887 16.0807 36.4887 16.5789C36.4887 17.0702 36.3729 17.5088 36.1413 17.8947C35.9097 18.2737 35.5975 18.5719 35.2045 18.7895C34.8185 19 34.3764 19.1053 33.8782 19.1053C33.3799 19.1053 32.9343 19 32.5413 18.7895C32.1483 18.5719 31.8361 18.2737 31.6045 17.8947C31.3799 17.5088 31.2676 17.0702 31.2676 16.5789ZM32.4361 16.5789C32.4361 16.8807 32.4992 17.1474 32.6255 17.3789C32.7518 17.6035 32.9238 17.7825 33.1413 17.9158C33.3589 18.0421 33.6045 18.1053 33.8782 18.1053C34.1448 18.1053 34.3869 18.0421 34.6045 17.9158C34.829 17.7825 35.0045 17.6035 35.1308 17.3789C35.2571 17.1474 35.3203 16.8807 35.3203 16.5789C35.3203 16.2772 35.2571 16.0105 35.1308 15.7789C35.0045 15.5474 34.829 15.3684 34.6045 15.2421C34.3869 15.1158 34.1448 15.0526 33.8782 15.0526C33.6045 15.0526 33.3589 15.1158 33.1413 15.2421C32.9238 15.3684 32.7518 15.5474 32.6255 15.7789C32.4992 16.0105 32.4361 16.2772 32.4361 16.5789ZM41.2095 10.7895H42.3569V19H41.2095V10.7895ZM37.199 16.5789C37.199 16.0456 37.3077 15.593 37.5253 15.2211C37.7428 14.8421 38.0306 14.5544 38.3884 14.3579C38.7534 14.1544 39.1428 14.0526 39.5569 14.0526C39.9639 14.0526 40.3183 14.1544 40.62 14.3579C40.9288 14.5614 41.1709 14.8526 41.3463 15.2316C41.5288 15.6035 41.62 16.0526 41.62 16.5789C41.62 17.0982 41.5288 17.5474 41.3463 17.9263C41.1709 18.3053 40.9288 18.5965 40.62 18.8C40.3183 19.0035 39.9639 19.1053 39.5569 19.1053C39.1428 19.1053 38.7534 19.007 38.3884 18.8105C38.0306 18.607 37.7428 18.3158 37.5253 17.9368C37.3077 17.5579 37.199 17.1053 37.199 16.5789ZM38.3779 16.5789C38.3779 16.9018 38.4446 17.1789 38.5779 17.4105C38.7113 17.6421 38.8867 17.8175 39.1042 17.9368C39.3288 18.0561 39.5709 18.1158 39.8306 18.1158C40.0481 18.1158 40.2621 18.0561 40.4727 17.9368C40.6902 17.8175 40.8656 17.6456 40.999 17.4211C41.1393 17.1895 41.2095 16.9088 41.2095 16.5789C41.2095 16.2491 41.1393 15.9719 40.999 15.7474C40.8656 15.5158 40.6902 15.3404 40.4727 15.2211C40.2621 15.1018 40.0481 15.0421 39.8306 15.0421C39.5709 15.0421 39.3288 15.1018 39.1042 15.2211C38.8867 15.3404 38.7113 15.5158 38.5779 15.7474C38.4446 15.9789 38.3779 16.2561 38.3779 16.5789ZM43.7239 12.2316C43.7239 12.0351 43.7941 11.8702 43.9344 11.7368C44.0818 11.6035 44.2502 11.5368 44.4397 11.5368C44.6432 11.5368 44.8116 11.6035 44.9449 11.7368C45.0853 11.8702 45.1555 12.0351 45.1555 12.2316C45.1555 12.4211 45.0853 12.586 44.9449 12.7263C44.8116 12.8596 44.6432 12.9263 44.4397 12.9263C44.2502 12.9263 44.0818 12.8596 43.9344 12.7263C43.7941 12.586 43.7239 12.4211 43.7239 12.2316ZM43.8818 14.1579H44.9976V19H43.8818V14.1579ZM46.162 14.1579H48.941V15.1579H46.162V14.1579ZM48.8147 12.0105C48.7445 11.8982 48.6638 11.8246 48.5726 11.7895C48.4884 11.7544 48.4006 11.7368 48.3094 11.7368C48.2042 11.7368 48.1129 11.7649 48.0357 11.8211C47.9656 11.8772 47.9094 11.9684 47.8673 12.0947C47.8252 12.2211 47.8042 12.386 47.8042 12.5895V19H46.6884V12.3684C46.6884 11.9895 46.748 11.6772 46.8673 11.4316C46.9936 11.1789 47.1726 10.9895 47.4042 10.8632C47.6357 10.7298 47.9199 10.6632 48.2568 10.6632C48.4463 10.6632 48.6112 10.6877 48.7515 10.7368C48.8919 10.786 49.0112 10.8456 49.1094 10.9158C49.2147 10.986 49.2954 11.0561 49.3515 11.1263L48.8147 12.0105ZM49.7683 12.2316C49.7683 12.0351 49.8385 11.8702 49.9788 11.7368C50.1262 11.6035 50.2946 11.5368 50.4841 11.5368C50.6876 11.5368 50.856 11.6035 50.9894 11.7368C51.1297 11.8702 51.1999 12.0351 51.1999 12.2316C51.1999 12.4211 51.1297 12.586 50.9894 12.7263C50.856 12.8596 50.6876 12.9263 50.4841 12.9263C50.2946 12.9263 50.1262 12.8596 49.9788 12.7263C49.8385 12.586 49.7683 12.4211 49.7683 12.2316ZM49.9262 14.1579H51.042V19H49.9262V14.1579ZM54.7117 19.1053C54.2205 19.1053 53.7854 19 53.4065 18.7895C53.0345 18.5789 52.7468 18.2842 52.5433 17.9053C52.3398 17.5263 52.238 17.0842 52.238 16.5789C52.238 16.0667 52.3398 15.6211 52.5433 15.2421C52.7538 14.8632 53.0486 14.5719 53.4275 14.3684C53.8065 14.1579 54.2521 14.0526 54.7644 14.0526C55.2766 14.0526 55.7117 14.1509 56.0696 14.3474C56.4275 14.5439 56.7012 14.8281 56.8907 15.2C57.0872 15.5649 57.1854 16.007 57.1854 16.5263C57.1854 16.5825 57.1819 16.6421 57.1749 16.7053C57.1749 16.7684 57.1714 16.814 57.1644 16.8421H52.9117V16.0632H56.1959L55.8486 16.5474C55.8696 16.5053 55.8907 16.4491 55.9117 16.3789C55.9398 16.3018 55.9538 16.2386 55.9538 16.1895C55.9538 15.9298 55.9012 15.7053 55.7959 15.5158C55.6977 15.3263 55.5573 15.1789 55.3749 15.0737C55.1994 14.9684 54.9924 14.9158 54.7538 14.9158C54.4661 14.9158 54.2205 14.9789 54.017 15.1053C53.8135 15.2316 53.6591 15.414 53.5538 15.6526C53.4486 15.8912 53.3924 16.186 53.3854 16.5368C53.3854 16.8877 53.438 17.186 53.5433 17.4316C53.6486 17.6702 53.8029 17.8526 54.0065 17.9789C54.217 18.1053 54.4696 18.1684 54.7644 18.1684C55.0731 18.1684 55.3433 18.1053 55.5749 17.9789C55.8065 17.8526 55.9994 17.6596 56.1538 17.4L57.1328 17.8C56.8801 18.2351 56.5538 18.5614 56.1538 18.7789C55.7538 18.9965 55.2731 19.1053 54.7117 19.1053ZM59.3968 14.1579V19H58.2705V14.1579H59.3968ZM60.8389 15.3684C60.7337 15.2842 60.6354 15.2211 60.5442 15.1789C60.453 15.1368 60.3372 15.1158 60.1968 15.1158C60.0074 15.1158 59.853 15.1649 59.7337 15.2632C59.6144 15.3614 59.5267 15.4982 59.4705 15.6737C59.4214 15.8421 59.3968 16.0421 59.3968 16.2737L59.0179 16.0526C59.0179 15.6667 59.0881 15.3263 59.2284 15.0316C59.3758 14.7298 59.5617 14.4912 59.7863 14.3158C60.0179 14.1404 60.2565 14.0526 60.5021 14.0526C60.6775 14.0526 60.8424 14.0807 60.9968 14.1368C61.1512 14.186 61.281 14.2772 61.3863 14.4105L60.8389 15.3684ZM65.3223 10.7895H66.4592V19H65.3223V10.7895ZM70.018 19.1053C69.5268 19.1053 69.0917 19 68.7128 18.7895C68.3409 18.5789 68.0531 18.2842 67.8496 17.9053C67.6461 17.5263 67.5444 17.0842 67.5444 16.5789C67.5444 16.0667 67.6461 15.6211 67.8496 15.2421C68.0602 14.8632 68.3549 14.5719 68.7338 14.3684C69.1128 14.1579 69.5584 14.0526 70.0707 14.0526C70.583 14.0526 71.018 14.1509 71.3759 14.3474C71.7338 14.5439 72.0075 14.8281 72.197 15.2C72.3935 15.5649 72.4917 16.007 72.4917 16.5263C72.4917 16.5825 72.4882 16.6421 72.4812 16.7053C72.4812 16.7684 72.4777 16.814 72.4707 16.8421H68.218V16.0632H71.5023L71.1549 16.5474C71.1759 16.5053 71.197 16.4491 71.218 16.3789C71.2461 16.3018 71.2602 16.2386 71.2602 16.1895C71.2602 15.9298 71.2075 15.7053 71.1023 15.5158C71.004 15.3263 70.8637 15.1789 70.6812 15.0737C70.5058 14.9684 70.2988 14.9158 70.0602 14.9158C69.7724 14.9158 69.5268 14.9789 69.3233 15.1053C69.1198 15.2316 68.9654 15.414 68.8602 15.6526C68.7549 15.8912 68.6988 16.186 68.6917 16.5368C68.6917 16.8877 68.7444 17.186 68.8496 17.4316C68.9549 17.6702 69.1093 17.8526 69.3128 17.9789C69.5233 18.1053 69.7759 18.1684 70.0707 18.1684C70.3795 18.1684 70.6496 18.1053 70.8812 17.9789C71.1128 17.8526 71.3058 17.6596 71.4602 17.4L72.4391 17.8C72.1865 18.2351 71.8602 18.5614 71.4602 18.7789C71.0602 18.9965 70.5795 19.1053 70.018 19.1053ZM77.4906 16.5789C77.4906 16.8877 77.5573 17.1579 77.6906 17.3895C77.8239 17.614 78.0029 17.793 78.2274 17.9263C78.459 18.0596 78.7151 18.1263 78.9958 18.1263C79.2274 18.1263 79.4485 18.0912 79.659 18.0211C79.8695 17.9509 80.0555 17.8526 80.2169 17.7263C80.3783 17.6 80.4976 17.4596 80.5748 17.3053V18.5579C80.4064 18.7263 80.1783 18.8596 79.8906 18.9579C79.6029 19.0561 79.2871 19.1053 78.9432 19.1053C78.445 19.1053 77.9958 19 77.5958 18.7895C77.2029 18.5719 76.8906 18.2737 76.659 17.8947C76.4344 17.5088 76.3222 17.0702 76.3222 16.5789C76.3222 16.0807 76.4344 15.6421 76.659 15.2632C76.8906 14.8842 77.2029 14.5895 77.5958 14.3789C77.9958 14.1614 78.445 14.0526 78.9432 14.0526C79.2871 14.0526 79.6029 14.1018 79.8906 14.2C80.1783 14.2982 80.4064 14.4316 80.5748 14.6V15.8526C80.4976 15.6912 80.3748 15.5509 80.2064 15.4316C80.045 15.3053 79.859 15.207 79.6485 15.1368C79.438 15.0667 79.2204 15.0316 78.9958 15.0316C78.7151 15.0316 78.459 15.0982 78.2274 15.2316C78.0029 15.3649 77.8239 15.5474 77.6906 15.7789C77.5573 16.0105 77.4906 16.2772 77.4906 16.5789ZM82.9577 14.1579V19H81.8314V14.1579H82.9577ZM84.3998 15.3684C84.2945 15.2842 84.1963 15.2211 84.1051 15.1789C84.0138 15.1368 83.898 15.1158 83.7577 15.1158C83.5682 15.1158 83.4138 15.1649 83.2945 15.2632C83.1752 15.3614 83.0875 15.4982 83.0314 15.6737C82.9822 15.8421 82.9577 16.0421 82.9577 16.2737L82.5787 16.0526C82.5787 15.6667 82.6489 15.3263 82.7893 15.0316C82.9366 14.7298 83.1226 14.4912 83.3472 14.3158C83.5787 14.1404 83.8173 14.0526 84.063 14.0526C84.2384 14.0526 84.4033 14.0807 84.5577 14.1368C84.7121 14.186 84.8419 14.2772 84.9472 14.4105L84.3998 15.3684ZM85.8784 16.8421V16.0632H88.9205C88.8924 15.8316 88.8293 15.6316 88.731 15.4632C88.6398 15.2877 88.51 15.1544 88.3416 15.0632C88.1731 14.9649 87.9661 14.9158 87.7205 14.9158C87.4679 14.9158 87.2398 14.9719 87.0363 15.0842C86.8328 15.1895 86.6714 15.3474 86.5521 15.5579C86.4328 15.7614 86.3731 16.0035 86.3731 16.2842L86.3521 16.5789C86.3521 16.9368 86.4082 17.2351 86.5205 17.4737C86.6398 17.7053 86.8012 17.8807 87.0047 18C87.2153 18.1123 87.4574 18.1684 87.731 18.1684C87.9556 18.1684 88.1521 18.1368 88.3205 18.0737C88.496 18.0105 88.6503 17.9228 88.7837 17.8105C88.917 17.6912 89.0293 17.5544 89.1205 17.4L90.0995 17.8C89.9381 18.0596 89.7521 18.2877 89.5416 18.4842C89.3381 18.6807 89.0854 18.8351 88.7837 18.9474C88.4889 19.0526 88.1205 19.1053 87.6784 19.1053C87.1802 19.1053 86.7451 18.9965 86.3731 18.7789C86.0012 18.5614 85.7135 18.2632 85.51 17.8842C85.3065 17.4982 85.2047 17.0632 85.2047 16.5789C85.2047 16.4877 85.2082 16.4 85.2153 16.3158C85.2223 16.2316 85.2328 16.1474 85.2468 16.0632C85.317 15.6632 85.4574 15.3123 85.6679 15.0105C85.8854 14.7088 86.1696 14.4737 86.5205 14.3053C86.8714 14.1368 87.2749 14.0526 87.731 14.0526C88.2293 14.0526 88.6574 14.1544 89.0153 14.3579C89.3802 14.5544 89.6609 14.8386 89.8574 15.2105C90.0538 15.5754 90.1521 16.014 90.1521 16.5263C90.1521 16.5684 90.1521 16.6175 90.1521 16.6737C90.1521 16.7228 90.1451 16.7789 90.131 16.8421H85.8784ZM89.4679 11.7579L87.5731 13.3368L86.931 12.9684L88.51 11.2842L89.4679 11.7579ZM94.353 16.0526C94.353 15.6947 94.2793 15.4246 94.1319 15.2421C93.9846 15.0596 93.7565 14.9684 93.4477 14.9684C93.2372 14.9684 93.0512 15.014 92.8898 15.1053C92.7284 15.1895 92.6021 15.3158 92.5109 15.4842C92.4197 15.6456 92.3741 15.8351 92.3741 16.0526V19H91.2372V14.1579H92.3741V14.9053C92.5284 14.6175 92.7249 14.4035 92.9635 14.2632C93.2091 14.1228 93.5004 14.0526 93.8372 14.0526C94.3846 14.0526 94.8021 14.2211 95.0898 14.5579C95.3776 14.8877 95.5214 15.3439 95.5214 15.9263V19H94.353V16.0526ZM99.0785 19.1053C98.5873 19.1053 98.1522 19 97.7732 18.7895C97.4013 18.5789 97.1136 18.2842 96.9101 17.9053C96.7066 17.5263 96.6048 17.0842 96.6048 16.5789C96.6048 16.0667 96.7066 15.6211 96.9101 15.2421C97.1206 14.8632 97.4153 14.5719 97.7943 14.3684C98.1732 14.1579 98.6188 14.0526 99.1311 14.0526C99.6434 14.0526 100.078 14.1509 100.436 14.3474C100.794 14.5439 101.068 14.8281 101.257 15.2C101.454 15.5649 101.552 16.007 101.552 16.5263C101.552 16.5825 101.549 16.6421 101.542 16.7053C101.542 16.7684 101.538 16.814 101.531 16.8421H97.2785V16.0632H100.563L100.215 16.5474C100.236 16.5053 100.257 16.4491 100.278 16.3789C100.307 16.3018 100.321 16.2386 100.321 16.1895C100.321 15.9298 100.268 15.7053 100.163 15.5158C100.064 15.3263 99.9241 15.1789 99.7417 15.0737C99.5662 14.9684 99.3592 14.9158 99.1206 14.9158C98.8329 14.9158 98.5873 14.9789 98.3838 15.1053C98.1803 15.2316 98.0259 15.414 97.9206 15.6526C97.8153 15.8912 97.7592 16.186 97.7522 16.5368C97.7522 16.8877 97.8048 17.186 97.9101 17.4316C98.0153 17.6702 98.1697 17.8526 98.3732 17.9789C98.5838 18.1053 98.8364 18.1684 99.1311 18.1684C99.4399 18.1684 99.7101 18.1053 99.9417 17.9789C100.173 17.8526 100.366 17.6596 100.521 17.4L101.5 17.8C101.247 18.2351 100.921 18.5614 100.521 18.7789C100.121 18.9965 99.6399 19.1053 99.0785 19.1053ZM103.353 17.4947C103.353 17.6561 103.392 17.7965 103.469 17.9158C103.546 18.0281 103.651 18.1123 103.785 18.1684C103.925 18.2246 104.083 18.2526 104.258 18.2526C104.483 18.2526 104.686 18.207 104.869 18.1158C105.058 18.0246 105.209 17.8912 105.322 17.7158C105.441 17.5333 105.5 17.3228 105.5 17.0842L105.669 17.7158C105.669 18.0246 105.578 18.2842 105.395 18.4947C105.22 18.6982 104.995 18.8526 104.722 18.9579C104.455 19.0561 104.181 19.1053 103.9 19.1053C103.599 19.1053 103.318 19.0456 103.058 18.9263C102.799 18.807 102.592 18.6316 102.437 18.4C102.283 18.1684 102.206 17.8877 102.206 17.5579C102.206 17.0877 102.371 16.7158 102.7 16.4421C103.03 16.1614 103.497 16.0211 104.1 16.0211C104.423 16.0211 104.7 16.0561 104.932 16.1263C105.171 16.1965 105.367 16.2807 105.522 16.3789C105.676 16.4702 105.785 16.5544 105.848 16.6316V17.2105C105.63 17.0561 105.399 16.9439 105.153 16.8737C104.907 16.8035 104.648 16.7684 104.374 16.7684C104.136 16.7684 103.943 16.8 103.795 16.8632C103.648 16.9193 103.536 17 103.458 17.1053C103.388 17.2105 103.353 17.3404 103.353 17.4947ZM102.995 15.4211L102.532 14.6211C102.75 14.4877 103.03 14.3579 103.374 14.2316C103.725 14.1053 104.125 14.0421 104.574 14.0421C104.974 14.0421 105.325 14.1018 105.627 14.2211C105.936 14.3404 106.178 14.5123 106.353 14.7368C106.529 14.9544 106.616 15.2246 106.616 15.5474V19H105.5V15.7684C105.5 15.614 105.472 15.4877 105.416 15.3895C105.367 15.2912 105.297 15.2105 105.206 15.1474C105.114 15.0842 105.006 15.0386 104.879 15.0105C104.753 14.9825 104.616 14.9684 104.469 14.9684C104.244 14.9684 104.03 14.9965 103.827 15.0526C103.63 15.1018 103.458 15.1649 103.311 15.2421C103.171 15.3123 103.065 15.3719 102.995 15.4211ZM109.11 17.1053C109.11 17.4491 109.184 17.7158 109.331 17.9053C109.478 18.0947 109.703 18.1895 110.005 18.1895C110.222 18.1895 110.412 18.1474 110.573 18.0632C110.735 17.9719 110.861 17.8456 110.952 17.6842C111.043 17.5158 111.089 17.3228 111.089 17.1053V14.1579H112.226V19H111.089V18.2526C110.935 18.5333 110.735 18.7474 110.489 18.8947C110.25 19.0351 109.963 19.1053 109.626 19.1053C109.085 19.1053 108.668 18.9368 108.373 18.6C108.085 18.2632 107.942 17.807 107.942 17.2316V14.1579H109.11V17.1053Z" fill="black"/>
</g>
<defs>
<filter id="filter0_d_1055_30" x="0" y="0" width="137" height="41.5" filterUnits="userSpaceOnUse" color-interpolation-filters="sRGB">
<feFlood flood-opacity="0" result="BackgroundImageFix"/>
<feColorMatrix in="SourceAlpha" type="matrix" values="0 0 0 0 0 0 0 0 0 0 0 0 0 0 0 0 0 0 127 0" result="hardAlpha"/>
<feOffset dy="4"/>
<feGaussianBlur stdDeviation="2"/>
<feComposite in2="hardAlpha" operator="out"/>
<feColorMatrix type="matrix" values="0 0 0 0 0 0 0 0 0 0 0 0 0 0 0 0 0 0 0.25 0"/>
<feBlend mode="normal" in2="BackgroundImageFix" result="effect1_dropShadow_1055_30"/>
<feBlend mode="normal" in="SourceGraphic" in2="effect1_dropShadow_1055_30" result="shape"/>
</filter>
</defs>
</svg>
