<svg width="137" height="42" viewBox="0 0 137 42" fill="none" xmlns="http://www.w3.org/2000/svg">
<g filter="url(#filter0_d_1042_40)">
<path d="M23 0C12.5055 0 4 6.96172 4 15.5536C4 19.2625 5.58828 22.6574 8.23047 25.3269C7.30273 29.0956 4.20039 32.4531 4.16328 32.4905C4 32.6625 3.95547 32.9167 4.05195 33.1411C4.14844 33.3654 4.35625 33.5 4.59375 33.5C9.51445 33.5 13.2031 31.1221 15.0289 29.6565C17.4559 30.5762 20.15 31.1071 23 31.1071C33.4945 31.1071 42 24.1454 42 15.5536C42 6.96172 33.4945 0 23 0Z" fill="white"/>
<path d="M23 0H117.39C126.011 0 133 6.9888 133 15.6099V15.6099C133 24.1096 126.11 31 117.61 31H23V0Z" fill="white"/>
<path d="M26.1868 14.5158L25.6815 19H24.3973L25.4079 11.2632L28.4289 16.2632L31.4605 11.2632L32.471 19H31.1868L30.6815 14.5158L28.4289 18.3158L26.1868 14.5158ZM33.2265 16.5789C33.2265 16.0807 33.3388 15.6421 33.5634 15.2632C33.7949 14.8842 34.1072 14.5895 34.5002 14.3789C34.9002 14.1614 35.3458 14.0526 35.8371 14.0526C36.3353 14.0526 36.7809 14.1614 37.1739 14.3789C37.5669 14.5895 37.8756 14.8842 38.1002 15.2632C38.3318 15.6421 38.4476 16.0807 38.4476 16.5789C38.4476 17.0702 38.3318 17.5088 38.1002 17.8947C37.8756 18.2737 37.5669 18.5719 37.1739 18.7895C36.7809 19 36.3353 19.1053 35.8371 19.1053C35.3458 19.1053 34.9002 19 34.5002 18.7895C34.1072 18.5719 33.7949 18.2737 33.5634 17.8947C33.3388 17.5088 33.2265 17.0702 33.2265 16.5789ZM34.3949 16.5789C34.3949 16.8807 34.4581 17.1474 34.5844 17.3789C34.7107 17.6035 34.8827 17.7825 35.1002 17.9158C35.3178 18.0421 35.5634 18.1053 35.8371 18.1053C36.1107 18.1053 36.3563 18.0421 36.5739 17.9158C36.7914 17.7825 36.9634 17.6035 37.0897 17.3789C37.216 17.1474 37.2792 16.8807 37.2792 16.5789C37.2792 16.2772 37.216 16.0105 37.0897 15.7789C36.9634 15.5474 36.7914 15.3684 36.5739 15.2421C36.3563 15.1158 36.1107 15.0526 35.8371 15.0526C35.5634 15.0526 35.3178 15.1158 35.1002 15.2421C34.8827 15.3684 34.7107 15.5474 34.5844 15.7789C34.4581 16.0105 34.3949 16.2772 34.3949 16.5789ZM43.1787 10.7895H44.326V19H43.1787V10.7895ZM39.1681 16.5789C39.1681 16.0456 39.2769 15.593 39.4945 15.2211C39.712 14.8421 39.9997 14.5544 40.3576 14.3579C40.7225 14.1544 41.112 14.0526 41.526 14.0526C41.933 14.0526 42.2874 14.1544 42.5892 14.3579C42.898 14.5614 43.1401 14.8526 43.3155 15.2316C43.498 15.6035 43.5892 16.0526 43.5892 16.5789C43.5892 17.0982 43.498 17.5474 43.3155 17.9263C43.1401 18.3053 42.898 18.5965 42.5892 18.8C42.2874 19.0035 41.933 19.1053 41.526 19.1053C41.112 19.1053 40.7225 19.007 40.3576 18.8105C39.9997 18.607 39.712 18.3158 39.4945 17.9368C39.2769 17.5579 39.1681 17.1053 39.1681 16.5789ZM40.3471 16.5789C40.3471 16.9018 40.4137 17.1789 40.5471 17.4105C40.6804 17.6421 40.8559 17.8175 41.0734 17.9368C41.298 18.0561 41.5401 18.1158 41.7997 18.1158C42.0243 18.1158 42.2418 18.0561 42.4523 17.9368C42.6629 17.8175 42.8348 17.6456 42.9681 17.4211C43.1085 17.1895 43.1787 16.9088 43.1787 16.5789C43.1787 16.2491 43.1085 15.9719 42.9681 15.7474C42.8348 15.5158 42.6629 15.3404 42.4523 15.2211C42.2418 15.1018 42.0243 15.0421 41.7997 15.0421C41.5401 15.0421 41.298 15.1018 41.0734 15.2211C40.8559 15.3404 40.6804 15.5158 40.5471 15.7474C40.4137 15.9789 40.3471 16.2561 40.3471 16.5789ZM45.6931 12.2316C45.6931 12.0351 45.7632 11.8702 45.9036 11.7368C46.0509 11.6035 46.2194 11.5368 46.4088 11.5368C46.6124 11.5368 46.7843 11.6035 46.9246 11.7368C47.065 11.8702 47.1352 12.0351 47.1352 12.2316C47.1352 12.4211 47.065 12.586 46.9246 12.7263C46.7843 12.8596 46.6124 12.9263 46.4088 12.9263C46.2194 12.9263 46.0509 12.8596 45.9036 12.7263C45.7632 12.586 45.6931 12.4211 45.6931 12.2316ZM45.8509 14.1579H46.9773V19H45.8509V14.1579ZM48.1415 14.1579H50.9204V15.1579H48.1415V14.1579ZM50.8046 12.0105C50.7345 11.8982 50.6538 11.8246 50.5625 11.7895C50.4713 11.7544 50.3836 11.7368 50.2994 11.7368C50.1941 11.7368 50.1029 11.7649 50.0257 11.8211C49.9555 11.8772 49.8994 11.9684 49.8573 12.0947C49.8152 12.2211 49.7941 12.386 49.7941 12.5895V19H48.6678V12.3684C48.6678 11.9895 48.7275 11.6772 48.8468 11.4316C48.9731 11.1789 49.152 10.986 49.3836 10.8526C49.6152 10.7193 49.9029 10.6526 50.2468 10.6526C50.4362 10.6526 50.6011 10.6772 50.7415 10.7263C50.8818 10.7754 51.0011 10.8386 51.0994 10.9158C51.1976 10.986 51.2748 11.0561 51.331 11.1263L50.8046 12.0105ZM51.7477 12.2316C51.7477 12.0351 51.8179 11.8702 51.9583 11.7368C52.1056 11.6035 52.2741 11.5368 52.4635 11.5368C52.667 11.5368 52.839 11.6035 52.9793 11.7368C53.1197 11.8702 53.1898 12.0351 53.1898 12.2316C53.1898 12.4211 53.1197 12.586 52.9793 12.7263C52.839 12.8596 52.667 12.9263 52.4635 12.9263C52.2741 12.9263 52.1056 12.8596 51.9583 12.7263C51.8179 12.586 51.7477 12.4211 51.7477 12.2316ZM51.9056 14.1579H53.032V19H51.9056V14.1579ZM56.7014 19.1053C56.2102 19.1053 55.7751 19 55.3962 18.7895C55.0242 18.5789 54.7365 18.2842 54.533 17.9053C54.3295 17.5263 54.2278 17.0842 54.2278 16.5789C54.2278 16.0667 54.3295 15.6211 54.533 15.2421C54.7435 14.8632 55.0383 14.5719 55.4172 14.3684C55.7962 14.1579 56.2418 14.0526 56.7541 14.0526C57.2664 14.0526 57.7014 14.1509 58.0593 14.3474C58.4242 14.5439 58.7014 14.8281 58.8909 15.2C59.0804 15.5649 59.1751 16.007 59.1751 16.5263C59.1751 16.5825 59.1716 16.6421 59.1646 16.7053C59.1646 16.7684 59.1646 16.814 59.1646 16.8421H54.912V16.0526H58.1857L57.8383 16.5368C57.8593 16.4947 57.8804 16.4386 57.9014 16.3684C57.9295 16.2982 57.9435 16.2386 57.9435 16.1895C57.9435 15.9298 57.8909 15.7053 57.7857 15.5158C57.6874 15.3263 57.5471 15.1789 57.3646 15.0737C57.1892 14.9684 56.9821 14.9158 56.7435 14.9158C56.4558 14.9158 56.2102 14.9789 56.0067 15.1053C55.8102 15.2316 55.6558 15.414 55.5435 15.6526C55.4383 15.8912 55.3857 16.186 55.3857 16.5368C55.3786 16.8807 55.4278 17.1754 55.533 17.4211C55.6453 17.6667 55.8032 17.8526 56.0067 17.9789C56.2102 18.1053 56.4593 18.1684 56.7541 18.1684C57.0699 18.1684 57.3435 18.1053 57.5751 17.9789C57.8067 17.8526 57.9962 17.6596 58.1435 17.4L59.133 17.7895C58.8734 18.2246 58.5435 18.5544 58.1435 18.7789C57.7435 18.9965 57.2628 19.1053 56.7014 19.1053ZM61.3968 14.1579V19H60.2705V14.1579H61.3968ZM62.8389 15.3684C62.7407 15.2842 62.6425 15.2211 62.5442 15.1789C62.453 15.1368 62.3372 15.1158 62.1968 15.1158C62.0074 15.1158 61.853 15.1649 61.7337 15.2632C61.6144 15.3614 61.5267 15.4982 61.4705 15.6737C61.4214 15.8421 61.3968 16.0421 61.3968 16.2737L61.0179 16.0526C61.0179 15.6667 61.0881 15.3263 61.2284 15.0316C61.3758 14.7298 61.5617 14.4912 61.7863 14.3158C62.0179 14.1333 62.2565 14.0421 62.5021 14.0421C62.6775 14.0421 62.8425 14.0702 62.9968 14.1263C63.1512 14.1825 63.2846 14.2772 63.3968 14.4105L62.8389 15.3684ZM67.3326 10.7895H68.48V19H67.3326V10.7895ZM72.0283 19.1053C71.5371 19.1053 71.102 19 70.7231 18.7895C70.3511 18.5789 70.0634 18.2842 69.8599 17.9053C69.6564 17.5263 69.5546 17.0842 69.5546 16.5789C69.5546 16.0667 69.6564 15.6211 69.8599 15.2421C70.0704 14.8632 70.3652 14.5719 70.7441 14.3684C71.1231 14.1579 71.5687 14.0526 72.081 14.0526C72.5932 14.0526 73.0283 14.1509 73.3862 14.3474C73.7511 14.5439 74.0283 14.8281 74.2178 15.2C74.4073 15.5649 74.502 16.007 74.502 16.5263C74.502 16.5825 74.4985 16.6421 74.4915 16.7053C74.4915 16.7684 74.4915 16.814 74.4915 16.8421H70.2389V16.0526H73.5125L73.1652 16.5368C73.1862 16.4947 73.2073 16.4386 73.2283 16.3684C73.2564 16.2982 73.2704 16.2386 73.2704 16.1895C73.2704 15.9298 73.2178 15.7053 73.1125 15.5158C73.0143 15.3263 72.8739 15.1789 72.6915 15.0737C72.5161 14.9684 72.309 14.9158 72.0704 14.9158C71.7827 14.9158 71.5371 14.9789 71.3336 15.1053C71.1371 15.2316 70.9827 15.414 70.8704 15.6526C70.7652 15.8912 70.7125 16.186 70.7125 16.5368C70.7055 16.8807 70.7546 17.1754 70.8599 17.4211C70.9722 17.6667 71.1301 17.8526 71.3336 17.9789C71.5371 18.1053 71.7862 18.1684 72.081 18.1684C72.3968 18.1684 72.6704 18.1053 72.902 17.9789C73.1336 17.8526 73.3231 17.6596 73.4704 17.4L74.4599 17.7895C74.2003 18.2246 73.8704 18.5544 73.4704 18.7789C73.0704 18.9965 72.5897 19.1053 72.0283 19.1053ZM79.5111 16.5789C79.5111 16.8807 79.5778 17.1474 79.7111 17.3789C79.8445 17.6105 80.0234 17.793 80.248 17.9263C80.4796 18.0596 80.7357 18.1263 81.0164 18.1263C81.255 18.1263 81.4761 18.0912 81.6796 18.0211C81.8901 17.9439 82.0761 17.8456 82.2375 17.7263C82.3989 17.6 82.5182 17.4596 82.5954 17.3053V18.5579C82.4269 18.7263 82.1989 18.8596 81.9111 18.9579C81.6234 19.0561 81.3076 19.1053 80.9638 19.1053C80.4725 19.1053 80.0269 19 79.6269 18.7895C79.2339 18.5719 78.9217 18.2737 78.6901 17.8947C78.4585 17.5088 78.3427 17.0702 78.3427 16.5789C78.3427 16.0807 78.4585 15.6421 78.6901 15.2632C78.9217 14.8842 79.2339 14.5895 79.6269 14.3789C80.0269 14.1614 80.4725 14.0526 80.9638 14.0526C81.3076 14.0526 81.6234 14.1018 81.9111 14.2C82.1989 14.2982 82.4269 14.4281 82.5954 14.5895V15.8526C82.5182 15.6912 82.3954 15.5509 82.2269 15.4316C82.0655 15.3053 81.8796 15.207 81.669 15.1368C81.4585 15.0667 81.241 15.0316 81.0164 15.0316C80.7357 15.0316 80.4796 15.0982 80.248 15.2316C80.0234 15.3649 79.8445 15.5474 79.7111 15.7789C79.5778 16.0105 79.5111 16.2772 79.5111 16.5789ZM84.9782 14.1579V19H83.8519V14.1579H84.9782ZM86.4204 15.3684C86.3221 15.2842 86.2239 15.2211 86.1256 15.1789C86.0344 15.1368 85.9186 15.1158 85.7782 15.1158C85.5888 15.1158 85.4344 15.1649 85.3151 15.2632C85.1958 15.3614 85.1081 15.4982 85.0519 15.6737C85.0028 15.8421 84.9782 16.0421 84.9782 16.2737L84.5993 16.0526C84.5993 15.6667 84.6695 15.3263 84.8098 15.0316C84.9572 14.7298 85.1432 14.4912 85.3677 14.3158C85.5993 14.1333 85.8379 14.0421 86.0835 14.0421C86.259 14.0421 86.4239 14.0702 86.5782 14.1263C86.7326 14.1825 86.866 14.2772 86.9782 14.4105L86.4204 15.3684ZM87.9198 16.8421V16.0526H90.9514C90.9233 15.8281 90.8601 15.6316 90.7619 15.4632C90.6707 15.2877 90.5408 15.1544 90.3724 15.0632C90.204 14.9649 89.997 14.9158 89.7514 14.9158C89.4987 14.9158 89.2707 14.9719 89.0671 15.0842C88.8636 15.1895 88.7022 15.3474 88.5829 15.5579C88.4707 15.7614 88.4145 16.0035 88.4145 16.2842L88.3935 16.5789C88.3935 16.9298 88.4496 17.2246 88.5619 17.4632C88.6812 17.7018 88.8426 17.8807 89.0461 18C89.2566 18.1123 89.4952 18.1684 89.7619 18.1684C89.9864 18.1684 90.1829 18.1368 90.3514 18.0737C90.5268 18.0105 90.6812 17.9228 90.8145 17.8105C90.9478 17.6912 91.0601 17.5544 91.1514 17.4L92.1408 17.7895C91.9794 18.0561 91.7935 18.2877 91.5829 18.4842C91.3724 18.6807 91.1163 18.8351 90.8145 18.9474C90.5198 19.0526 90.1514 19.1053 89.7092 19.1053C89.218 19.1053 88.7829 18.9965 88.404 18.7789C88.0321 18.5614 87.7443 18.2632 87.5408 17.8842C87.3373 17.4982 87.2356 17.0632 87.2356 16.5789C87.2356 16.4877 87.2391 16.4 87.2461 16.3158C87.2531 16.2316 87.2636 16.1474 87.2777 16.0632C87.3478 15.6632 87.4882 15.3123 87.6987 15.0105C87.9163 14.7088 88.2005 14.4737 88.5514 14.3053C88.9022 14.1368 89.3057 14.0526 89.7619 14.0526C90.2671 14.0526 90.6987 14.1544 91.0566 14.3579C91.4215 14.5544 91.6987 14.8386 91.8882 15.2105C92.0847 15.5754 92.1829 16.014 92.1829 16.5263C92.1829 16.5684 92.1829 16.6175 92.1829 16.6737C92.1829 16.7228 92.1794 16.7789 92.1724 16.8421H87.9198ZM91.4987 11.7579L89.604 13.3368L88.9619 12.9684L90.5408 11.2842L91.4987 11.7579ZM96.3941 16.0526C96.3941 15.6947 96.3204 15.4246 96.1731 15.2421C96.0257 15.0596 95.8011 14.9684 95.4994 14.9684C95.2818 14.9684 95.0924 15.014 94.931 15.1053C94.7696 15.1895 94.6432 15.3158 94.552 15.4842C94.4678 15.6456 94.4257 15.8351 94.4257 16.0526V19H93.2783V14.1579H94.4257V14.9053C94.5801 14.6175 94.7766 14.4035 95.0152 14.2632C95.2608 14.1228 95.5485 14.0526 95.8783 14.0526C96.4257 14.0526 96.8432 14.2211 97.131 14.5579C97.4187 14.8877 97.5625 15.3404 97.5625 15.9158V19H96.3941V16.0526ZM101.12 19.1053C100.628 19.1053 100.193 19 99.8143 18.7895C99.4424 18.5789 99.1547 18.2842 98.9512 17.9053C98.7477 17.5263 98.6459 17.0842 98.6459 16.5789C98.6459 16.0667 98.7477 15.6211 98.9512 15.2421C99.1617 14.8632 99.4565 14.5719 99.8354 14.3684C100.214 14.1579 100.66 14.0526 101.172 14.0526C101.685 14.0526 102.12 14.1509 102.478 14.3474C102.842 14.5439 103.12 14.8281 103.309 15.2C103.499 15.5649 103.593 16.007 103.593 16.5263C103.593 16.5825 103.59 16.6421 103.583 16.7053C103.583 16.7684 103.583 16.814 103.583 16.8421H99.3301V16.0526H102.604L102.256 16.5368C102.278 16.4947 102.299 16.4386 102.32 16.3684C102.348 16.2982 102.362 16.2386 102.362 16.1895C102.362 15.9298 102.309 15.7053 102.204 15.5158C102.106 15.3263 101.965 15.1789 101.783 15.0737C101.607 14.9684 101.4 14.9158 101.162 14.9158C100.874 14.9158 100.628 14.9789 100.425 15.1053C100.228 15.2316 100.074 15.414 99.9617 15.6526C99.8565 15.8912 99.8038 16.186 99.8038 16.5368C99.7968 16.8807 99.8459 17.1754 99.9512 17.4211C100.063 17.6667 100.221 17.8526 100.425 17.9789C100.628 18.1053 100.878 18.1684 101.172 18.1684C101.488 18.1684 101.762 18.1053 101.993 17.9789C102.225 17.8526 102.414 17.6596 102.562 17.4L103.551 17.7895C103.292 18.2246 102.962 18.5544 102.562 18.7789C102.162 18.9965 101.681 19.1053 101.12 19.1053ZM105.404 17.4947C105.404 17.6561 105.443 17.7965 105.52 17.9158C105.597 18.0281 105.703 18.1123 105.836 18.1684C105.976 18.2246 106.134 18.2526 106.31 18.2526C106.541 18.2526 106.748 18.207 106.931 18.1158C107.12 18.0175 107.271 17.8807 107.383 17.7053C107.496 17.5298 107.552 17.3193 107.552 17.0737L107.72 17.7053C107.72 18.014 107.629 18.2737 107.447 18.4842C107.271 18.6947 107.047 18.8526 106.773 18.9579C106.506 19.0561 106.233 19.1053 105.952 19.1053C105.65 19.1053 105.369 19.0456 105.11 18.9263C104.85 18.807 104.643 18.6316 104.489 18.4C104.334 18.1684 104.257 17.8877 104.257 17.5579C104.257 17.0877 104.422 16.7158 104.752 16.4421C105.082 16.1614 105.548 16.0211 106.152 16.0211C106.475 16.0211 106.752 16.0561 106.983 16.1263C107.222 16.1965 107.419 16.2807 107.573 16.3789C107.727 16.4702 107.836 16.5544 107.899 16.6316V17.2105C107.682 17.0561 107.45 16.9439 107.204 16.8737C106.959 16.8035 106.699 16.7684 106.426 16.7684C106.187 16.7684 105.994 16.8 105.847 16.8632C105.699 16.9193 105.587 17 105.51 17.1053C105.44 17.2105 105.404 17.3404 105.404 17.4947ZM105.047 15.4211L104.583 14.6211C104.808 14.4877 105.092 14.3579 105.436 14.2316C105.78 14.1053 106.18 14.0421 106.636 14.0421C107.029 14.0421 107.38 14.1018 107.689 14.2211C107.997 14.3333 108.236 14.5018 108.404 14.7263C108.58 14.9509 108.668 15.2246 108.668 15.5474V19H107.552V15.7684C107.552 15.614 107.527 15.4877 107.478 15.3895C107.429 15.2912 107.355 15.2105 107.257 15.1474C107.166 15.0842 107.057 15.0386 106.931 15.0105C106.804 14.9825 106.668 14.9684 106.52 14.9684C106.296 14.9684 106.082 14.9965 105.878 15.0526C105.682 15.1018 105.513 15.1649 105.373 15.2421C105.233 15.3123 105.124 15.3719 105.047 15.4211ZM111.161 17.1053C111.161 17.4491 111.235 17.7158 111.382 17.9053C111.53 18.0947 111.758 18.1895 112.067 18.1895C112.277 18.1895 112.463 18.1439 112.625 18.0526C112.786 17.9614 112.912 17.8351 113.003 17.6737C113.095 17.5123 113.14 17.3228 113.14 17.1053V14.1579H114.277V19H113.14V18.2526C112.986 18.5333 112.786 18.7474 112.54 18.8947C112.302 19.0351 112.014 19.1053 111.677 19.1053C111.137 19.1053 110.719 18.9368 110.425 18.6C110.137 18.2632 109.993 17.807 109.993 17.2316V14.1579H111.161V17.1053Z" fill="black"/>
</g>
<defs>
<filter id="filter0_d_1042_40" x="0" y="0" width="137" height="41.5" filterUnits="userSpaceOnUse" color-interpolation-filters="sRGB">
<feFlood flood-opacity="0" result="BackgroundImageFix"/>
<feColorMatrix in="SourceAlpha" type="matrix" values="0 0 0 0 0 0 0 0 0 0 0 0 0 0 0 0 0 0 127 0" result="hardAlpha"/>
<feOffset dy="4"/>
<feGaussianBlur stdDeviation="2"/>
<feComposite in2="hardAlpha" operator="out"/>
<feColorMatrix type="matrix" values="0 0 0 0 0 0 0 0 0 0 0 0 0 0 0 0 0 0 0.25 0"/>
<feBlend mode="normal" in2="BackgroundImageFix" result="effect1_dropShadow_1042_40"/>
<feBlend mode="normal" in="SourceGraphic" in2="effect1_dropShadow_1042_40" result="shape"/>
</filter>
</defs>
</svg>
