<svg width="145" height="145" viewBox="0 0 145 145" fill="none" xmlns="http://www.w3.org/2000/svg">
<path d="M96.6751 34.5225C96.6751 32.7383 96.0457 31.0107 94.9127 29.7363L70.2656 1.98242C69.1327 0.708008 67.597 0 65.9858 0H64.45V36.25H96.6751V34.5225ZM143.754 87.2266L119.661 59.9258C117.118 57.0654 112.762 59.0762 112.762 63.126V81.5625H96.6499V99.6875H112.762V118.152C112.762 122.202 117.118 124.213 119.661 121.353L143.754 94.0234C145.415 92.1543 145.415 89.0957 143.754 87.2266ZM48.3375 95.1562V86.0938C48.3375 83.6016 50.1502 81.5625 52.3657 81.5625H96.6751V45.3125H62.436C59.1128 45.3125 56.3938 42.2539 56.3938 38.5156V0H6.04219C2.69381 0 0 3.03027 0 6.79688V138.203C0 141.97 2.69381 145 6.04219 145H90.6329C93.9812 145 96.6751 141.97 96.6751 138.203V99.6875H52.3657C50.1502 99.6875 48.3375 97.6484 48.3375 95.1562Z" fill="black"/>
</svg>
