<svg width="145" height="135" viewBox="0 0 145 135" fill="none" xmlns="http://www.w3.org/2000/svg">
<g clip-path="url(#clip0_303_2543)">
<path d="M4.53125 71.5625C2.03906 71.5625 0 73.6016 0 76.0938V85.1562C0 87.6484 2.03906 89.6875 4.53125 89.6875H36.25V71.5625H4.53125ZM143.018 19.7363L115.292 -8.01758C114.018 -9.29199 112.29 -10 110.478 -10H108.75V26.25H145V24.5225C145 22.7383 144.292 21.0107 143.018 19.7363ZM99.6875 28.5156V-10H43.0469C39.2803 -10 36.25 -6.96973 36.25 -3.20312V71.5625H72.5V53.0977C72.5 49.0479 77.3994 47.0371 80.2598 49.8975L107.334 77.2266C109.203 79.124 109.203 82.1543 107.334 84.0234L80.2314 111.324C77.3711 114.185 72.4717 112.174 72.4717 108.124V89.6875H36.25V128.203C36.25 131.97 39.2803 135 43.0469 135H138.203C141.97 135 145 131.97 145 128.203V35.3125H106.484C102.746 35.3125 99.6875 32.2539 99.6875 28.5156Z" fill="black"/>
</g>
<defs>
<clipPath id="clip0_303_2543">
<rect width="145" height="145" fill="white" transform="translate(0 -10)"/>
</clipPath>
</defs>
</svg>
