<svg width="443" height="118" viewBox="0 0 443 118" fill="none" xmlns="http://www.w3.org/2000/svg">
<path d="M16.5808 89.4663L16.8163 88.5097L16.1232 87.8095C7.11167 78.7047 1.75794 67.1977 1.75794 54.6844C1.75794 25.7601 30.5296 1.75794 66.8016 1.75794C103.074 1.75794 131.845 25.7601 131.845 54.6844C131.845 83.6087 103.074 107.611 66.8016 107.611C57.0003 107.611 47.7388 105.785 39.3992 102.625L38.4595 102.268L37.6758 102.897C31.4039 107.932 18.8183 116.024 2.08755 116.024C2.00647 116.024 1.95237 116.002 1.91587 115.978C1.87999 115.955 1.83449 115.911 1.79756 115.825C1.72938 115.667 1.77058 115.525 1.84897 115.443L1.8488 115.443C2.17729 115.095 4.91368 112.081 8.00239 107.549C11.2066 102.847 14.8781 96.3829 16.5808 89.4663Z" fill="white" stroke="#DEDEDE" stroke-width="3.51587"/>
<mask id="path-2-inside-1_331_3604" fill="white">
<path d="M66.8013 0H388.117C418.428 0 443 24.5718 443 54.8825V54.8825C443 84.7664 418.774 108.992 388.89 108.992H66.8013V0Z"/>
</mask>
<path d="M66.8013 0H388.117C418.428 0 443 24.5718 443 54.8825V54.8825C443 84.7664 418.774 108.992 388.89 108.992H66.8013V0Z" fill="white"/>
<path d="M66.8013 -3.51587H388.117C420.37 -3.51587 446.516 22.63 446.516 54.8825H439.484C439.484 26.5135 416.486 3.51587 388.117 3.51587H66.8013V-3.51587ZM446.516 54.8825C446.516 86.7082 420.716 112.508 388.89 112.508H66.8013V105.476H388.89C416.832 105.476 439.484 82.8246 439.484 54.8825H446.516ZM66.8013 108.992V0V108.992ZM388.117 -3.51587C420.37 -3.51587 446.516 22.63 446.516 54.8825C446.516 86.7082 420.716 112.508 388.89 112.508V105.476C416.832 105.476 439.484 82.8246 439.484 54.8825C439.484 26.5135 416.486 3.51587 388.117 3.51587V-3.51587Z" fill="#DEDEDE" mask="url(#path-2-inside-1_331_3604)"/>
<path d="M136.993 41.0936H141.36V63.077H151.649V67H136.993V41.0936ZM154.33 43.2031C154.33 42.5123 154.577 41.9324 155.07 41.4637C155.588 40.9949 156.181 40.7605 156.847 40.7605C157.562 40.7605 158.154 40.9949 158.623 41.4637C159.117 41.9324 159.363 42.5123 159.363 43.2031C159.363 43.8693 159.117 44.4491 158.623 44.9425C158.154 45.4113 157.562 45.6457 156.847 45.6457C156.181 45.6457 155.588 45.4113 155.07 44.9425C154.577 44.4491 154.33 43.8693 154.33 43.2031ZM154.885 49.9758H158.808V67H154.885V49.9758ZM171.711 67.3701C169.983 67.3701 168.454 67 167.121 66.2598C165.814 65.5196 164.802 64.4834 164.087 63.151C163.371 61.8187 163.013 60.2643 163.013 58.4879C163.013 56.6868 163.371 55.12 164.087 53.7877C164.827 52.4554 165.863 51.4315 167.195 50.716C168.528 49.9758 170.094 49.6057 171.896 49.6057C173.697 49.6057 175.226 49.9511 176.485 50.6419C177.743 51.3328 178.705 52.332 179.371 53.6397C180.062 54.9227 180.408 56.4771 180.408 58.3028C180.408 58.5002 180.395 58.7099 180.371 58.932C180.371 59.1541 180.358 59.3144 180.334 59.4131H165.382V56.6744H176.929L175.708 58.3769C175.782 58.2288 175.856 58.0314 175.93 57.7847C176.028 57.5133 176.078 57.2913 176.078 57.1185C176.078 56.2057 175.893 55.4161 175.523 54.75C175.177 54.0838 174.684 53.5657 174.042 53.1956C173.425 52.8255 172.697 52.6404 171.859 52.6404C170.847 52.6404 169.983 52.8625 169.268 53.3066C168.552 53.7507 168.01 54.3922 167.64 55.2311C167.269 56.07 167.072 57.1062 167.047 58.3398C167.047 59.5735 167.232 60.6221 167.603 61.4856C167.973 62.3245 168.515 62.966 169.231 63.4101C169.971 63.8542 170.859 64.0763 171.896 64.0763C172.981 64.0763 173.931 63.8542 174.745 63.4101C175.56 62.966 176.238 62.2875 176.781 61.3746L180.223 62.781C179.334 64.3107 178.187 65.458 176.781 66.2228C175.374 66.9877 173.684 67.3701 171.711 67.3701ZM195.178 56.6374C195.178 55.3791 194.918 54.4292 194.4 53.7877C193.882 53.1462 193.08 52.8255 191.995 52.8255C191.255 52.8255 190.601 52.9859 190.033 53.3066C189.466 53.6027 189.022 54.0468 188.701 54.6389C188.38 55.2064 188.22 55.8726 188.22 56.6374V67H184.223V49.9758H188.22V52.6034C188.763 51.5918 189.453 50.8393 190.292 50.3459C191.156 49.8524 192.18 49.6057 193.364 49.6057C195.289 49.6057 196.757 50.1978 197.768 51.3821C198.78 52.5417 199.286 54.1455 199.286 56.1933V67H195.178V56.6374ZM218.15 58.4879C218.15 59.5735 218.385 60.5234 218.853 61.3376C219.322 62.1271 219.951 62.7563 220.741 63.2251C221.555 63.6938 222.456 63.9282 223.442 63.9282C224.257 63.9282 225.034 63.8049 225.774 63.5581C226.514 63.3114 227.168 62.966 227.736 62.5219C228.303 62.0778 228.722 61.5843 228.994 61.0415V65.4456C228.402 66.0378 227.6 66.5065 226.588 66.852C225.577 67.1974 224.466 67.3701 223.257 67.3701C221.506 67.3701 219.927 67 218.52 66.2598C217.139 65.495 216.041 64.4464 215.226 63.114C214.437 61.757 214.042 60.215 214.042 58.4879C214.042 56.7361 214.437 55.1941 215.226 53.8617C216.041 52.5294 217.139 51.4931 218.52 50.753C219.927 49.9881 221.506 49.6057 223.257 49.6057C224.466 49.6057 225.577 49.7784 226.588 50.1238C227.6 50.4692 228.402 50.938 228.994 51.5302V55.9343C228.722 55.3668 228.291 54.8733 227.699 54.4539C227.131 54.0098 226.477 53.6644 225.737 53.4176C224.997 53.1709 224.232 53.0475 223.442 53.0475C222.456 53.0475 221.555 53.2819 220.741 53.7507C219.951 54.2195 219.322 54.861 218.853 55.6752C218.385 56.4894 218.15 57.427 218.15 58.4879ZM232.116 58.4879C232.116 56.7361 232.511 55.1941 233.301 53.8617C234.115 52.5294 235.213 51.4931 236.595 50.753C237.976 49.9881 239.543 49.6057 241.295 49.6057C243.047 49.6057 244.601 49.9881 245.958 50.753C247.34 51.4931 248.438 52.5294 249.252 53.8617C250.066 55.1941 250.473 56.7361 250.473 58.4879C250.473 60.215 250.066 61.757 249.252 63.114C248.438 64.4464 247.34 65.495 245.958 66.2598C244.601 67 243.047 67.3701 241.295 67.3701C239.543 67.3701 237.976 67 236.595 66.2598C235.213 65.495 234.115 64.4464 233.301 63.114C232.511 61.757 232.116 60.215 232.116 58.4879ZM236.225 58.4879C236.225 59.5488 236.447 60.4864 236.891 61.3006C237.335 62.0901 237.939 62.7193 238.704 63.1881C239.469 63.6322 240.333 63.8542 241.295 63.8542C242.232 63.8542 243.084 63.6322 243.848 63.1881C244.638 62.7193 245.255 62.0901 245.699 61.3006C246.143 60.4864 246.365 59.5488 246.365 58.4879C246.365 57.427 246.143 56.4894 245.699 55.6752C245.255 54.861 244.638 54.2318 243.848 53.7877C243.084 53.3436 242.232 53.1216 241.295 53.1216C240.333 53.1216 239.469 53.3436 238.704 53.7877C237.939 54.2318 237.335 54.861 236.891 55.6752C236.447 56.4894 236.225 57.427 236.225 58.4879ZM258.152 75.142H254.118V49.9758H258.152V75.142ZM272.252 58.4879C272.252 60.363 271.87 61.9791 271.105 63.3361C270.34 64.6684 269.328 65.6923 268.07 66.4079C266.812 67.0987 265.442 67.4441 263.962 67.4441C262.506 67.4441 261.236 67.0864 260.15 66.3708C259.089 65.6307 258.263 64.5944 257.67 63.2621C257.103 61.9051 256.819 60.3137 256.819 58.4879C256.819 56.6374 257.103 55.046 257.67 53.7137C258.263 52.3814 259.089 51.3574 260.15 50.6419C261.236 49.9018 262.506 49.5317 263.962 49.5317C265.442 49.5317 266.812 49.8894 268.07 50.6049C269.328 51.2958 270.34 52.3074 271.105 53.6397C271.87 54.972 272.252 56.5881 272.252 58.4879ZM268.107 58.4879C268.107 57.3529 267.873 56.3907 267.404 55.6012C266.935 54.787 266.306 54.1825 265.516 53.7877C264.752 53.3683 263.9 53.1586 262.963 53.1586C262.198 53.1586 261.445 53.3683 260.705 53.7877C259.965 54.1825 259.348 54.7746 258.855 55.5642C258.386 56.3537 258.152 57.3283 258.152 58.4879C258.152 59.6475 258.386 60.6221 258.855 61.4116C259.348 62.2011 259.965 62.8056 260.705 63.2251C261.445 63.6198 262.198 63.8172 262.963 63.8172C263.9 63.8172 264.752 63.6198 265.516 63.2251C266.306 62.8056 266.935 62.2011 267.404 61.4116C267.873 60.5974 268.107 59.6228 268.107 58.4879ZM275.911 43.2031C275.911 42.5123 276.158 41.9324 276.651 41.4637C277.169 40.9949 277.762 40.7605 278.428 40.7605C279.143 40.7605 279.735 40.9949 280.204 41.4637C280.698 41.9324 280.944 42.5123 280.944 43.2031C280.944 43.8693 280.698 44.4491 280.204 44.9425C279.735 45.4113 279.143 45.6457 278.428 45.6457C277.762 45.6457 277.169 45.4113 276.651 44.9425C276.158 44.4491 275.911 43.8693 275.911 43.2031ZM276.466 49.9758H280.389V67H276.466V49.9758ZM286.963 59.4131V56.6744H297.659C297.56 55.8602 297.338 55.1571 296.992 54.5649C296.672 53.9481 296.215 53.4793 295.623 53.1586C295.031 52.8131 294.303 52.6404 293.44 52.6404C292.551 52.6404 291.749 52.8378 291.034 53.2326C290.318 53.6027 289.751 54.1578 289.332 54.898C288.912 55.6135 288.702 56.4647 288.702 57.4516L288.628 58.4879C288.628 59.7462 288.826 60.7948 289.221 61.6337C289.64 62.4479 290.207 63.0647 290.923 63.4841C291.663 63.8789 292.514 64.0763 293.477 64.0763C294.266 64.0763 294.957 63.9652 295.549 63.7432C296.166 63.5211 296.709 63.2127 297.177 62.818C297.646 62.3985 298.041 61.9174 298.362 61.3746L301.804 62.781C301.236 63.6938 300.582 64.4957 299.842 65.1865C299.127 65.8774 298.238 66.4202 297.177 66.815C296.141 67.185 294.846 67.3701 293.292 67.3701C291.54 67.3701 290.01 66.9877 288.702 66.2228C287.395 65.458 286.383 64.4094 285.668 63.077C284.952 61.72 284.594 60.1903 284.594 58.4879C284.594 58.1671 284.607 57.8587 284.631 57.5627C284.656 57.2666 284.693 56.9705 284.742 56.6744C284.989 55.2681 285.483 54.0344 286.223 52.9735C286.988 51.9126 287.987 51.086 289.221 50.4939C290.454 49.9018 291.873 49.6057 293.477 49.6057C295.228 49.6057 296.733 49.9634 297.992 50.6789C299.275 51.3698 300.262 52.369 300.952 53.6767C301.643 54.9597 301.989 56.5017 301.989 58.3028C301.989 58.4509 301.989 58.6236 301.989 58.821C301.989 58.9937 301.964 59.1911 301.915 59.4131H286.963ZM299.583 41.5377L292.921 47.0891L290.664 45.7937L296.215 39.8723L299.583 41.5377ZM317.714 41.0936H322.71L321.785 59.1541H318.639L317.714 41.0936ZM317.603 65.1865C317.603 64.471 317.849 63.8789 318.343 63.4101C318.861 62.9413 319.49 62.7069 320.23 62.7069C320.97 62.7069 321.587 62.9413 322.081 63.4101C322.574 63.8789 322.821 64.471 322.821 65.1865C322.821 65.9021 322.574 66.5065 322.081 67C321.587 67.4688 320.97 67.7032 320.23 67.7032C319.49 67.7032 318.861 67.4688 318.343 67C317.849 66.5065 317.603 65.9021 317.603 65.1865Z" fill="black"/>
</svg>
