<svg width="183" height="140" viewBox="0 0 183 140" fill="none" xmlns="http://www.w3.org/2000/svg">
<path d="M148.688 137.128H118.664C116.305 137.128 114.375 135.2 114.375 132.843V118.559C114.375 116.202 116.305 114.273 118.664 114.273H148.688C155.014 114.273 160.125 109.167 160.125 102.846V34.282C160.125 27.9613 155.014 22.8547 148.688 22.8547H118.664C116.305 22.8547 114.375 20.9263 114.375 18.5694V4.28525C114.375 1.92836 116.305 0 118.664 0H148.688C167.631 0 183 15.3555 183 34.282V102.846C183 121.773 167.631 137.128 148.688 137.128ZM131.889 65.3501L71.8418 5.35656C66.4805 0 57.1875 3.74959 57.1875 11.4273V45.7093H8.57812C3.82441 45.7093 0 49.5303 0 54.2798V88.5618C0 93.3113 3.82441 97.1323 8.57812 97.1323H57.1875V131.414C57.1875 139.092 66.4805 142.842 71.8418 137.485L131.889 77.4916C135.213 74.1348 135.213 68.7068 131.889 65.3501Z" fill="white"/>
</svg>
