<svg width="137" height="42" viewBox="0 0 137 42" fill="none" xmlns="http://www.w3.org/2000/svg">
<g filter="url(#filter0_d_1042_40)">
<path d="M114 33.5C124.495 33.5 133 26.5383 133 17.9464C133 14.2375 131.412 10.8426 128.77 8.1731C129.697 4.40435 132.8 1.04688 132.837 1.00949C133 0.837502 133.045 0.58326 132.948 0.358929C132.852 0.134598 132.644 0 132.406 0C127.486 0 123.797 2.3779 121.971 3.84353C119.544 2.92377 116.85 2.39286 114 2.39286C103.505 2.39286 95 9.35458 95 17.9464C95 26.5383 103.505 33.5 114 33.5Z" fill="white"/>
<path d="M114 33.5L19.6099 33.5C10.9888 33.5 4 26.5112 4 17.8901C4 9.39037 10.8904 2.5 19.3901 2.5L114 2.5V33.5Z" fill="white"/>
<path d="M24.2382 17.0158L23.7329 21.5H22.4487L23.4593 13.7632L26.4803 18.7632L29.5119 13.7632L30.5224 21.5H29.2382L28.7224 17.0158L26.4803 20.8158L24.2382 17.0158ZM31.2676 19.0789C31.2676 18.5807 31.3799 18.1421 31.6045 17.7632C31.8361 17.3842 32.1483 17.0895 32.5413 16.8789C32.9343 16.6614 33.3799 16.5526 33.8782 16.5526C34.3764 16.5526 34.8185 16.6614 35.2045 16.8789C35.5975 17.0895 35.9097 17.3842 36.1413 17.7632C36.3729 18.1421 36.4887 18.5807 36.4887 19.0789C36.4887 19.5702 36.3729 20.0088 36.1413 20.3947C35.9097 20.7737 35.5975 21.0719 35.2045 21.2895C34.8185 21.5 34.3764 21.6053 33.8782 21.6053C33.3799 21.6053 32.9343 21.5 32.5413 21.2895C32.1483 21.0719 31.8361 20.7737 31.6045 20.3947C31.3799 20.0088 31.2676 19.5702 31.2676 19.0789ZM32.4361 19.0789C32.4361 19.3807 32.4992 19.6474 32.6255 19.8789C32.7518 20.1035 32.9238 20.2825 33.1413 20.4158C33.3589 20.5421 33.6045 20.6053 33.8782 20.6053C34.1448 20.6053 34.3869 20.5421 34.6045 20.4158C34.829 20.2825 35.0045 20.1035 35.1308 19.8789C35.2571 19.6474 35.3203 19.3807 35.3203 19.0789C35.3203 18.7772 35.2571 18.5105 35.1308 18.2789C35.0045 18.0474 34.829 17.8684 34.6045 17.7421C34.3869 17.6158 34.1448 17.5526 33.8782 17.5526C33.6045 17.5526 33.3589 17.6158 33.1413 17.7421C32.9238 17.8684 32.7518 18.0474 32.6255 18.2789C32.4992 18.5105 32.4361 18.7772 32.4361 19.0789ZM41.2095 13.2895H42.3569V21.5L41.2095 21.5V13.2895ZM37.199 19.0789C37.199 18.5456 37.3077 18.093 37.5253 17.7211C37.7428 17.3421 38.0306 17.0544 38.3884 16.8579C38.7534 16.6544 39.1428 16.5526 39.5569 16.5526C39.9639 16.5526 40.3183 16.6544 40.62 16.8579C40.9288 17.0614 41.1709 17.3526 41.3463 17.7316C41.5288 18.1035 41.62 18.5526 41.62 19.0789C41.62 19.5982 41.5288 20.0474 41.3463 20.4263C41.1709 20.8053 40.9288 21.0965 40.62 21.3C40.3183 21.5035 39.9639 21.6053 39.5569 21.6053C39.1428 21.6053 38.7534 21.507 38.3884 21.3105C38.0306 21.107 37.7428 20.8158 37.5253 20.4368C37.3077 20.0579 37.199 19.6053 37.199 19.0789ZM38.3779 19.0789C38.3779 19.4018 38.4446 19.6789 38.5779 19.9105C38.7113 20.1421 38.8867 20.3175 39.1042 20.4368C39.3288 20.5561 39.5709 20.6158 39.8306 20.6158C40.0481 20.6158 40.2621 20.5561 40.4727 20.4368C40.6902 20.3175 40.8656 20.1456 40.999 19.9211C41.1393 19.6895 41.2095 19.4088 41.2095 19.0789C41.2095 18.7491 41.1393 18.4719 40.999 18.2474C40.8656 18.0158 40.6902 17.8404 40.4727 17.7211C40.2621 17.6018 40.0481 17.5421 39.8306 17.5421C39.5709 17.5421 39.3288 17.6018 39.1042 17.7211C38.8867 17.8404 38.7113 18.0158 38.5779 18.2474C38.4446 18.4789 38.3779 18.7561 38.3779 19.0789ZM43.7239 14.7316C43.7239 14.5351 43.7941 14.3702 43.9344 14.2368C44.0818 14.1035 44.2502 14.0368 44.4397 14.0368C44.6432 14.0368 44.8116 14.1035 44.9449 14.2368C45.0853 14.3702 45.1555 14.5351 45.1555 14.7316C45.1555 14.9211 45.0853 15.086 44.9449 15.2263C44.8116 15.3596 44.6432 15.4263 44.4397 15.4263C44.2502 15.4263 44.0818 15.3596 43.9344 15.2263C43.7941 15.086 43.7239 14.9211 43.7239 14.7316ZM43.8818 16.6579H44.9976V21.5H43.8818V16.6579ZM46.162 16.6579H48.941V17.6579H46.162V16.6579ZM48.8147 14.5105C48.7445 14.3982 48.6638 14.3246 48.5726 14.2895C48.4884 14.2544 48.4006 14.2368 48.3094 14.2368C48.2042 14.2368 48.1129 14.2649 48.0357 14.3211C47.9656 14.3772 47.9094 14.4684 47.8673 14.5947C47.8252 14.7211 47.8042 14.886 47.8042 15.0895V21.5H46.6884V14.8684C46.6884 14.4895 46.748 14.1772 46.8673 13.9316C46.9936 13.6789 47.1726 13.4895 47.4042 13.3632C47.6357 13.2298 47.9199 13.1632 48.2568 13.1632C48.4463 13.1632 48.6112 13.1877 48.7515 13.2368C48.8919 13.286 49.0112 13.3456 49.1094 13.4158C49.2147 13.486 49.2954 13.5561 49.3515 13.6263L48.8147 14.5105ZM49.7683 14.7316C49.7683 14.5351 49.8385 14.3702 49.9788 14.2368C50.1262 14.1035 50.2946 14.0368 50.4841 14.0368C50.6876 14.0368 50.856 14.1035 50.9894 14.2368C51.1297 14.3702 51.1999 14.5351 51.1999 14.7316C51.1999 14.9211 51.1297 15.086 50.9894 15.2263C50.856 15.3596 50.6876 15.4263 50.4841 15.4263C50.2946 15.4263 50.1262 15.3596 49.9788 15.2263C49.8385 15.086 49.7683 14.9211 49.7683 14.7316ZM49.9262 16.6579H51.042V21.5H49.9262V16.6579ZM54.7117 21.6053C54.2205 21.6053 53.7854 21.5 53.4065 21.2895C53.0345 21.0789 52.7468 20.7842 52.5433 20.4053C52.3398 20.0263 52.238 19.5842 52.238 19.0789C52.238 18.5667 52.3398 18.1211 52.5433 17.7421C52.7538 17.3632 53.0486 17.0719 53.4275 16.8684C53.8065 16.6579 54.2521 16.5526 54.7644 16.5526C55.2766 16.5526 55.7117 16.6509 56.0696 16.8474C56.4275 17.0439 56.7012 17.3281 56.8907 17.7C57.0872 18.0649 57.1854 18.507 57.1854 19.0263C57.1854 19.0825 57.1819 19.1421 57.1749 19.2053C57.1749 19.2684 57.1714 19.314 57.1644 19.3421H52.9117V18.5632H56.1959L55.8486 19.0474C55.8696 19.0053 55.8907 18.9491 55.9117 18.8789C55.9398 18.8018 55.9538 18.7386 55.9538 18.6895C55.9538 18.4298 55.9012 18.2053 55.7959 18.0158C55.6977 17.8263 55.5573 17.6789 55.3749 17.5737C55.1994 17.4684 54.9924 17.4158 54.7538 17.4158C54.4661 17.4158 54.2205 17.4789 54.017 17.6053C53.8135 17.7316 53.6591 17.914 53.5538 18.1526C53.4486 18.3912 53.3924 18.686 53.3854 19.0368C53.3854 19.3877 53.438 19.686 53.5433 19.9316C53.6486 20.1702 53.8029 20.3526 54.0065 20.4789C54.217 20.6053 54.4696 20.6684 54.7644 20.6684C55.0731 20.6684 55.3433 20.6053 55.5749 20.4789C55.8065 20.3526 55.9994 20.1596 56.1538 19.9L57.1328 20.3C56.8801 20.7351 56.5538 21.0614 56.1538 21.2789C55.7538 21.4965 55.2731 21.6053 54.7117 21.6053ZM59.3968 16.6579V21.5L58.2705 21.5V16.6579L59.3968 16.6579ZM60.8389 17.8684C60.7337 17.7842 60.6354 17.7211 60.5442 17.6789C60.453 17.6368 60.3372 17.6158 60.1968 17.6158C60.0074 17.6158 59.853 17.6649 59.7337 17.7632C59.6144 17.8614 59.5267 17.9982 59.4705 18.1737C59.4214 18.3421 59.3968 18.5421 59.3968 18.7737L59.0179 18.5526C59.0179 18.1667 59.0881 17.8263 59.2284 17.5316C59.3758 17.2298 59.5617 16.9912 59.7863 16.8158C60.0179 16.6404 60.2565 16.5526 60.5021 16.5526C60.6775 16.5526 60.8424 16.5807 60.9968 16.6368C61.1512 16.686 61.281 16.7772 61.3863 16.9105L60.8389 17.8684ZM65.3223 13.2895H66.4592V21.5H65.3223V13.2895ZM70.018 21.6053C69.5268 21.6053 69.0917 21.5 68.7128 21.2895C68.3409 21.0789 68.0531 20.7842 67.8496 20.4053C67.6461 20.0263 67.5444 19.5842 67.5444 19.0789C67.5444 18.5667 67.6461 18.1211 67.8496 17.7421C68.0602 17.3632 68.3549 17.0719 68.7338 16.8684C69.1128 16.6579 69.5584 16.5526 70.0707 16.5526C70.583 16.5526 71.018 16.6509 71.3759 16.8474C71.7338 17.0439 72.0075 17.3281 72.197 17.7C72.3935 18.0649 72.4917 18.507 72.4917 19.0263C72.4917 19.0825 72.4882 19.1421 72.4812 19.2053C72.4812 19.2684 72.4777 19.314 72.4707 19.3421H68.218V18.5632H71.5023L71.1549 19.0474C71.1759 19.0053 71.197 18.9491 71.218 18.8789C71.2461 18.8018 71.2602 18.7386 71.2602 18.6895C71.2602 18.4298 71.2075 18.2053 71.1023 18.0158C71.004 17.8263 70.8637 17.6789 70.6812 17.5737C70.5058 17.4684 70.2988 17.4158 70.0602 17.4158C69.7724 17.4158 69.5268 17.4789 69.3233 17.6053C69.1198 17.7316 68.9654 17.914 68.8602 18.1526C68.7549 18.3912 68.6988 18.686 68.6917 19.0368C68.6917 19.3877 68.7444 19.686 68.8496 19.9316C68.9549 20.1702 69.1093 20.3526 69.3128 20.4789C69.5233 20.6053 69.7759 20.6684 70.0707 20.6684C70.3795 20.6684 70.6496 20.6053 70.8812 20.4789C71.1128 20.3526 71.3058 20.1596 71.4602 19.9L72.4391 20.3C72.1865 20.7351 71.8602 21.0614 71.4602 21.2789C71.0602 21.4965 70.5795 21.6053 70.018 21.6053ZM77.4906 19.0789C77.4906 19.3877 77.5573 19.6579 77.6906 19.8895C77.8239 20.114 78.0029 20.293 78.2274 20.4263C78.459 20.5596 78.7151 20.6263 78.9958 20.6263C79.2274 20.6263 79.4485 20.5912 79.659 20.5211C79.8695 20.4509 80.0555 20.3526 80.2169 20.2263C80.3783 20.1 80.4976 19.9596 80.5748 19.8053V21.0579C80.4064 21.2263 80.1783 21.3596 79.8906 21.4579C79.6029 21.5561 79.2871 21.6053 78.9432 21.6053C78.445 21.6053 77.9958 21.5 77.5958 21.2895C77.2029 21.0719 76.8906 20.7737 76.659 20.3947C76.4344 20.0088 76.3222 19.5702 76.3222 19.0789C76.3222 18.5807 76.4344 18.1421 76.659 17.7632C76.8906 17.3842 77.2029 17.0895 77.5958 16.8789C77.9958 16.6614 78.445 16.5526 78.9432 16.5526C79.2871 16.5526 79.6029 16.6018 79.8906 16.7C80.1783 16.7982 80.4064 16.9316 80.5748 17.1V18.3526C80.4976 18.1912 80.3748 18.0509 80.2064 17.9316C80.045 17.8053 79.859 17.707 79.6485 17.6368C79.438 17.5667 79.2204 17.5316 78.9958 17.5316C78.7151 17.5316 78.459 17.5982 78.2274 17.7316C78.0029 17.8649 77.8239 18.0474 77.6906 18.2789C77.5573 18.5105 77.4906 18.7772 77.4906 19.0789ZM82.9577 16.6579V21.5H81.8314V16.6579H82.9577ZM84.3998 17.8684C84.2945 17.7842 84.1963 17.7211 84.1051 17.6789C84.0138 17.6368 83.898 17.6158 83.7577 17.6158C83.5682 17.6158 83.4138 17.6649 83.2945 17.7632C83.1752 17.8614 83.0875 17.9982 83.0314 18.1737C82.9822 18.3421 82.9577 18.5421 82.9577 18.7737L82.5787 18.5526C82.5787 18.1667 82.6489 17.8263 82.7893 17.5316C82.9366 17.2298 83.1226 16.9912 83.3472 16.8158C83.5787 16.6404 83.8173 16.5526 84.063 16.5526C84.2384 16.5526 84.4033 16.5807 84.5577 16.6368C84.7121 16.686 84.8419 16.7772 84.9472 16.9105L84.3998 17.8684ZM85.8784 19.3421V18.5632H88.9205C88.8924 18.3316 88.8293 18.1316 88.731 17.9632C88.6398 17.7877 88.51 17.6544 88.3416 17.5632C88.1731 17.4649 87.9661 17.4158 87.7205 17.4158C87.4679 17.4158 87.2398 17.4719 87.0363 17.5842C86.8328 17.6895 86.6714 17.8474 86.5521 18.0579C86.4328 18.2614 86.3731 18.5035 86.3731 18.7842L86.3521 19.0789C86.3521 19.4368 86.4082 19.7351 86.5205 19.9737C86.6398 20.2053 86.8012 20.3807 87.0047 20.5C87.2153 20.6123 87.4574 20.6684 87.731 20.6684C87.9556 20.6684 88.1521 20.6368 88.3205 20.5737C88.496 20.5105 88.6503 20.4228 88.7837 20.3105C88.917 20.1912 89.0293 20.0544 89.1205 19.9L90.0995 20.3C89.9381 20.5596 89.7521 20.7877 89.5416 20.9842C89.3381 21.1807 89.0854 21.3351 88.7837 21.4474C88.4889 21.5526 88.1205 21.6053 87.6784 21.6053C87.1802 21.6053 86.7451 21.4965 86.3731 21.2789C86.0012 21.0614 85.7135 20.7632 85.51 20.3842C85.3065 19.9982 85.2047 19.5632 85.2047 19.0789C85.2047 18.9877 85.2082 18.9 85.2153 18.8158C85.2223 18.7316 85.2328 18.6474 85.2468 18.5632C85.317 18.1632 85.4574 17.8123 85.6679 17.5105C85.8854 17.2088 86.1696 16.9737 86.5205 16.8053C86.8714 16.6368 87.2749 16.5526 87.731 16.5526C88.2293 16.5526 88.6574 16.6544 89.0153 16.8579C89.3802 17.0544 89.6609 17.3386 89.8574 17.7105C90.0538 18.0754 90.1521 18.514 90.1521 19.0263C90.1521 19.0684 90.1521 19.1175 90.1521 19.1737C90.1521 19.2228 90.1451 19.2789 90.131 19.3421H85.8784ZM89.4679 14.2579L87.5731 15.8368L86.931 15.4684L88.51 13.7842L89.4679 14.2579ZM94.353 18.5526C94.353 18.1947 94.2793 17.9246 94.1319 17.7421C93.9846 17.5596 93.7565 17.4684 93.4477 17.4684C93.2372 17.4684 93.0512 17.514 92.8898 17.6053C92.7284 17.6895 92.6021 17.8158 92.5109 17.9842C92.4197 18.1456 92.3741 18.3351 92.3741 18.5526V21.5H91.2372V16.6579H92.3741V17.4053C92.5284 17.1175 92.7249 16.9035 92.9635 16.7632C93.2091 16.6228 93.5004 16.5526 93.8372 16.5526C94.3846 16.5526 94.8021 16.7211 95.0898 17.0579C95.3776 17.3877 95.5214 17.8439 95.5214 18.4263V21.5H94.353V18.5526ZM99.0785 21.6053C98.5873 21.6053 98.1522 21.5 97.7732 21.2895C97.4013 21.0789 97.1136 20.7842 96.9101 20.4053C96.7066 20.0263 96.6048 19.5842 96.6048 19.0789C96.6048 18.5667 96.7066 18.1211 96.9101 17.7421C97.1206 17.3632 97.4153 17.0719 97.7943 16.8684C98.1732 16.6579 98.6188 16.5526 99.1311 16.5526C99.6434 16.5526 100.078 16.6509 100.436 16.8474C100.794 17.0439 101.068 17.3281 101.257 17.7C101.454 18.0649 101.552 18.507 101.552 19.0263C101.552 19.0825 101.549 19.1421 101.542 19.2053C101.542 19.2684 101.538 19.314 101.531 19.3421H97.2785V18.5632H100.563L100.215 19.0474C100.236 19.0053 100.257 18.9491 100.278 18.8789C100.307 18.8018 100.321 18.7386 100.321 18.6895C100.321 18.4298 100.268 18.2053 100.163 18.0158C100.064 17.8263 99.9241 17.6789 99.7417 17.5737C99.5662 17.4684 99.3592 17.4158 99.1206 17.4158C98.8329 17.4158 98.5873 17.4789 98.3838 17.6053C98.1803 17.7316 98.0259 17.914 97.9206 18.1526C97.8153 18.3912 97.7592 18.686 97.7522 19.0368C97.7522 19.3877 97.8048 19.686 97.9101 19.9316C98.0153 20.1702 98.1697 20.3526 98.3732 20.4789C98.5838 20.6053 98.8364 20.6684 99.1311 20.6684C99.4399 20.6684 99.7101 20.6053 99.9417 20.4789C100.173 20.3526 100.366 20.1596 100.521 19.9L101.5 20.3C101.247 20.7351 100.921 21.0614 100.521 21.2789C100.121 21.4965 99.6399 21.6053 99.0785 21.6053ZM103.353 19.9947C103.353 20.1561 103.392 20.2965 103.469 20.4158C103.546 20.5281 103.651 20.6123 103.785 20.6684C103.925 20.7246 104.083 20.7526 104.258 20.7526C104.483 20.7526 104.686 20.707 104.869 20.6158C105.058 20.5246 105.209 20.3912 105.322 20.2158C105.441 20.0333 105.5 19.8228 105.5 19.5842L105.669 20.2158C105.669 20.5246 105.578 20.7842 105.395 20.9947C105.22 21.1982 104.995 21.3526 104.722 21.4579C104.455 21.5561 104.181 21.6053 103.9 21.6053C103.599 21.6053 103.318 21.5456 103.058 21.4263C102.799 21.307 102.592 21.1316 102.437 20.9C102.283 20.6684 102.206 20.3877 102.206 20.0579C102.206 19.5877 102.371 19.2158 102.7 18.9421C103.03 18.6614 103.497 18.5211 104.1 18.5211C104.423 18.5211 104.7 18.5561 104.932 18.6263C105.171 18.6965 105.367 18.7807 105.522 18.8789C105.676 18.9702 105.785 19.0544 105.848 19.1316V19.7105C105.63 19.5561 105.399 19.4439 105.153 19.3737C104.907 19.3035 104.648 19.2684 104.374 19.2684C104.136 19.2684 103.943 19.3 103.795 19.3632C103.648 19.4193 103.536 19.5 103.458 19.6053C103.388 19.7105 103.353 19.8404 103.353 19.9947ZM102.995 17.9211L102.532 17.1211C102.75 16.9877 103.03 16.8579 103.374 16.7316C103.725 16.6053 104.125 16.5421 104.574 16.5421C104.974 16.5421 105.325 16.6018 105.627 16.7211C105.936 16.8404 106.178 17.0123 106.353 17.2368C106.529 17.4544 106.616 17.7246 106.616 18.0474V21.5H105.5V18.2684C105.5 18.114 105.472 17.9877 105.416 17.8895C105.367 17.7912 105.297 17.7105 105.206 17.6474C105.114 17.5842 105.006 17.5386 104.879 17.5105C104.753 17.4825 104.616 17.4684 104.469 17.4684C104.244 17.4684 104.03 17.4965 103.827 17.5526C103.63 17.6018 103.458 17.6649 103.311 17.7421C103.171 17.8123 103.065 17.8719 102.995 17.9211ZM109.11 19.6053C109.11 19.9491 109.184 20.2158 109.331 20.4053C109.478 20.5947 109.703 20.6895 110.005 20.6895C110.222 20.6895 110.412 20.6474 110.573 20.5632C110.735 20.4719 110.861 20.3456 110.952 20.1842C111.043 20.0158 111.089 19.8228 111.089 19.6053V16.6579H112.226V21.5H111.089V20.7526C110.935 21.0333 110.735 21.2474 110.489 21.3947C110.25 21.5351 109.963 21.6053 109.626 21.6053C109.085 21.6053 108.668 21.4368 108.373 21.1C108.085 20.7632 107.942 20.307 107.942 19.7316V16.6579H109.11V19.6053Z" fill="black"/>
</g>
<defs>
<filter id="filter0_d_1042_40" x="0" y="0" width="137" height="41.5" filterUnits="userSpaceOnUse" color-interpolation-filters="sRGB">
<feFlood flood-opacity="0" result="BackgroundImageFix"/>
<feColorMatrix in="SourceAlpha" type="matrix" values="0 0 0 0 0 0 0 0 0 0 0 0 0 0 0 0 0 0 127 0" result="hardAlpha"/>
<feOffset dy="4"/>
<feGaussianBlur stdDeviation="2"/>
<feComposite in2="hardAlpha" operator="out"/>
<feColorMatrix type="matrix" values="0 0 0 0 0 0 0 0 0 0 0 0 0 0 0 0 0 0 0.25 0"/>
<feBlend mode="normal" in2="BackgroundImageFix" result="effect1_dropShadow_1042_40"/>
<feBlend mode="normal" in="SourceGraphic" in2="effect1_dropShadow_1042_40" result="shape"/>
</filter>
</defs>
</svg>
