<svg width="24" height="28" viewBox="0 0 24 28" fill="none" xmlns="http://www.w3.org/2000/svg">
<g id="&#240;&#159;&#166;&#134; icon &#34;plus&#34;">
<path id="Vector" d="M22.2857 10.6478H14.5714V1.93596C14.5714 0.866947 13.8038 0 12.8571 0H11.1429C10.1962 0 9.42857 0.866947 9.42857 1.93596V10.6478H1.71429C0.767679 10.6478 0 11.5147 0 12.5837V14.5197C0 15.5887 0.767679 16.4557 1.71429 16.4557H9.42857V25.1675C9.42857 26.2365 10.1962 27.1034 11.1429 27.1034H12.8571C13.8038 27.1034 14.5714 26.2365 14.5714 25.1675V16.4557H22.2857C23.2323 16.4557 24 15.5887 24 14.5197V12.5837C24 11.5147 23.2323 10.6478 22.2857 10.6478Z" fill="black" fill-opacity="0.5"/>
</g>
</svg>
