<svg width="924" height="287" viewBox="0 0 924 287" fill="none" xmlns="http://www.w3.org/2000/svg">
<g filter="url(#filter0_d_331_5148)">
<path d="M158.889 0.722412C86.5932 0.722412 28 48.6809 28 107.869C28 133.42 38.9415 156.806 57.1432 175.197C50.7522 201.159 29.3805 224.288 29.1248 224.546C28 225.731 27.6932 227.482 28.3579 229.028C29.0226 230.573 30.4542 231.5 32.0903 231.5C65.9885 231.5 91.3993 215.119 103.977 205.023C120.696 211.359 139.256 215.016 158.889 215.016C231.185 215.016 289.778 167.058 289.778 107.869C289.778 48.6809 231.185 0.722412 158.889 0.722412Z" fill="white"/>
<path d="M158.889 0.722412H788.465C847.855 0.722412 896 48.8675 896 108.257V108.257C896 166.811 848.533 214.278 789.979 214.278H158.889V0.722412Z" fill="white"/>
<path d="M222.111 89.2957H230.667V140.056H222.111V89.2957ZM227.187 96.8372V89.2957H237.411C241.134 89.2957 244.348 89.9483 247.056 91.2536C249.763 92.5105 251.866 94.3234 253.364 96.6922C254.911 99.0126 255.685 101.792 255.685 105.031C255.685 108.27 254.911 111.074 253.364 113.443C251.866 115.812 249.763 117.649 247.056 118.954C244.348 120.211 241.134 120.84 237.411 120.84H227.187V113.298H237.411C240.36 113.298 242.729 112.597 244.518 111.195C246.306 109.793 247.201 107.739 247.201 105.031C247.201 102.324 246.306 100.294 244.518 98.9401C242.729 97.5382 240.36 96.8372 237.411 96.8372H227.187ZM258.647 123.378C258.647 119.945 259.421 116.924 260.968 114.313C262.563 111.703 264.714 109.672 267.421 108.222C270.177 106.723 273.247 105.974 276.631 105.974C280.063 105.974 283.133 106.723 285.84 108.222C288.547 109.672 290.674 111.703 292.221 114.313C293.817 116.924 294.614 119.945 294.614 123.378C294.614 126.762 293.817 129.783 292.221 132.442C290.674 135.052 288.547 137.107 285.84 138.606C283.133 140.056 280.063 140.781 276.631 140.781C273.247 140.781 270.177 140.056 267.421 138.606C264.714 137.107 262.563 135.052 260.968 132.442C259.421 129.783 258.647 126.762 258.647 123.378ZM266.696 123.378C266.696 125.456 267.131 127.293 268.002 128.889C268.872 130.436 270.056 131.668 271.555 132.587C273.053 133.457 274.745 133.892 276.631 133.892C278.516 133.892 280.208 133.457 281.707 132.587C283.205 131.668 284.39 130.436 285.26 128.889C286.13 127.293 286.565 125.456 286.565 123.378C286.565 121.299 286.13 119.462 285.26 117.866C284.39 116.271 283.205 115.038 281.707 114.168C280.208 113.298 278.516 112.863 276.631 112.863C274.745 112.863 273.053 113.298 271.555 114.168C270.056 115.038 268.872 116.271 268.002 117.866C267.131 119.462 266.696 121.299 266.696 123.378ZM303.639 129.034C304.751 130.242 305.839 131.257 306.902 132.079C307.966 132.901 309.054 133.53 310.165 133.965C311.277 134.4 312.389 134.617 313.501 134.617C314.903 134.617 315.991 134.303 316.764 133.675C317.586 133.046 317.997 132.176 317.997 131.064C317.997 130.097 317.683 129.275 317.054 128.599C316.426 127.873 315.556 127.269 314.444 126.786C313.332 126.254 312.027 125.722 310.528 125.19C309.029 124.61 307.531 123.933 306.032 123.16C304.582 122.338 303.373 121.275 302.406 119.969C301.488 118.664 301.029 117.02 301.029 115.038C301.029 113.008 301.536 111.316 302.551 109.962C303.615 108.609 305.017 107.618 306.757 106.989C308.546 106.312 310.455 105.974 312.486 105.974C314.323 105.974 316.039 106.24 317.634 106.772C319.278 107.303 320.753 108.004 322.058 108.875C323.363 109.745 324.475 110.736 325.393 111.848L321.043 116.489C319.979 115.183 318.674 114.12 317.127 113.298C315.58 112.476 313.984 112.065 312.341 112.065C311.181 112.065 310.238 112.307 309.513 112.79C308.788 113.274 308.425 113.975 308.425 114.893C308.425 115.667 308.739 116.368 309.368 116.996C310.045 117.576 310.915 118.108 311.978 118.592C313.09 119.075 314.323 119.583 315.677 120.114C317.562 120.84 319.278 121.637 320.825 122.507C322.372 123.378 323.605 124.441 324.523 125.698C325.442 126.955 325.901 128.599 325.901 130.629C325.901 133.771 324.813 136.309 322.638 138.243C320.511 140.128 317.634 141.071 314.009 141.071C311.688 141.071 309.585 140.733 307.7 140.056C305.815 139.331 304.147 138.412 302.696 137.3C301.246 136.14 300.038 134.932 299.071 133.675L303.639 129.034ZM328.209 106.699H347.135V113.588H328.209V106.699ZM333.865 95.0968H341.552V140.056H333.865V95.0968ZM367.04 140.781C363.655 140.781 360.658 140.056 358.048 138.606C355.486 137.155 353.503 135.125 352.102 132.514C350.7 129.904 349.999 126.858 349.999 123.378C349.999 119.849 350.7 116.779 352.102 114.168C353.552 111.558 355.582 109.551 358.193 108.149C360.803 106.699 363.873 105.974 367.402 105.974C370.931 105.974 373.928 106.651 376.394 108.004C378.908 109.358 380.817 111.316 382.123 113.878C383.428 116.392 384.08 119.438 384.08 123.015C384.08 123.402 384.056 123.813 384.008 124.248C384.008 124.683 384.008 124.997 384.008 125.19H354.712V119.752H377.264L374.871 123.087C375.016 122.797 375.161 122.411 375.306 121.927C375.5 121.444 375.596 121.033 375.596 120.695C375.596 118.906 375.234 117.359 374.509 116.054C373.832 114.748 372.865 113.733 371.608 113.008C370.399 112.283 368.973 111.92 367.33 111.92C365.348 111.92 363.655 112.355 362.254 113.225C360.9 114.096 359.836 115.353 359.063 116.996C358.338 118.64 357.975 120.67 357.975 123.087C357.927 125.456 358.265 127.487 358.99 129.179C359.764 130.871 360.852 132.152 362.254 133.022C363.655 133.892 365.372 134.327 367.402 134.327C369.578 134.327 371.463 133.892 373.058 133.022C374.654 132.152 375.959 130.822 376.974 129.034L383.79 131.717C382.002 134.714 379.73 136.986 376.974 138.533C374.218 140.032 370.907 140.781 367.04 140.781ZM399.386 106.699V140.056H391.626V106.699H399.386ZM409.32 115.038C408.643 114.458 407.966 114.023 407.29 113.733C406.661 113.443 405.864 113.298 404.897 113.298C403.591 113.298 402.528 113.636 401.706 114.313C400.884 114.99 400.28 115.933 399.893 117.141C399.555 118.302 399.386 119.679 399.386 121.275L396.775 119.752C396.775 117.093 397.258 114.748 398.225 112.718C399.241 110.639 400.522 108.995 402.069 107.787C403.664 106.53 405.308 105.902 407 105.902C408.208 105.902 409.344 106.095 410.408 106.482C411.471 106.868 412.39 107.521 413.163 108.44L409.32 115.038ZM440.276 83.4945H448.181V140.056H440.276V83.4945ZM472.625 140.781C469.241 140.781 466.243 140.056 463.633 138.606C461.071 137.155 459.089 135.125 457.687 132.514C456.285 129.904 455.584 126.858 455.584 123.378C455.584 119.849 456.285 116.779 457.687 114.168C459.137 111.558 461.167 109.551 463.778 108.149C466.389 106.699 469.458 105.974 472.987 105.974C476.516 105.974 479.514 106.651 481.979 108.004C484.493 109.358 486.403 111.316 487.708 113.878C489.013 116.392 489.666 119.438 489.666 123.015C489.666 123.402 489.642 123.813 489.593 124.248C489.593 124.683 489.593 124.997 489.593 125.19H460.297V119.752H482.849L480.456 123.087C480.601 122.797 480.746 122.411 480.891 121.927C481.085 121.444 481.182 121.033 481.182 120.695C481.182 118.906 480.819 117.359 480.094 116.054C479.417 114.748 478.45 113.733 477.193 113.008C475.985 112.283 474.559 111.92 472.915 111.92C470.933 111.92 469.241 112.355 467.839 113.225C466.485 114.096 465.422 115.353 464.648 116.996C463.923 118.64 463.56 120.67 463.56 123.087C463.512 125.456 463.851 127.487 464.576 129.179C465.349 130.871 466.437 132.152 467.839 133.022C469.241 133.892 470.957 134.327 472.987 134.327C475.163 134.327 477.048 133.892 478.643 133.022C480.239 132.152 481.544 130.822 482.559 129.034L489.376 131.717C487.587 134.714 485.315 136.986 482.559 138.533C479.804 140.032 476.492 140.781 472.625 140.781ZM522.94 123.668C524.052 125.65 525.237 127.366 526.493 128.816C527.799 130.266 529.225 131.402 530.772 132.224C532.367 133.046 534.108 133.457 535.993 133.457C538.313 133.457 540.199 132.829 541.649 131.572C543.099 130.315 543.824 128.671 543.824 126.641C543.824 124.804 543.365 123.329 542.447 122.217C541.577 121.057 540.32 120.09 538.676 119.317C537.032 118.495 535.147 117.697 533.02 116.924C531.763 116.489 530.361 115.909 528.814 115.183C527.267 114.41 525.793 113.467 524.391 112.355C522.989 111.195 521.828 109.793 520.91 108.149C519.991 106.457 519.532 104.427 519.532 102.058C519.532 99.351 520.233 96.9822 521.635 94.9518C523.037 92.8731 524.922 91.2536 527.291 90.0933C529.708 88.9331 532.44 88.353 535.485 88.353C538.483 88.353 541.093 88.9089 543.317 90.0208C545.541 91.0844 547.426 92.438 548.973 94.0816C550.52 95.7253 551.704 97.4415 552.526 99.2302L545.637 103.146C544.961 101.889 544.139 100.729 543.172 99.6653C542.205 98.5534 541.069 97.6832 539.764 97.0547C538.507 96.3779 537.032 96.0395 535.34 96.0395C532.971 96.0395 531.231 96.5955 530.119 97.7074C529.007 98.7709 528.451 100.028 528.451 101.478C528.451 102.783 528.838 103.968 529.612 105.031C530.433 106.047 531.69 107.013 533.382 107.932C535.074 108.85 537.274 109.793 539.981 110.76C541.528 111.292 543.051 111.969 544.55 112.79C546.097 113.612 547.474 114.627 548.683 115.836C549.94 117.045 550.955 118.495 551.729 120.187C552.502 121.831 552.889 123.764 552.889 125.988C552.889 128.357 552.405 130.484 551.439 132.369C550.52 134.255 549.263 135.85 547.668 137.155C546.072 138.412 544.26 139.379 542.229 140.056C540.247 140.781 538.168 141.144 535.993 141.144C533.044 141.144 530.288 140.564 527.726 139.403C525.212 138.195 522.989 136.599 521.055 134.617C519.17 132.635 517.671 130.484 516.559 128.164L522.94 123.668ZM555.942 106.699H564.499L572.258 126.496L581.539 104.161L591.256 126.641L599.088 106.699H607.645L592.054 142.376L581.539 119.897L571.532 142.376L555.942 106.699ZM617.571 129.686C617.571 130.798 617.837 131.765 618.369 132.587C618.901 133.36 619.626 133.941 620.544 134.327C621.511 134.714 622.599 134.907 623.808 134.907C625.403 134.907 626.829 134.593 628.086 133.965C629.391 133.288 630.431 132.345 631.204 131.137C631.978 129.928 632.364 128.478 632.364 126.786L633.525 131.137C633.525 133.264 632.896 135.052 631.639 136.503C630.431 137.953 628.884 139.041 626.998 139.766C625.161 140.443 623.276 140.781 621.342 140.781C619.263 140.781 617.33 140.37 615.541 139.548C613.752 138.726 612.326 137.518 611.263 135.923C610.199 134.327 609.667 132.394 609.667 130.121C609.667 126.882 610.803 124.32 613.075 122.435C615.348 120.501 618.562 119.534 622.72 119.534C624.944 119.534 626.853 119.776 628.448 120.259C630.092 120.743 631.446 121.323 632.509 122C633.573 122.628 634.322 123.208 634.757 123.74V127.728C633.259 126.665 631.663 125.891 629.971 125.408C628.279 124.925 626.491 124.683 624.605 124.683C622.962 124.683 621.632 124.9 620.617 125.335C619.602 125.722 618.828 126.278 618.296 127.003C617.813 127.728 617.571 128.623 617.571 129.686ZM615.106 115.401L611.915 109.89C613.462 108.971 615.42 108.077 617.789 107.207C620.158 106.337 622.913 105.902 626.055 105.902C628.763 105.902 631.18 106.312 633.307 107.134C635.434 107.908 637.078 109.068 638.238 110.615C639.447 112.162 640.051 114.047 640.051 116.271V140.056H632.364V117.794C632.364 116.73 632.195 115.86 631.857 115.183C631.518 114.507 631.011 113.951 630.334 113.516C629.705 113.08 628.956 112.766 628.086 112.573C627.216 112.379 626.273 112.283 625.258 112.283C623.711 112.283 622.236 112.476 620.834 112.863C619.481 113.201 618.321 113.636 617.354 114.168C616.387 114.652 615.638 115.063 615.106 115.401ZM656.795 156.009H648.891V106.699H656.795V156.009ZM684.423 123.378C684.423 127.052 683.674 130.218 682.175 132.877C680.676 135.487 678.694 137.494 676.229 138.896C673.763 140.249 671.08 140.926 668.18 140.926C665.376 140.926 662.91 140.225 660.783 138.823C658.704 137.373 657.085 135.342 655.925 132.732C654.765 130.073 654.184 126.955 654.184 123.378C654.184 119.752 654.765 116.634 655.925 114.023C657.085 111.413 658.704 109.382 660.783 107.932C662.91 106.482 665.376 105.756 668.18 105.756C671.08 105.756 673.763 106.457 676.229 107.859C678.694 109.261 680.676 111.268 682.175 113.878C683.674 116.44 684.423 119.607 684.423 123.378ZM676.301 123.378C676.301 121.154 675.842 119.268 674.924 117.721C674.005 116.126 672.796 114.942 671.298 114.168C669.799 113.346 668.131 112.935 666.294 112.935C664.747 112.935 663.249 113.346 661.798 114.168C660.348 114.942 659.14 116.102 658.173 117.649C657.254 119.196 656.795 121.105 656.795 123.378C656.795 125.65 657.254 127.559 658.173 129.106C659.14 130.653 660.348 131.838 661.798 132.659C663.249 133.433 664.747 133.82 666.294 133.82C668.131 133.82 669.799 133.409 671.298 132.587C672.796 131.765 674.005 130.581 674.924 129.034C675.842 127.487 676.301 125.601 676.301 123.378Z" fill="black"/>
</g>
<defs>
<filter id="filter0_d_331_5148" x="0.444445" y="0.722412" width="923.111" height="285.889" filterUnits="userSpaceOnUse" color-interpolation-filters="sRGB">
<feFlood flood-opacity="0" result="BackgroundImageFix"/>
<feColorMatrix in="SourceAlpha" type="matrix" values="0 0 0 0 0 0 0 0 0 0 0 0 0 0 0 0 0 0 127 0" result="hardAlpha"/>
<feOffset dy="27.5556"/>
<feGaussianBlur stdDeviation="13.7778"/>
<feComposite in2="hardAlpha" operator="out"/>
<feColorMatrix type="matrix" values="0 0 0 0 0 0 0 0 0 0 0 0 0 0 0 0 0 0 0.25 0"/>
<feBlend mode="normal" in2="BackgroundImageFix" result="effect1_dropShadow_331_5148"/>
<feBlend mode="normal" in="SourceGraphic" in2="effect1_dropShadow_331_5148" result="shape"/>
</filter>
</defs>
</svg>
