<svg width="51" height="51" viewBox="0 0 51 51" fill="none" xmlns="http://www.w3.org/2000/svg">
<path d="M49.9362 43.7007L40.1992 33.9653C39.7597 33.5259 39.164 33.2818 38.5389 33.2818H36.947C39.6425 29.8348 41.2442 25.4993 41.2442 20.783C41.2442 9.56338 32.1517 0.472473 20.9302 0.472473C9.70867 0.472473 0.616211 9.56338 0.616211 20.783C0.616211 32.0026 9.70867 41.0935 20.9302 41.0935C25.6473 41.0935 29.9836 39.4921 33.4311 36.7971V38.3887C33.4311 39.0136 33.6753 39.6093 34.1148 40.0487L43.8518 49.7841C44.7698 50.7019 46.2543 50.7019 47.1626 49.7841L49.9265 47.0207C50.8445 46.1028 50.8445 44.6186 49.9362 43.7007ZM20.9302 33.2818C14.0254 33.2818 8.42928 27.6964 8.42928 20.783C8.42928 13.8794 14.0156 8.28421 20.9302 8.28421C27.835 8.28421 33.4311 13.8696 33.4311 20.783C33.4311 27.6866 27.8448 33.2818 20.9302 33.2818Z" fill="#505050"/>
</svg>
