<svg width="137" height="42" viewBox="0 0 137 42" fill="none" xmlns="http://www.w3.org/2000/svg">
<g filter="url(#filter0_d_544_34)">
<path d="M23.2098 0C12.5994 0 4 6.98608 4 15.608C4 19.3299 5.60582 22.7367 8.27719 25.4155C7.33921 29.1975 4.2026 32.5667 4.16508 32.6042C4 32.7768 3.95498 33.0319 4.05253 33.257C4.15008 33.4822 4.36018 33.6172 4.60031 33.6172C9.57536 33.6172 13.3048 31.231 15.1507 29.7603C17.6045 30.6832 20.3284 31.216 23.2098 31.216C33.8203 31.216 42.4197 24.2299 42.4197 15.608C42.4197 6.98608 33.8203 0 23.2098 0Z" fill="white"/>
<path d="M22 0H117.39C126.011 0 133 6.9888 133 15.6099V15.6099C133 24.1096 126.11 31 117.61 31H22V0Z" fill="white"/>
<path d="M20.5791 16.6211C20.7405 16.9088 20.9124 17.1579 21.0949 17.3684C21.2844 17.5789 21.4914 17.7439 21.716 17.8632C21.9475 17.9825 22.2002 18.0421 22.4738 18.0421C22.8107 18.0421 23.0844 17.9509 23.2949 17.7684C23.5054 17.586 23.6107 17.3474 23.6107 17.0526C23.6107 16.786 23.544 16.5719 23.4107 16.4105C23.2844 16.2421 23.1019 16.1018 22.8633 15.9895C22.6247 15.8702 22.351 15.7544 22.0423 15.6421C21.8598 15.5789 21.6563 15.4947 21.4317 15.3895C21.2072 15.2772 20.9931 15.1404 20.7896 14.9789C20.5861 14.8105 20.4177 14.607 20.2844 14.3684C20.151 14.1228 20.0844 13.8281 20.0844 13.4842C20.0844 13.0912 20.1861 12.7474 20.3896 12.4526C20.5931 12.1509 20.8668 11.9158 21.2107 11.7474C21.5616 11.5789 21.9581 11.4947 22.4002 11.4947C22.8353 11.4947 23.2142 11.5754 23.537 11.7368C23.8598 11.8912 24.1335 12.0877 24.3581 12.3263C24.5826 12.5649 24.7546 12.814 24.8738 13.0737L23.8738 13.6421C23.7756 13.4596 23.6563 13.2912 23.516 13.1368C23.3756 12.9754 23.2107 12.8491 23.0212 12.7579C22.8388 12.6596 22.6247 12.6105 22.3791 12.6105C22.0353 12.6105 21.7826 12.6912 21.6212 12.8526C21.4598 13.007 21.3791 13.1895 21.3791 13.4C21.3791 13.5895 21.4353 13.7614 21.5475 13.9158C21.6668 14.0632 21.8493 14.2035 22.0949 14.3368C22.3405 14.4702 22.6598 14.607 23.0528 14.7474C23.2774 14.8246 23.4984 14.9228 23.716 15.0421C23.9405 15.1614 24.1405 15.3088 24.316 15.4842C24.4984 15.6596 24.6458 15.8702 24.7581 16.1158C24.8703 16.3544 24.9265 16.6351 24.9265 16.9579C24.9265 17.3018 24.8563 17.6105 24.716 17.8842C24.5826 18.1579 24.4002 18.3895 24.1686 18.5789C23.937 18.7614 23.6738 18.9018 23.3791 19C23.0914 19.1053 22.7896 19.1579 22.4738 19.1579C22.0458 19.1579 21.6458 19.0737 21.2738 18.9053C20.9089 18.7298 20.5861 18.4982 20.3054 18.2105C20.0317 17.9228 19.8142 17.6105 19.6528 17.2737L20.5791 16.6211ZM27.2644 17.1053C27.2644 17.4491 27.3381 17.7158 27.4854 17.9053C27.6328 18.0947 27.8609 18.1895 28.1697 18.1895C28.3802 18.1895 28.5661 18.1439 28.7276 18.0526C28.889 17.9614 29.0153 17.8351 29.1065 17.6737C29.1977 17.5123 29.2433 17.3228 29.2433 17.1053V14.1579H30.3802V19H29.2433V18.2526C29.089 18.5333 28.889 18.7474 28.6433 18.8947C28.4047 19.0351 28.117 19.1053 27.7802 19.1053C27.2398 19.1053 26.8223 18.9368 26.5276 18.6C26.2398 18.2632 26.096 17.807 26.096 17.2316V14.1579H27.2644V17.1053ZM32.9373 21.3158H31.7899V14.1579H32.9373V21.3158ZM36.9478 16.5789C36.9478 17.1123 36.839 17.5719 36.6215 17.9579C36.4039 18.3368 36.1162 18.6281 35.7583 18.8316C35.4004 19.0281 35.0109 19.1263 34.5899 19.1263C34.1829 19.1263 33.825 19.0246 33.5162 18.8211C33.2144 18.6105 32.9794 18.3158 32.8109 17.9368C32.6425 17.5509 32.5583 17.0982 32.5583 16.5789C32.5583 16.0526 32.6425 15.6 32.8109 15.2211C32.9794 14.8421 33.2144 14.5474 33.5162 14.3368C33.825 14.1263 34.1829 14.0211 34.5899 14.0211C35.0109 14.0211 35.4004 14.1228 35.7583 14.3263C36.1162 14.5298 36.4039 14.8211 36.6215 15.2C36.839 15.5719 36.9478 16.0316 36.9478 16.5789ZM35.7688 16.5789C35.7688 16.2561 35.7022 15.9825 35.5688 15.7579C35.4355 15.5263 35.2601 15.3544 35.0425 15.2421C34.825 15.1228 34.5829 15.0632 34.3162 15.0632C34.0916 15.0632 33.8741 15.1228 33.6636 15.2421C33.453 15.3544 33.2776 15.5228 33.1373 15.7474C33.0039 15.9719 32.9373 16.2491 32.9373 16.5789C32.9373 16.9088 33.0039 17.186 33.1373 17.4105C33.2776 17.6351 33.453 17.807 33.6636 17.9263C33.8741 18.0386 34.0916 18.0947 34.3162 18.0947C34.5829 18.0947 34.825 18.0351 35.0425 17.9158C35.2601 17.7965 35.4355 17.6246 35.5688 17.4C35.7022 17.1754 35.7688 16.9018 35.7688 16.5789ZM39.1359 21.3158H37.9885V14.1579H39.1359V21.3158ZM43.1464 16.5789C43.1464 17.1123 43.0376 17.5719 42.8201 17.9579C42.6025 18.3368 42.3148 18.6281 41.9569 18.8316C41.599 19.0281 41.2095 19.1263 40.7885 19.1263C40.3815 19.1263 40.0236 19.0246 39.7148 18.8211C39.413 18.6105 39.178 18.3158 39.0095 17.9368C38.8411 17.5509 38.7569 17.0982 38.7569 16.5789C38.7569 16.0526 38.8411 15.6 39.0095 15.2211C39.178 14.8421 39.413 14.5474 39.7148 14.3368C40.0236 14.1263 40.3815 14.0211 40.7885 14.0211C41.2095 14.0211 41.599 14.1228 41.9569 14.3263C42.3148 14.5298 42.6025 14.8211 42.8201 15.2C43.0376 15.5719 43.1464 16.0316 43.1464 16.5789ZM41.9674 16.5789C41.9674 16.2561 41.9008 15.9825 41.7674 15.7579C41.6341 15.5263 41.4587 15.3544 41.2411 15.2421C41.0236 15.1228 40.7815 15.0632 40.5148 15.0632C40.2902 15.0632 40.0727 15.1228 39.8622 15.2421C39.6516 15.3544 39.4762 15.5228 39.3359 15.7474C39.2025 15.9719 39.1359 16.2491 39.1359 16.5789C39.1359 16.9088 39.2025 17.186 39.3359 17.4105C39.4762 17.6351 39.6516 17.807 39.8622 17.9263C40.0727 18.0386 40.2902 18.0947 40.5148 18.0947C40.7815 18.0947 41.0236 18.0351 41.2411 17.9158C41.4587 17.7965 41.6341 17.6246 41.7674 17.4C41.9008 17.1754 41.9674 16.9018 41.9674 16.5789ZM45.3555 14.1579V19H44.2292V14.1579H45.3555ZM46.7976 15.3684C46.6994 15.2842 46.6011 15.2211 46.5029 15.1789C46.4117 15.1368 46.2959 15.1158 46.1555 15.1158C45.966 15.1158 45.8117 15.1649 45.6924 15.2632C45.5731 15.3614 45.4853 15.4982 45.4292 15.6737C45.3801 15.8421 45.3555 16.0421 45.3555 16.2737L44.9766 16.0526C44.9766 15.6667 45.0467 15.3263 45.1871 15.0316C45.3345 14.7298 45.5204 14.4912 45.745 14.3158C45.9766 14.1333 46.2152 14.0421 46.4608 14.0421C46.6362 14.0421 46.8011 14.0702 46.9555 14.1263C47.1099 14.1825 47.2432 14.2772 47.3555 14.4105L46.7976 15.3684ZM48.0933 12.2316C48.0933 12.0351 48.1635 11.8702 48.3039 11.7368C48.4512 11.6035 48.6197 11.5368 48.8091 11.5368C49.0126 11.5368 49.1846 11.6035 49.3249 11.7368C49.4653 11.8702 49.5354 12.0351 49.5354 12.2316C49.5354 12.4211 49.4653 12.586 49.3249 12.7263C49.1846 12.8596 49.0126 12.9263 48.8091 12.9263C48.6197 12.9263 48.4512 12.8596 48.3039 12.7263C48.1635 12.586 48.0933 12.4211 48.0933 12.2316ZM48.2512 14.1579H49.3775V19H48.2512V14.1579ZM57.8786 15.9158V19H56.7313V16.0526C56.7313 15.6877 56.6646 15.4175 56.5313 15.2421C56.4049 15.0596 56.2049 14.9684 55.9313 14.9684C55.7348 14.9684 55.5628 15.0105 55.4155 15.0947C55.2751 15.1789 55.1628 15.3018 55.0786 15.4632C55.0014 15.6246 54.9628 15.8211 54.9628 16.0526V19H53.826V16.0526C53.826 15.6877 53.7593 15.4175 53.626 15.2421C53.4997 15.0596 53.2962 14.9684 53.0155 14.9684C52.826 14.9684 52.6576 15.0105 52.5102 15.0947C52.3698 15.1789 52.2576 15.3018 52.1734 15.4632C52.0962 15.6246 52.0576 15.8211 52.0576 16.0526V19H50.9418V14.1579H52.0576V14.8632C52.2049 14.5965 52.3909 14.3965 52.6155 14.2632C52.84 14.1228 53.1102 14.0526 53.426 14.0526C53.7769 14.0526 54.0681 14.1263 54.2997 14.2737C54.5383 14.4211 54.7102 14.6351 54.8155 14.9158C54.9909 14.6281 55.2049 14.414 55.4576 14.2737C55.7172 14.1263 56.0084 14.0526 56.3313 14.0526C56.6821 14.0526 56.9698 14.1263 57.1944 14.2737C57.419 14.414 57.5874 14.6246 57.6997 14.9053C57.819 15.186 57.8786 15.5228 57.8786 15.9158ZM61.4249 19.1053C60.9337 19.1053 60.4986 19 60.1197 18.7895C59.7477 18.5789 59.46 18.2842 59.2565 17.9053C59.053 17.5263 58.9512 17.0842 58.9512 16.5789C58.9512 16.0667 59.053 15.6211 59.2565 15.2421C59.467 14.8632 59.7618 14.5719 60.1407 14.3684C60.5197 14.1579 60.9653 14.0526 61.4775 14.0526C61.9898 14.0526 62.4249 14.1509 62.7828 14.3474C63.1477 14.5439 63.4249 14.8281 63.6144 15.2C63.8039 15.5649 63.8986 16.007 63.8986 16.5263C63.8986 16.5825 63.8951 16.6421 63.8881 16.7053C63.8881 16.7684 63.8881 16.814 63.8881 16.8421H59.6354V16.0526H62.9091L62.5618 16.5368C62.5828 16.4947 62.6039 16.4386 62.6249 16.3684C62.653 16.2982 62.667 16.2386 62.667 16.1895C62.667 15.9298 62.6144 15.7053 62.5091 15.5158C62.4109 15.3263 62.2705 15.1789 62.0881 15.0737C61.9126 14.9684 61.7056 14.9158 61.467 14.9158C61.1793 14.9158 60.9337 14.9789 60.7302 15.1053C60.5337 15.2316 60.3793 15.414 60.267 15.6526C60.1618 15.8912 60.1091 16.186 60.1091 16.5368C60.1021 16.8807 60.1512 17.1754 60.2565 17.4211C60.3688 17.6667 60.5267 17.8526 60.7302 17.9789C60.9337 18.1053 61.1828 18.1684 61.4775 18.1684C61.7933 18.1684 62.067 18.1053 62.2986 17.9789C62.5302 17.8526 62.7197 17.6596 62.867 17.4L63.8565 17.7895C63.5968 18.2246 63.267 18.5544 62.867 18.7789C62.467 18.9965 61.9863 19.1053 61.4249 19.1053ZM66.1203 14.1579V19H64.994V14.1579H66.1203ZM67.5624 15.3684C67.4642 15.2842 67.3659 15.2211 67.2677 15.1789C67.1765 15.1368 67.0607 15.1158 66.9203 15.1158C66.7308 15.1158 66.5765 15.1649 66.4572 15.2632C66.3379 15.3614 66.2501 15.4982 66.194 15.6737C66.1449 15.8421 66.1203 16.0421 66.1203 16.2737L65.7414 16.0526C65.7414 15.6667 65.8115 15.3263 65.9519 15.0316C66.0993 14.7298 66.2852 14.4912 66.5098 14.3158C66.7414 14.1333 66.98 14.0421 67.2256 14.0421C67.401 14.0421 67.5659 14.0702 67.7203 14.1263C67.8747 14.1825 68.008 14.2772 68.1203 14.4105L67.5624 15.3684ZM72.0561 10.7895H73.2035V19H72.0561V10.7895ZM76.7518 19.1053C76.2606 19.1053 75.8255 19 75.4465 18.7895C75.0746 18.5789 74.7869 18.2842 74.5834 17.9053C74.3799 17.5263 74.2781 17.0842 74.2781 16.5789C74.2781 16.0667 74.3799 15.6211 74.5834 15.2421C74.7939 14.8632 75.0887 14.5719 75.4676 14.3684C75.8465 14.1579 76.2922 14.0526 76.8044 14.0526C77.3167 14.0526 77.7518 14.1509 78.1097 14.3474C78.4746 14.5439 78.7518 14.8281 78.9413 15.2C79.1308 15.5649 79.2255 16.007 79.2255 16.5263C79.2255 16.5825 79.222 16.6421 79.215 16.7053C79.215 16.7684 79.215 16.814 79.215 16.8421H74.9623V16.0526H78.236L77.8887 16.5368C77.9097 16.4947 77.9308 16.4386 77.9518 16.3684C77.9799 16.2982 77.9939 16.2386 77.9939 16.1895C77.9939 15.9298 77.9413 15.7053 77.836 15.5158C77.7378 15.3263 77.5974 15.1789 77.415 15.0737C77.2395 14.9684 77.0325 14.9158 76.7939 14.9158C76.5062 14.9158 76.2606 14.9789 76.0571 15.1053C75.8606 15.2316 75.7062 15.414 75.5939 15.6526C75.4887 15.8912 75.436 16.186 75.436 16.5368C75.429 16.8807 75.4781 17.1754 75.5834 17.4211C75.6957 17.6667 75.8536 17.8526 76.0571 17.9789C76.2606 18.1053 76.5097 18.1684 76.8044 18.1684C77.1202 18.1684 77.3939 18.1053 77.6255 17.9789C77.8571 17.8526 78.0465 17.6596 78.1939 17.4L79.1834 17.7895C78.9237 18.2246 78.5939 18.5544 78.1939 18.7789C77.7939 18.9965 77.3132 19.1053 76.7518 19.1053ZM84.2346 16.5789C84.2346 16.8807 84.3013 17.1474 84.4346 17.3789C84.568 17.6105 84.7469 17.793 84.9715 17.9263C85.203 18.0596 85.4592 18.1263 85.7399 18.1263C85.9785 18.1263 86.1995 18.0912 86.403 18.0211C86.6136 17.9439 86.7995 17.8456 86.9609 17.7263C87.1223 17.6 87.2416 17.4596 87.3188 17.3053V18.5579C87.1504 18.7263 86.9223 18.8596 86.6346 18.9579C86.3469 19.0561 86.0311 19.1053 85.6873 19.1053C85.196 19.1053 84.7504 19 84.3504 18.7895C83.9574 18.5719 83.6451 18.2737 83.4136 17.8947C83.182 17.5088 83.0662 17.0702 83.0662 16.5789C83.0662 16.0807 83.182 15.6421 83.4136 15.2632C83.6451 14.8842 83.9574 14.5895 84.3504 14.3789C84.7504 14.1614 85.196 14.0526 85.6873 14.0526C86.0311 14.0526 86.3469 14.1018 86.6346 14.2C86.9223 14.2982 87.1504 14.4281 87.3188 14.5895V15.8526C87.2416 15.6912 87.1188 15.5509 86.9504 15.4316C86.789 15.3053 86.603 15.207 86.3925 15.1368C86.182 15.0667 85.9644 15.0316 85.7399 15.0316C85.4592 15.0316 85.203 15.0982 84.9715 15.2316C84.7469 15.3649 84.568 15.5474 84.4346 15.7789C84.3013 16.0105 84.2346 16.2772 84.2346 16.5789ZM89.7017 14.1579V19H88.5754V14.1579H89.7017ZM91.1438 15.3684C91.0456 15.2842 90.9473 15.2211 90.8491 15.1789C90.7579 15.1368 90.6421 15.1158 90.5017 15.1158C90.3123 15.1158 90.1579 15.1649 90.0386 15.2632C89.9193 15.3614 89.8316 15.4982 89.7754 15.6737C89.7263 15.8421 89.7017 16.0421 89.7017 16.2737L89.3228 16.0526C89.3228 15.6667 89.393 15.3263 89.5333 15.0316C89.6807 14.7298 89.8666 14.4912 90.0912 14.3158C90.3228 14.1333 90.5614 14.0421 90.807 14.0421C90.9824 14.0421 91.1473 14.0702 91.3017 14.1263C91.4561 14.1825 91.5894 14.2772 91.7017 14.4105L91.1438 15.3684ZM92.6433 16.8421V16.0526H95.6748C95.6468 15.8281 95.5836 15.6316 95.4854 15.4632C95.3941 15.2877 95.2643 15.1544 95.0959 15.0632C94.9275 14.9649 94.7204 14.9158 94.4748 14.9158C94.2222 14.9158 93.9941 14.9719 93.7906 15.0842C93.5871 15.1895 93.4257 15.3474 93.3064 15.5579C93.1941 15.7614 93.138 16.0035 93.138 16.2842L93.1169 16.5789C93.1169 16.9298 93.1731 17.2246 93.2854 17.4632C93.4047 17.7018 93.5661 17.8807 93.7696 18C93.9801 18.1123 94.2187 18.1684 94.4854 18.1684C94.7099 18.1684 94.9064 18.1368 95.0748 18.0737C95.2503 18.0105 95.4047 17.9228 95.538 17.8105C95.6713 17.6912 95.7836 17.5544 95.8748 17.4L96.8643 17.7895C96.7029 18.0561 96.5169 18.2877 96.3064 18.4842C96.0959 18.6807 95.8397 18.8351 95.538 18.9474C95.2433 19.0526 94.8748 19.1053 94.4327 19.1053C93.9415 19.1053 93.5064 18.9965 93.1275 18.7789C92.7555 18.5614 92.4678 18.2632 92.2643 17.8842C92.0608 17.4982 91.959 17.0632 91.959 16.5789C91.959 16.4877 91.9626 16.4 91.9696 16.3158C91.9766 16.2316 91.9871 16.1474 92.0012 16.0632C92.0713 15.6632 92.2117 15.3123 92.4222 15.0105C92.6397 14.7088 92.924 14.4737 93.2748 14.3053C93.6257 14.1368 94.0292 14.0526 94.4854 14.0526C94.9906 14.0526 95.4222 14.1544 95.7801 14.3579C96.145 14.5544 96.4222 14.8386 96.6117 15.2105C96.8082 15.5754 96.9064 16.014 96.9064 16.5263C96.9064 16.5684 96.9064 16.6175 96.9064 16.6737C96.9064 16.7228 96.9029 16.7789 96.8959 16.8421H92.6433ZM96.2222 11.7579L94.3275 13.3368L93.6854 12.9684L95.2643 11.2842L96.2222 11.7579ZM101.118 16.0526C101.118 15.6947 101.044 15.4246 100.897 15.2421C100.749 15.0596 100.525 14.9684 100.223 14.9684C100.005 14.9684 99.8158 15.014 99.6544 15.1053C99.493 15.1895 99.3667 15.3158 99.2755 15.4842C99.1913 15.6456 99.1492 15.8351 99.1492 16.0526V19H98.0018V14.1579H99.1492V14.9053C99.3036 14.6175 99.5001 14.4035 99.7386 14.2632C99.9843 14.1228 100.272 14.0526 100.602 14.0526C101.149 14.0526 101.567 14.2211 101.854 14.5579C102.142 14.8877 102.286 15.3404 102.286 15.9158V19H101.118V16.0526ZM105.843 19.1053C105.352 19.1053 104.917 19 104.538 18.7895C104.166 18.5789 103.878 18.2842 103.675 17.9053C103.471 17.5263 103.369 17.0842 103.369 16.5789C103.369 16.0667 103.471 15.6211 103.675 15.2421C103.885 14.8632 104.18 14.5719 104.559 14.3684C104.938 14.1579 105.383 14.0526 105.896 14.0526C106.408 14.0526 106.843 14.1509 107.201 14.3474C107.566 14.5439 107.843 14.8281 108.033 15.2C108.222 15.5649 108.317 16.007 108.317 16.5263C108.317 16.5825 108.313 16.6421 108.306 16.7053C108.306 16.7684 108.306 16.814 108.306 16.8421H104.054V16.0526H107.327L106.98 16.5368C107.001 16.4947 107.022 16.4386 107.043 16.3684C107.071 16.2982 107.085 16.2386 107.085 16.1895C107.085 15.9298 107.033 15.7053 106.927 15.5158C106.829 15.3263 106.689 15.1789 106.506 15.0737C106.331 14.9684 106.124 14.9158 105.885 14.9158C105.597 14.9158 105.352 14.9789 105.148 15.1053C104.952 15.2316 104.797 15.414 104.685 15.6526C104.58 15.8912 104.527 16.186 104.527 16.5368C104.52 16.8807 104.569 17.1754 104.675 17.4211C104.787 17.6667 104.945 17.8526 105.148 17.9789C105.352 18.1053 105.601 18.1684 105.896 18.1684C106.212 18.1684 106.485 18.1053 106.717 17.9789C106.948 17.8526 107.138 17.6596 107.285 17.4L108.275 17.7895C108.015 18.2246 107.685 18.5544 107.285 18.7789C106.885 18.9965 106.404 19.1053 105.843 19.1053ZM110.128 17.4947C110.128 17.6561 110.167 17.7965 110.244 17.9158C110.321 18.0281 110.426 18.1123 110.56 18.1684C110.7 18.2246 110.858 18.2526 111.033 18.2526C111.265 18.2526 111.472 18.207 111.654 18.1158C111.844 18.0175 111.995 17.8807 112.107 17.7053C112.219 17.5298 112.275 17.3193 112.275 17.0737L112.444 17.7053C112.444 18.014 112.353 18.2737 112.17 18.4842C111.995 18.6947 111.77 18.8526 111.496 18.9579C111.23 19.0561 110.956 19.1053 110.675 19.1053C110.374 19.1053 110.093 19.0456 109.833 18.9263C109.574 18.807 109.367 18.6316 109.212 18.4C109.058 18.1684 108.981 17.8877 108.981 17.5579C108.981 17.0877 109.146 16.7158 109.475 16.4421C109.805 16.1614 110.272 16.0211 110.875 16.0211C111.198 16.0211 111.475 16.0561 111.707 16.1263C111.946 16.1965 112.142 16.2807 112.296 16.3789C112.451 16.4702 112.56 16.5544 112.623 16.6316V17.2105C112.405 17.0561 112.174 16.9439 111.928 16.8737C111.682 16.8035 111.423 16.7684 111.149 16.7684C110.91 16.7684 110.717 16.8 110.57 16.8632C110.423 16.9193 110.31 17 110.233 17.1053C110.163 17.2105 110.128 17.3404 110.128 17.4947ZM109.77 15.4211L109.307 14.6211C109.531 14.4877 109.816 14.3579 110.16 14.2316C110.503 14.1053 110.903 14.0421 111.36 14.0421C111.753 14.0421 112.103 14.1018 112.412 14.2211C112.721 14.3333 112.96 14.5018 113.128 14.7263C113.303 14.9509 113.391 15.2246 113.391 15.5474V19H112.275V15.7684C112.275 15.614 112.251 15.4877 112.202 15.3895C112.153 15.2912 112.079 15.2105 111.981 15.1474C111.889 15.0842 111.781 15.0386 111.654 15.0105C111.528 14.9825 111.391 14.9684 111.244 14.9684C111.019 14.9684 110.805 14.9965 110.602 15.0526C110.405 15.1018 110.237 15.1649 110.096 15.2421C109.956 15.3123 109.847 15.3719 109.77 15.4211ZM115.885 17.1053C115.885 17.4491 115.959 17.7158 116.106 17.9053C116.253 18.0947 116.481 18.1895 116.79 18.1895C117.001 18.1895 117.187 18.1439 117.348 18.0526C117.509 17.9614 117.636 17.8351 117.727 17.6737C117.818 17.5123 117.864 17.3228 117.864 17.1053V14.1579H119.001V19H117.864V18.2526C117.709 18.5333 117.509 18.7474 117.264 18.8947C117.025 19.0351 116.737 19.1053 116.401 19.1053C115.86 19.1053 115.443 18.9368 115.148 18.6C114.86 18.2632 114.716 17.807 114.716 17.2316V14.1579H115.885V17.1053Z" fill="black"/>
</g>
<defs>
<filter id="filter0_d_544_34" x="0" y="0" width="137" height="41.6172" filterUnits="userSpaceOnUse" color-interpolation-filters="sRGB">
<feFlood flood-opacity="0" result="BackgroundImageFix"/>
<feColorMatrix in="SourceAlpha" type="matrix" values="0 0 0 0 0 0 0 0 0 0 0 0 0 0 0 0 0 0 127 0" result="hardAlpha"/>
<feOffset dy="4"/>
<feGaussianBlur stdDeviation="2"/>
<feComposite in2="hardAlpha" operator="out"/>
<feColorMatrix type="matrix" values="0 0 0 0 0 0 0 0 0 0 0 0 0 0 0 0 0 0 0.25 0"/>
<feBlend mode="normal" in2="BackgroundImageFix" result="effect1_dropShadow_544_34"/>
<feBlend mode="normal" in="SourceGraphic" in2="effect1_dropShadow_544_34" result="shape"/>
</filter>
</defs>
</svg>
