<svg width="300" height="87" viewBox="0 0 300 87" fill="none" xmlns="http://www.w3.org/2000/svg">
<g filter="url(#filter0_d_544_34)">
<path d="M48.8742 0.0874023C24.0882 0.0874023 4 16.4069 4 36.5477C4 45.2421 7.7512 53.2002 13.9915 59.4581C11.8004 68.2927 4.47328 76.1632 4.38564 76.2508C4 76.654 3.89483 77.25 4.1227 77.7759C4.35058 78.3017 4.84139 78.6173 5.40232 78.6173C17.024 78.6173 25.7359 73.043 30.0481 69.6074C35.7801 71.7634 42.1431 73.008 48.8742 73.008C73.6602 73.008 93.7484 56.6885 93.7484 36.5477C93.7484 16.4069 73.6602 0.0874023 48.8742 0.0874023Z" fill="white"/>
<path d="M46.0481 0.0874023H259.535C279.674 0.0874023 296 16.4132 296 36.5522V36.5522C296 56.4075 279.904 72.5034 260.049 72.5034H46.0481V0.0874023Z" fill="white"/>
<path d="M38.0569 39.2101C38.4339 39.8822 38.8356 40.4642 39.2618 40.956C39.7044 41.4478 40.188 41.833 40.7126 42.1117C41.2535 42.3904 41.8437 42.5297 42.483 42.5297C43.2699 42.5297 43.9092 42.3166 44.401 41.8904C44.8928 41.4641 45.1387 40.9068 45.1387 40.2183C45.1387 39.5953 44.9829 39.0954 44.6715 38.7183C44.3764 38.3249 43.9502 37.997 43.3928 37.7347C42.8355 37.4561 42.1961 37.1856 41.4748 36.9233C41.0486 36.7758 40.5732 36.579 40.0487 36.3331C39.5241 36.0709 39.0241 35.7512 38.5487 35.3742C38.0733 34.9807 37.6799 34.5053 37.3684 33.948C37.0569 33.3742 36.9012 32.6857 36.9012 31.8824C36.9012 30.9644 37.1389 30.1612 37.6143 29.4727C38.0897 28.7678 38.729 28.2186 39.5323 27.8252C40.3519 27.4318 41.2781 27.235 42.3109 27.235C43.3273 27.235 44.2125 27.4236 44.9666 27.8006C45.7206 28.1612 46.36 28.6202 46.8845 29.1776C47.4091 29.735 47.8107 30.3169 48.0894 30.9235L45.7534 32.2513C45.5239 31.8251 45.2452 31.4316 44.9174 31.071C44.5895 30.694 44.2043 30.3989 43.7617 30.1858C43.3354 29.9563 42.8355 29.8415 42.2617 29.8415C41.4585 29.8415 40.8683 30.03 40.4913 30.4071C40.1142 30.7677 39.9257 31.1939 39.9257 31.6857C39.9257 32.1283 40.0569 32.53 40.3191 32.8906C40.5978 33.2349 41.024 33.5627 41.5978 33.8742C42.1715 34.1857 42.9174 34.5053 43.8354 34.8332C44.36 35.0135 44.8764 35.243 45.3846 35.5217C45.9091 35.8004 46.3763 36.1446 46.7862 36.5544C47.2124 36.9643 47.5566 37.4561 47.8189 38.0298C48.0812 38.5872 48.2124 39.2429 48.2124 39.997C48.2124 40.8002 48.0484 41.5215 47.7206 42.1608C47.4091 42.8002 46.9829 43.3411 46.4419 43.7838C45.9009 44.21 45.2862 44.5378 44.5977 44.7673C43.9256 45.0132 43.2207 45.1362 42.483 45.1362C41.483 45.1362 40.5486 44.9395 39.6798 44.546C38.8274 44.1362 38.0733 43.5952 37.4176 42.9231C36.7783 42.251 36.2701 41.5215 35.893 40.7347L38.0569 39.2101ZM53.6737 40.3412C53.6737 41.1445 53.8458 41.7674 54.1901 42.21C54.5344 42.6526 55.0671 42.8739 55.7884 42.8739C56.2802 42.8739 56.7146 42.7674 57.0917 42.5543C57.4687 42.3412 57.7638 42.0461 57.9769 41.6691C58.19 41.292 58.2965 40.8494 58.2965 40.3412V33.4562H60.9522V44.7673H58.2965V43.0215C57.9359 43.6772 57.4687 44.1772 56.8949 44.5214C56.3376 44.8493 55.6655 45.0132 54.8786 45.0132C53.6163 45.0132 52.641 44.6198 51.9525 43.8329C51.2803 43.0461 50.9443 41.9805 50.9443 40.6363V33.4562H53.6737V40.3412ZM66.9255 50.177H64.2453V33.4562H66.9255V50.177ZM76.2941 39.1118C76.2941 40.3576 76.04 41.4314 75.5318 42.333C75.0237 43.2182 74.3515 43.8985 73.5155 44.3739C72.6795 44.8329 71.7697 45.0624 70.7861 45.0624C69.8353 45.0624 68.9992 44.8247 68.2779 44.3493C67.573 43.8575 67.0239 43.169 66.6305 42.2838C66.237 41.3822 66.0403 40.3248 66.0403 39.1118C66.0403 37.8823 66.237 36.8249 66.6305 35.9397C67.0239 35.0545 67.573 34.366 68.2779 33.8742C68.9992 33.3824 69.8353 33.1365 70.7861 33.1365C71.7697 33.1365 72.6795 33.3742 73.5155 33.8496C74.3515 34.325 75.0237 35.0053 75.5318 35.8905C76.04 36.7594 76.2941 37.8331 76.2941 39.1118ZM73.5401 39.1118C73.5401 38.3577 73.3844 37.7184 73.0729 37.1938C72.7614 36.6528 72.3516 36.2512 71.8434 35.9889C71.3352 35.7102 70.7697 35.5709 70.1467 35.5709C69.6222 35.5709 69.114 35.7102 68.6222 35.9889C68.1304 36.2512 67.7206 36.6446 67.3927 37.1692C67.0813 37.6938 66.9255 38.3413 66.9255 39.1118C66.9255 39.8822 67.0813 40.5297 67.3927 41.0543C67.7206 41.5789 68.1304 41.9805 68.6222 42.2592C69.114 42.5215 69.6222 42.6526 70.1467 42.6526C70.7697 42.6526 71.3352 42.5133 71.8434 42.2346C72.3516 41.9559 72.7614 41.5543 73.0729 41.0297C73.3844 40.5052 73.5401 39.8658 73.5401 39.1118ZM81.4055 50.177H78.7252V33.4562H81.4055V50.177ZM90.7741 39.1118C90.7741 40.3576 90.52 41.4314 90.0118 42.333C89.5036 43.2182 88.8315 43.8985 87.9954 44.3739C87.1594 44.8329 86.2496 45.0624 85.266 45.0624C84.3152 45.0624 83.4792 44.8247 82.7579 44.3493C82.053 43.8575 81.5038 43.169 81.1104 42.2838C80.717 41.3822 80.5202 40.3248 80.5202 39.1118C80.5202 37.8823 80.717 36.8249 81.1104 35.9397C81.5038 35.0545 82.053 34.366 82.7579 33.8742C83.4792 33.3824 84.3152 33.1365 85.266 33.1365C86.2496 33.1365 87.1594 33.3742 87.9954 33.8496C88.8315 34.325 89.5036 35.0053 90.0118 35.8905C90.52 36.7594 90.7741 37.8331 90.7741 39.1118ZM88.02 39.1118C88.02 38.3577 87.8643 37.7184 87.5528 37.1938C87.2414 36.6528 86.8315 36.2512 86.3234 35.9889C85.8152 35.7102 85.2496 35.5709 84.6267 35.5709C84.1021 35.5709 83.5939 35.7102 83.1021 35.9889C82.6103 36.2512 82.2005 36.6446 81.8727 37.1692C81.5612 37.6938 81.4055 38.3413 81.4055 39.1118C81.4055 39.8822 81.5612 40.5297 81.8727 41.0543C82.2005 41.5789 82.6103 41.9805 83.1021 42.2592C83.5939 42.5215 84.1021 42.6526 84.6267 42.6526C85.2496 42.6526 85.8152 42.5133 86.3234 42.2346C86.8315 41.9559 87.2414 41.5543 87.5528 41.0297C87.8643 40.5052 88.02 39.8658 88.02 39.1118ZM95.9346 33.4562V44.7673H93.3035V33.4562H95.9346ZM99.3033 36.284C99.0738 36.0872 98.8443 35.9397 98.6148 35.8414C98.4017 35.743 98.1312 35.6938 97.8034 35.6938C97.3608 35.6938 97.0001 35.8086 96.7214 36.0381C96.4428 36.2676 96.2378 36.5872 96.1067 36.9971C95.9919 37.3905 95.9346 37.8577 95.9346 38.3987L95.0494 37.8823C95.0494 36.9807 95.2133 36.1856 95.5411 35.4971C95.8854 34.7922 96.3198 34.2348 96.8444 33.825C97.3854 33.3988 97.9427 33.1857 98.5165 33.1857C98.9263 33.1857 99.3115 33.2513 99.6722 33.3824C100.033 33.5136 100.344 33.7349 100.607 34.0463L99.3033 36.284ZM102.33 28.9563C102.33 28.4973 102.494 28.1121 102.822 27.8006C103.166 27.4891 103.56 27.3334 104.002 27.3334C104.478 27.3334 104.879 27.4891 105.207 27.8006C105.535 28.1121 105.699 28.4973 105.699 28.9563C105.699 29.3989 105.535 29.7841 105.207 30.112C104.879 30.4235 104.478 30.5792 104.002 30.5792C103.56 30.5792 103.166 30.4235 102.822 30.112C102.494 29.7841 102.33 29.3989 102.33 28.9563ZM102.699 33.4562H105.33V44.7673H102.699V33.4562ZM125.189 37.5626V44.7673H122.508V37.8823C122.508 37.0298 122.353 36.3987 122.041 35.9889C121.746 35.5627 121.279 35.3496 120.64 35.3496C120.181 35.3496 119.779 35.4479 119.435 35.6446C119.107 35.8414 118.844 36.1282 118.648 36.5053C118.467 36.8823 118.377 37.3413 118.377 37.8823V44.7673H115.722V37.8823C115.722 37.0298 115.566 36.3987 115.254 35.9889C114.959 35.5627 114.484 35.3496 113.828 35.3496C113.386 35.3496 112.992 35.4479 112.648 35.6446C112.32 35.8414 112.058 36.1282 111.861 36.5053C111.681 36.8823 111.591 37.3413 111.591 37.8823V44.7673H108.984V33.4562H111.591V35.1037C111.935 34.4807 112.369 34.0135 112.894 33.7021C113.418 33.3742 114.05 33.2103 114.787 33.2103C115.607 33.2103 116.287 33.3824 116.828 33.7267C117.385 34.0709 117.787 34.5709 118.033 35.2266C118.443 34.5545 118.943 34.0545 119.533 33.7267C120.14 33.3824 120.82 33.2103 121.574 33.2103C122.394 33.2103 123.066 33.3824 123.59 33.7267C124.115 34.0545 124.508 34.5463 124.771 35.202C125.049 35.8577 125.189 36.6446 125.189 37.5626ZM133.473 45.0132C132.325 45.0132 131.309 44.7673 130.424 44.2755C129.555 43.7838 128.883 43.0952 128.407 42.21C127.932 41.3248 127.694 40.292 127.694 39.1118C127.694 37.9151 127.932 36.8741 128.407 35.9889C128.899 35.1037 129.588 34.4234 130.473 33.948C131.358 33.4562 132.399 33.2103 133.596 33.2103C134.792 33.2103 135.809 33.4398 136.645 33.8988C137.497 34.3578 138.145 35.0217 138.587 35.8905C139.03 36.743 139.251 37.7757 139.251 38.9888C139.251 39.12 139.243 39.2593 139.227 39.4068C139.227 39.5544 139.227 39.6609 139.227 39.7265H129.293V37.8823H136.94L136.128 39.0134C136.178 38.915 136.227 38.7839 136.276 38.62C136.341 38.456 136.374 38.3167 136.374 38.2019C136.374 37.5954 136.251 37.0708 136.005 36.6282C135.776 36.1856 135.448 35.8414 135.022 35.5955C134.612 35.3496 134.128 35.2266 133.571 35.2266C132.899 35.2266 132.325 35.3742 131.85 35.6692C131.391 35.9643 131.03 36.3905 130.768 36.9479C130.522 37.5052 130.399 38.1937 130.399 39.0134C130.383 39.8167 130.497 40.5052 130.743 41.0789C131.006 41.6527 131.374 42.0871 131.85 42.3822C132.325 42.6772 132.907 42.8248 133.596 42.8248C134.333 42.8248 134.973 42.6772 135.514 42.3822C136.055 42.0871 136.497 41.6363 136.841 41.0297L139.153 41.9395C138.546 42.9559 137.776 43.7264 136.841 44.251C135.907 44.7591 134.784 45.0132 133.473 45.0132ZM144.441 33.4562V44.7673H141.81V33.4562H144.441ZM147.81 36.284C147.58 36.0872 147.351 35.9397 147.121 35.8414C146.908 35.743 146.638 35.6938 146.31 35.6938C145.867 35.6938 145.507 35.8086 145.228 36.0381C144.949 36.2676 144.744 36.5872 144.613 36.9971C144.499 37.3905 144.441 37.8577 144.441 38.3987L143.556 37.8823C143.556 36.9807 143.72 36.1856 144.048 35.4971C144.392 34.7922 144.826 34.2348 145.351 33.825C145.892 33.3988 146.449 33.1857 147.023 33.1857C147.433 33.1857 147.818 33.2513 148.179 33.3824C148.539 33.5136 148.851 33.7349 149.113 34.0463L147.81 36.284ZM158.307 25.5875H160.987V44.7673H158.307V25.5875ZM169.276 45.0132C168.129 45.0132 167.112 44.7673 166.227 44.2755C165.358 43.7838 164.686 43.0952 164.211 42.21C163.735 41.3248 163.498 40.292 163.498 39.1118C163.498 37.9151 163.735 36.8741 164.211 35.9889C164.703 35.1037 165.391 34.4234 166.276 33.948C167.162 33.4562 168.203 33.2103 169.399 33.2103C170.596 33.2103 171.612 33.4398 172.448 33.8988C173.301 34.3578 173.948 35.0217 174.391 35.8905C174.834 36.743 175.055 37.7757 175.055 38.9888C175.055 39.12 175.047 39.2593 175.03 39.4068C175.03 39.5544 175.03 39.6609 175.03 39.7265H165.096V37.8823H172.743L171.932 39.0134C171.981 38.915 172.03 38.7839 172.08 38.62C172.145 38.456 172.178 38.3167 172.178 38.2019C172.178 37.5954 172.055 37.0708 171.809 36.6282C171.58 36.1856 171.252 35.8414 170.825 35.5955C170.416 35.3496 169.932 35.2266 169.375 35.2266C168.703 35.2266 168.129 35.3742 167.653 35.6692C167.194 35.9643 166.834 36.3905 166.571 36.9479C166.326 37.5052 166.203 38.1937 166.203 39.0134C166.186 39.8167 166.301 40.5052 166.547 41.0789C166.809 41.6527 167.178 42.0871 167.653 42.3822C168.129 42.6772 168.711 42.8248 169.399 42.8248C170.137 42.8248 170.776 42.6772 171.317 42.3822C171.858 42.0871 172.301 41.6363 172.645 41.0297L174.956 41.9395C174.35 42.9559 173.579 43.7264 172.645 44.251C171.711 44.7591 170.588 45.0132 169.276 45.0132ZM186.756 39.1118C186.756 39.8167 186.912 40.4396 187.223 40.9806C187.535 41.5215 187.953 41.9477 188.477 42.2592C189.018 42.5707 189.617 42.7264 190.272 42.7264C190.83 42.7264 191.346 42.6444 191.822 42.4805C192.313 42.3002 192.748 42.0707 193.125 41.792C193.502 41.4969 193.781 41.1691 193.961 40.8084V43.7346C193.567 44.128 193.035 44.4395 192.363 44.669C191.69 44.8985 190.953 45.0132 190.15 45.0132C189.002 45.0132 187.961 44.7673 187.027 44.2755C186.109 43.7674 185.379 43.0707 184.838 42.1854C184.297 41.2838 184.027 40.2593 184.027 39.1118C184.027 37.9479 184.297 36.9233 184.838 36.0381C185.379 35.1528 186.109 34.4643 187.027 33.9726C187.961 33.4644 189.002 33.2103 190.15 33.2103C190.953 33.2103 191.69 33.325 192.363 33.5545C193.035 33.784 193.567 34.0873 193.961 34.4643V37.4151C193.781 37.038 193.494 36.7102 193.1 36.4315C192.723 36.1364 192.289 35.9069 191.797 35.743C191.305 35.5791 190.797 35.4971 190.272 35.4971C189.617 35.4971 189.018 35.6528 188.477 35.9643C187.953 36.2758 187.535 36.702 187.223 37.243C186.912 37.7839 186.756 38.4069 186.756 39.1118ZM199.527 33.4562V44.7673H196.896V33.4562H199.527ZM202.896 36.284C202.667 36.0872 202.437 35.9397 202.208 35.8414C201.994 35.743 201.724 35.6938 201.396 35.6938C200.954 35.6938 200.593 35.8086 200.314 36.0381C200.036 36.2676 199.831 36.5872 199.699 36.9971C199.585 37.3905 199.527 37.8577 199.527 38.3987L198.642 37.8823C198.642 36.9807 198.806 36.1856 199.134 35.4971C199.478 34.7922 199.913 34.2348 200.437 33.825C200.978 33.3988 201.535 33.1857 202.109 33.1857C202.519 33.1857 202.904 33.2513 203.265 33.3824C203.626 33.5136 203.937 33.7349 204.199 34.0463L202.896 36.284ZM206.399 39.7265V37.8823H213.481C213.415 37.3577 213.267 36.8987 213.038 36.5053C212.825 36.0954 212.522 35.784 212.128 35.5709C211.735 35.3414 211.251 35.2266 210.677 35.2266C210.087 35.2266 209.554 35.3578 209.079 35.62C208.604 35.8659 208.227 36.2348 207.948 36.7266C207.686 37.202 207.554 37.7675 207.554 38.4232L207.505 39.1118C207.505 39.9314 207.636 40.6199 207.899 41.1773C208.177 41.7346 208.554 42.1527 209.03 42.4313C209.522 42.6936 210.079 42.8248 210.702 42.8248C211.226 42.8248 211.685 42.751 212.079 42.6035C212.489 42.4559 212.849 42.251 213.161 41.9887C213.472 41.71 213.735 41.3904 213.948 41.0297L216.259 41.9395C215.882 42.5625 215.448 43.1034 214.956 43.5624C214.464 44.0215 213.866 44.3821 213.161 44.6444C212.472 44.8903 211.612 45.0132 210.579 45.0132C209.431 45.0132 208.415 44.7591 207.53 44.251C206.661 43.7428 205.989 43.0461 205.514 42.1608C205.038 41.2592 204.8 40.2429 204.8 39.1118C204.8 38.8986 204.809 38.6937 204.825 38.497C204.841 38.3003 204.866 38.1036 204.899 37.9069C205.063 36.9725 205.391 36.1528 205.882 35.4479C206.391 34.743 207.054 34.1939 207.874 33.8004C208.694 33.407 209.636 33.2103 210.702 33.2103C211.882 33.2103 212.89 33.448 213.726 33.9234C214.579 34.3824 215.226 35.0463 215.669 35.9151C216.128 36.7676 216.357 37.7921 216.357 38.9888C216.357 39.0872 216.357 39.2019 216.357 39.3331C216.357 39.4478 216.349 39.579 216.333 39.7265H206.399ZM214.759 27.8498L210.333 31.5382L208.833 30.6776L212.522 26.7432L214.759 27.8498ZM226.195 37.8823C226.195 37.0462 226.023 36.4151 225.678 35.9889C225.334 35.5627 224.81 35.3496 224.105 35.3496C223.597 35.3496 223.154 35.4561 222.777 35.6692C222.4 35.8659 222.105 36.161 221.892 36.5544C221.695 36.9315 221.597 37.3741 221.597 37.8823V44.7673H218.916V33.4562H221.597V35.202C221.957 34.5299 222.416 34.0299 222.974 33.7021C223.547 33.3742 224.219 33.2103 224.99 33.2103C226.269 33.2103 227.244 33.6037 227.916 34.3906C228.588 35.161 228.924 36.2184 228.924 37.5626V44.7673H226.195V37.8823ZM237.234 45.0132C236.086 45.0132 235.07 44.7673 234.184 44.2755C233.316 43.7838 232.644 43.0952 232.168 42.21C231.693 41.3248 231.455 40.292 231.455 39.1118C231.455 37.9151 231.693 36.8741 232.168 35.9889C232.66 35.1037 233.348 34.4234 234.234 33.948C235.119 33.4562 236.16 33.2103 237.357 33.2103C238.553 33.2103 239.57 33.4398 240.406 33.8988C241.258 34.3578 241.906 35.0217 242.348 35.8905C242.791 36.743 243.012 37.7757 243.012 38.9888C243.012 39.12 243.004 39.2593 242.988 39.4068C242.988 39.5544 242.988 39.6609 242.988 39.7265H233.053V37.8823H240.701L239.889 39.0134C239.938 38.915 239.988 38.7839 240.037 38.62C240.102 38.456 240.135 38.3167 240.135 38.2019C240.135 37.5954 240.012 37.0708 239.766 36.6282C239.537 36.1856 239.209 35.8414 238.783 35.5955C238.373 35.3496 237.889 35.2266 237.332 35.2266C236.66 35.2266 236.086 35.3742 235.611 35.6692C235.152 35.9643 234.791 36.3905 234.529 36.9479C234.283 37.5052 234.16 38.1937 234.16 39.0134C234.143 39.8167 234.258 40.5052 234.504 41.0789C234.766 41.6527 235.135 42.0871 235.611 42.3822C236.086 42.6772 236.668 42.8248 237.357 42.8248C238.094 42.8248 238.734 42.6772 239.274 42.3822C239.815 42.0871 240.258 41.6363 240.602 41.0297L242.914 41.9395C242.307 42.9559 241.537 43.7264 240.602 44.251C239.668 44.7591 238.545 45.0132 237.234 45.0132ZM247.243 41.251C247.243 41.6281 247.333 41.9559 247.514 42.2346C247.694 42.4969 247.94 42.6936 248.251 42.8248C248.579 42.9559 248.948 43.0215 249.358 43.0215C249.899 43.0215 250.382 42.9149 250.808 42.7018C251.251 42.4723 251.604 42.1527 251.866 41.7428C252.128 41.333 252.259 40.8412 252.259 40.2675L252.653 41.7428C252.653 42.4641 252.44 43.0707 252.013 43.5624C251.604 44.0542 251.079 44.4231 250.44 44.669C249.817 44.8985 249.177 45.0132 248.522 45.0132C247.817 45.0132 247.161 44.8739 246.555 44.5952C245.948 44.3165 245.464 43.9067 245.104 43.3657C244.743 42.8248 244.563 42.169 244.563 41.3986C244.563 40.3002 244.948 39.4314 245.718 38.7921C246.489 38.1364 247.579 37.8085 248.989 37.8085C249.743 37.8085 250.39 37.8905 250.931 38.0544C251.489 38.2183 251.948 38.4151 252.308 38.6446C252.669 38.8577 252.923 39.0544 253.071 39.2347V40.5871C252.563 40.2265 252.022 39.9642 251.448 39.8003C250.874 39.6363 250.268 39.5544 249.628 39.5544C249.071 39.5544 248.62 39.6281 248.276 39.7757C247.932 39.9068 247.669 40.0953 247.489 40.3412C247.325 40.5871 247.243 40.8904 247.243 41.251ZM246.407 36.4069L245.325 34.5381C245.85 34.2266 246.514 33.9234 247.317 33.6283C248.12 33.3332 249.054 33.1857 250.12 33.1857C251.038 33.1857 251.858 33.325 252.579 33.6037C253.3 33.866 253.858 34.2594 254.251 34.784C254.661 35.3086 254.866 35.9479 254.866 36.702V44.7673H252.259V37.2184C252.259 36.8577 252.202 36.5626 252.087 36.3331C251.972 36.1036 251.8 35.9151 251.571 35.7676C251.358 35.62 251.104 35.5135 250.808 35.4479C250.513 35.3824 250.194 35.3496 249.85 35.3496C249.325 35.3496 248.825 35.4151 248.35 35.5463C247.891 35.661 247.497 35.8086 247.169 35.9889C246.841 36.1528 246.587 36.2922 246.407 36.4069ZM260.691 40.3412C260.691 41.1445 260.863 41.7674 261.208 42.21C261.552 42.6526 262.085 42.8739 262.806 42.8739C263.298 42.8739 263.732 42.7674 264.109 42.5543C264.486 42.3412 264.781 42.0461 264.994 41.6691C265.207 41.292 265.314 40.8494 265.314 40.3412V33.4562H267.97V44.7673H265.314V43.0215C264.953 43.6772 264.486 44.1772 263.912 44.5214C263.355 44.8493 262.683 45.0132 261.896 45.0132C260.634 45.0132 259.658 44.6198 258.97 43.8329C258.298 43.0461 257.962 41.9805 257.962 40.6363V33.4562H260.691V40.3412Z" fill="black"/>
</g>
<defs>
<filter id="filter0_d_544_34" x="0" y="0.0874023" width="300" height="86.5298" filterUnits="userSpaceOnUse" color-interpolation-filters="sRGB">
<feFlood flood-opacity="0" result="BackgroundImageFix"/>
<feColorMatrix in="SourceAlpha" type="matrix" values="0 0 0 0 0 0 0 0 0 0 0 0 0 0 0 0 0 0 127 0" result="hardAlpha"/>
<feOffset dy="4"/>
<feGaussianBlur stdDeviation="2"/>
<feComposite in2="hardAlpha" operator="out"/>
<feColorMatrix type="matrix" values="0 0 0 0 0 0 0 0 0 0 0 0 0 0 0 0 0 0 0.25 0"/>
<feBlend mode="normal" in2="BackgroundImageFix" result="effect1_dropShadow_544_34"/>
<feBlend mode="normal" in="SourceGraphic" in2="effect1_dropShadow_544_34" result="shape"/>
</filter>
</defs>
</svg>
