<svg width="43" height="39" viewBox="0 0 43 39" fill="none" xmlns="http://www.w3.org/2000/svg">
<g filter="url(#filter0_d_529_36)">
<path d="M21.856 0.915283C12.4814 0.915283 4.88354 7.0877 4.88354 14.7054C4.88354 17.9938 6.30234 21.0038 8.66258 23.3707C7.83384 26.7121 5.06255 29.689 5.0294 29.7221C4.88354 29.8746 4.84377 30.1 4.92995 30.2989C5.01614 30.4978 5.20178 30.6171 5.41394 30.6171C9.80954 30.6171 13.1046 28.5088 14.7355 27.2094C16.9035 28.0249 19.3102 28.4956 21.856 28.4956C31.2307 28.4956 38.8285 22.3232 38.8285 14.7054C38.8285 7.0877 31.2307 0.915283 21.856 0.915283Z" fill="white"/>
<path d="M18.6887 18.6413C18.6887 18.861 18.7759 19.0716 18.9313 19.227C19.0866 19.3823 19.2973 19.4696 19.517 19.4696H24.4868C24.7065 19.4696 24.9172 19.3823 25.0726 19.227C25.2279 19.0716 25.3152 18.861 25.3152 18.6413V12.8431H18.6887V18.6413ZM23.3824 14.2236C23.3824 14.1504 23.4115 14.0802 23.4633 14.0284C23.5151 13.9766 23.5853 13.9475 23.6585 13.9475C23.7318 13.9475 23.802 13.9766 23.8538 14.0284C23.9056 14.0802 23.9346 14.1504 23.9346 14.2236V18.0891C23.9346 18.1623 23.9056 18.2325 23.8538 18.2843C23.802 18.3361 23.7318 18.3652 23.6585 18.3652C23.5853 18.3652 23.5151 18.3361 23.4633 18.2843C23.4115 18.2325 23.3824 18.1623 23.3824 18.0891V14.2236ZM21.7258 14.2236C21.7258 14.1504 21.7549 14.0802 21.8067 14.0284C21.8585 13.9766 21.9287 13.9475 22.0019 13.9475C22.0751 13.9475 22.1454 13.9766 22.1972 14.0284C22.2489 14.0802 22.278 14.1504 22.278 14.2236V18.0891C22.278 18.1623 22.2489 18.2325 22.1972 18.2843C22.1454 18.3361 22.0751 18.3652 22.0019 18.3652C21.9287 18.3652 21.8585 18.3361 21.8067 18.2843C21.7549 18.2325 21.7258 18.1623 21.7258 18.0891V14.2236ZM20.0692 14.2236C20.0692 14.1504 20.0983 14.0802 20.1501 14.0284C20.2018 13.9766 20.2721 13.9475 20.3453 13.9475C20.4185 13.9475 20.4888 13.9766 20.5405 14.0284C20.5923 14.0802 20.6214 14.1504 20.6214 14.2236V18.0891C20.6214 18.1623 20.5923 18.2325 20.5405 18.2843C20.4888 18.3361 20.4185 18.3652 20.3453 18.3652C20.2721 18.3652 20.2018 18.3361 20.1501 18.2843C20.0983 18.2325 20.0692 18.1623 20.0692 18.0891V14.2236ZM25.5913 11.1865H23.5205L23.3583 10.8638C23.3239 10.7948 23.271 10.7368 23.2054 10.6962C23.1399 10.6557 23.0643 10.6342 22.9873 10.6343H21.0149C20.938 10.634 20.8625 10.6554 20.7972 10.6959C20.7319 10.7365 20.6793 10.7947 20.6456 10.8638L20.4834 11.1865H18.4126C18.3394 11.1865 18.2691 11.2156 18.2173 11.2674C18.1656 11.3191 18.1365 11.3894 18.1365 11.4626V12.0148C18.1365 12.088 18.1656 12.1583 18.2173 12.21C18.2691 12.2618 18.3394 12.2909 18.4126 12.2909H25.5913C25.6645 12.2909 25.7347 12.2618 25.7865 12.21C25.8383 12.1583 25.8674 12.088 25.8674 12.0148V11.4626C25.8674 11.3894 25.8383 11.3191 25.7865 11.2674C25.7347 11.2156 25.6645 11.1865 25.5913 11.1865Z" fill="black"/>
</g>
<defs>
<filter id="filter0_d_529_36" x="0.883545" y="0.915283" width="41.9451" height="37.7019" filterUnits="userSpaceOnUse" color-interpolation-filters="sRGB">
<feFlood flood-opacity="0" result="BackgroundImageFix"/>
<feColorMatrix in="SourceAlpha" type="matrix" values="0 0 0 0 0 0 0 0 0 0 0 0 0 0 0 0 0 0 127 0" result="hardAlpha"/>
<feOffset dy="4"/>
<feGaussianBlur stdDeviation="2"/>
<feComposite in2="hardAlpha" operator="out"/>
<feColorMatrix type="matrix" values="0 0 0 0 0 0 0 0 0 0 0 0 0 0 0 0 0 0 0.25 0"/>
<feBlend mode="normal" in2="BackgroundImageFix" result="effect1_dropShadow_529_36"/>
<feBlend mode="normal" in="SourceGraphic" in2="effect1_dropShadow_529_36" result="shape"/>
</filter>
</defs>
</svg>
