<svg width="38" height="30" viewBox="0 0 38 30" fill="none" xmlns="http://www.w3.org/2000/svg">
<path d="M19.0731 0C9.69843 0 2.10059 6.17242 2.10059 13.7901C2.10059 17.0786 3.51938 20.0885 5.87962 22.4554C5.05088 25.7969 2.27959 28.7737 2.24644 28.8068C2.10059 28.9593 2.06081 29.1847 2.147 29.3836C2.23318 29.5825 2.41882 29.7019 2.63098 29.7019C7.02658 29.7019 10.3216 27.5936 11.9526 26.2941C14.1206 27.1096 16.5272 27.5803 19.0731 27.5803C28.4477 27.5803 36.0456 21.4079 36.0456 13.7901C36.0456 6.17242 28.4477 0 19.0731 0Z" fill="white"/>
<path d="M7.24734 14.5409C7.31791 14.6686 7.39689 14.7795 7.48427 14.8736C7.57501 14.9677 7.67248 15.0399 7.77666 15.0904C7.88421 15.1408 7.9968 15.166 8.11442 15.166C8.23877 15.166 8.34128 15.1357 8.42194 15.0752C8.5026 15.0114 8.54293 14.9257 8.54293 14.8181C8.54293 14.7274 8.5194 14.6551 8.47235 14.6014C8.4253 14.5442 8.34968 14.4905 8.24549 14.44C8.14131 14.3896 8.00352 14.3325 7.83212 14.2686C7.7481 14.2384 7.65063 14.1964 7.53973 14.1426C7.43218 14.0888 7.32968 14.0199 7.23221 13.9359C7.13475 13.8485 7.05409 13.7444 6.99024 13.6234C6.92638 13.499 6.89445 13.3495 6.89445 13.1747C6.89445 12.9663 6.94823 12.7865 7.05577 12.6353C7.16668 12.4841 7.31455 12.3698 7.4994 12.2925C7.6876 12.2118 7.89597 12.1715 8.12451 12.1715C8.35976 12.1715 8.56309 12.2102 8.73449 12.2875C8.90925 12.3648 9.05377 12.4622 9.16803 12.5798C9.2823 12.6975 9.36968 12.8168 9.43018 12.9378L8.77986 13.3007C8.72945 13.2167 8.67064 13.1445 8.60342 13.084C8.53956 13.0201 8.46731 12.9714 8.38665 12.9378C8.30935 12.9008 8.22533 12.8823 8.13459 12.8823C8.0136 12.8823 7.92118 12.9092 7.85732 12.963C7.79347 13.0134 7.76154 13.0772 7.76154 13.1545C7.76154 13.2352 7.79179 13.3058 7.85228 13.3663C7.91614 13.4268 8.0052 13.4822 8.11946 13.5326C8.23709 13.583 8.37825 13.6368 8.54293 13.6939C8.66728 13.741 8.78322 13.7965 8.89077 13.8603C8.99831 13.9208 9.09242 13.9947 9.17308 14.0821C9.2571 14.1695 9.32263 14.2703 9.36968 14.3846C9.41673 14.4989 9.44026 14.6299 9.44026 14.7778C9.44026 14.9559 9.40329 15.1156 9.32935 15.2567C9.25878 15.3945 9.16131 15.5105 9.03696 15.6046C8.91597 15.6987 8.7765 15.7692 8.61854 15.8163C8.46395 15.8667 8.30431 15.8919 8.13963 15.8919C7.91109 15.8919 7.69768 15.8516 7.4994 15.7709C7.30447 15.6869 7.13475 15.5743 6.99024 15.4332C6.84572 15.292 6.73313 15.1374 6.65248 14.9694L7.24734 14.5409ZM10.7308 14.8736C10.7308 15.008 10.756 15.1139 10.8064 15.1912C10.8568 15.2651 10.9442 15.3021 11.0686 15.3021C11.1526 15.3021 11.2232 15.2853 11.2803 15.2517C11.3408 15.2181 11.3878 15.1693 11.4215 15.1055C11.4551 15.0416 11.4719 14.9643 11.4719 14.8736V13.4621H12.2331V15.781H11.4719V15.4332C11.4013 15.5575 11.3089 15.6567 11.1946 15.7306C11.0803 15.8012 10.9375 15.8365 10.7661 15.8365C10.4771 15.8365 10.2653 15.7592 10.1309 15.6046C9.99983 15.4466 9.9343 15.2298 9.9343 14.9542V13.4621H10.7308V14.8736ZM13.5902 16.8901H12.8289V13.4621H13.5902V16.8901ZM15.4856 14.6215C15.4856 14.8904 15.4319 15.1172 15.3243 15.3021C15.2201 15.4869 15.084 15.6264 14.916 15.7205C14.7513 15.8146 14.5732 15.8617 14.3816 15.8617C14.18 15.8617 14.0052 15.8113 13.8573 15.7104C13.7128 15.6062 13.6019 15.4617 13.5246 15.2769C13.4473 15.0887 13.4087 14.8702 13.4087 14.6215C13.4087 14.3695 13.4473 14.151 13.5246 13.9662C13.6019 13.7813 13.7128 13.6385 13.8573 13.5377C14.0052 13.4335 14.18 13.3814 14.3816 13.3814C14.5732 13.3814 14.7513 13.4284 14.916 13.5225C15.084 13.6167 15.2201 13.7561 15.3243 13.941C15.4319 14.1225 15.4856 14.3493 15.4856 14.6215ZM14.6841 14.6215C14.6841 14.5005 14.6589 14.398 14.6085 14.314C14.5581 14.23 14.4908 14.1661 14.4068 14.1225C14.3228 14.0788 14.2304 14.0569 14.1296 14.0569C14.0422 14.0569 13.9565 14.0788 13.8725 14.1225C13.7918 14.1628 13.7246 14.225 13.6708 14.309C13.617 14.393 13.5902 14.4972 13.5902 14.6215C13.5902 14.7459 13.617 14.8501 13.6708 14.9341C13.7246 15.0181 13.7918 15.082 13.8725 15.1256C13.9565 15.166 14.0422 15.1861 14.1296 15.1861C14.2304 15.1861 14.3228 15.1643 14.4068 15.1206C14.4908 15.0769 14.5581 15.0131 14.6085 14.929C14.6589 14.845 14.6841 14.7425 14.6841 14.6215ZM16.7015 16.8901H15.9403V13.4621H16.7015V16.8901ZM18.597 14.6215C18.597 14.8904 18.5432 15.1172 18.4357 15.3021C18.3315 15.4869 18.1954 15.6264 18.0274 15.7205C17.8627 15.8146 17.6846 15.8617 17.493 15.8617C17.2913 15.8617 17.1166 15.8113 16.9687 15.7104C16.8242 15.6062 16.7133 15.4617 16.636 15.2769C16.5587 15.0887 16.52 14.8702 16.52 14.6215C16.52 14.3695 16.5587 14.151 16.636 13.9662C16.7133 13.7813 16.8242 13.6385 16.9687 13.5377C17.1166 13.4335 17.2913 13.3814 17.493 13.3814C17.6846 13.3814 17.8627 13.4284 18.0274 13.5225C18.1954 13.6167 18.3315 13.7561 18.4357 13.941C18.5432 14.1225 18.597 14.3493 18.597 14.6215ZM17.7955 14.6215C17.7955 14.5005 17.7703 14.398 17.7198 14.314C17.6694 14.23 17.6022 14.1661 17.5182 14.1225C17.4342 14.0788 17.3417 14.0569 17.2409 14.0569C17.1535 14.0569 17.0678 14.0788 16.9838 14.1225C16.9032 14.1628 16.8359 14.225 16.7822 14.309C16.7284 14.393 16.7015 14.4972 16.7015 14.6215C16.7015 14.7459 16.7284 14.8501 16.7822 14.9341C16.8359 15.0181 16.9032 15.082 16.9838 15.1256C17.0678 15.166 17.1535 15.1861 17.2409 15.1861C17.3417 15.1861 17.4342 15.1643 17.5182 15.1206C17.6022 15.0769 17.6694 15.0131 17.7198 14.929C17.7703 14.845 17.7955 14.7425 17.7955 14.6215ZM19.8078 13.4621V15.781H19.0567V13.4621H19.8078ZM20.4783 14.2485C20.438 14.2082 20.3943 14.1762 20.3473 14.1527C20.3036 14.1292 20.2481 14.1174 20.1809 14.1174C20.107 14.1174 20.0414 14.1376 19.9843 14.1779C19.9272 14.2182 19.8835 14.277 19.8532 14.3543C19.823 14.4316 19.8078 14.5257 19.8078 14.6367L19.6264 14.3695C19.6264 14.1846 19.6616 14.0199 19.7322 13.8754C19.8062 13.7309 19.9019 13.6167 20.0196 13.5326C20.1372 13.4486 20.2599 13.4066 20.3876 13.4066C20.4716 13.4066 20.5523 13.4234 20.6296 13.457C20.7069 13.4906 20.7657 13.5377 20.806 13.5982L20.4783 14.2485ZM21.0839 12.5899C21.0839 12.4689 21.1276 12.3715 21.215 12.2975C21.3024 12.2202 21.4066 12.1816 21.5276 12.1816C21.6519 12.1816 21.7561 12.2202 21.8401 12.2975C21.9275 12.3715 21.9712 12.4689 21.9712 12.5899C21.9712 12.7109 21.9275 12.8101 21.8401 12.8874C21.7561 12.9647 21.6519 13.0033 21.5276 13.0033C21.4066 13.0033 21.3024 12.9647 21.215 12.8874C21.1276 12.8101 21.0839 12.7109 21.0839 12.5899ZM21.1596 13.4621H21.8956V15.781H21.1596V13.4621ZM26.0615 14.2888V15.781H25.2952V14.3695C25.2952 14.2283 25.2717 14.1225 25.2246 14.0519C25.1809 13.9779 25.107 13.941 25.0028 13.941C24.9356 13.941 24.8751 13.9578 24.8213 13.9914C24.7709 14.0216 24.7306 14.0687 24.7003 14.1325C24.6734 14.1964 24.66 14.2754 24.66 14.3695V15.781H23.8937V14.3695C23.8937 14.2283 23.8702 14.1225 23.8232 14.0519C23.7795 13.9779 23.7055 13.941 23.6013 13.941C23.5341 13.941 23.4736 13.9578 23.4199 13.9914C23.3695 14.0216 23.3291 14.0687 23.2989 14.1325C23.272 14.1964 23.2585 14.2754 23.2585 14.3695V15.781H22.5225V13.4621H23.2585V13.8049C23.3224 13.6805 23.4098 13.583 23.5207 13.5125C23.635 13.4419 23.7711 13.4066 23.929 13.4066C24.1105 13.4066 24.255 13.4402 24.3626 13.5074C24.4701 13.5713 24.5474 13.6654 24.5945 13.7897C24.6785 13.6687 24.7827 13.5746 24.907 13.5074C25.0314 13.4402 25.1725 13.4066 25.3305 13.4066C25.512 13.4066 25.6548 13.4419 25.759 13.5125C25.8665 13.5797 25.9438 13.6788 25.9909 13.8099C26.0379 13.941 26.0615 14.1006 26.0615 14.2888ZM27.8375 15.8314C27.5687 15.8314 27.3351 15.7827 27.1368 15.6852C26.9419 15.5844 26.7906 15.4432 26.6831 15.2618C26.5755 15.0803 26.5218 14.8669 26.5218 14.6215C26.5218 14.3728 26.5739 14.1577 26.6781 13.9763C26.7822 13.7948 26.9318 13.6553 27.1267 13.5578C27.325 13.4604 27.5586 13.4116 27.8274 13.4116C28.0963 13.4116 28.3232 13.4587 28.508 13.5528C28.6929 13.6435 28.834 13.7763 28.9315 13.9511C29.0289 14.1258 29.0777 14.3375 29.0777 14.5862C29.0777 14.6232 29.0777 14.6602 29.0777 14.6971C29.0777 14.7308 29.0743 14.7593 29.0676 14.7828H26.9503V14.3594H28.382L28.2005 14.5913C28.2173 14.5678 28.2307 14.5392 28.2408 14.5056C28.2543 14.4686 28.261 14.4384 28.261 14.4148C28.261 14.314 28.2425 14.2266 28.2055 14.1527C28.1686 14.0788 28.1165 14.0216 28.0493 13.9813C27.982 13.941 27.9031 13.9208 27.8123 13.9208C27.6981 13.9208 27.6023 13.946 27.525 13.9964C27.4477 14.0468 27.3889 14.1241 27.3485 14.2283C27.3116 14.3291 27.2914 14.4569 27.288 14.6114C27.288 14.7526 27.3082 14.8736 27.3485 14.9744C27.3889 15.0752 27.4494 15.1525 27.53 15.2063C27.6107 15.2567 27.7098 15.2819 27.8274 15.2819C27.9619 15.2819 28.0761 15.2567 28.1702 15.2063C28.2677 15.1559 28.345 15.0803 28.4021 14.9795L29.0827 15.1458C28.9617 15.3743 28.797 15.5457 28.5887 15.66C28.3837 15.7743 28.1333 15.8314 27.8375 15.8314ZM30.2989 13.4621V15.781H29.5477V13.4621H30.2989ZM30.9693 14.2485C30.929 14.2082 30.8853 14.1762 30.8383 14.1527C30.7946 14.1292 30.7391 14.1174 30.6719 14.1174C30.598 14.1174 30.5324 14.1376 30.4753 14.1779C30.4182 14.2182 30.3745 14.277 30.3442 14.3543C30.314 14.4316 30.2989 14.5257 30.2989 14.6367L30.1174 14.3695C30.1174 14.1846 30.1527 14.0199 30.2232 13.8754C30.2972 13.7309 30.393 13.6167 30.5106 13.5326C30.6282 13.4486 30.7509 13.4066 30.8786 13.4066C30.9626 13.4066 31.0433 13.4234 31.1206 13.457C31.1979 13.4906 31.2567 13.5377 31.297 13.5982L30.9693 14.2485Z" fill="black"/>
</svg>
