<svg width="48" height="38" viewBox="0 0 48 38" fill="none" xmlns="http://www.w3.org/2000/svg">
<path d="M0.757812 11.0292V9.53878C0.757812 8.30402 1.74843 7.30308 2.97046 7.30308H36.1602V2.83168C36.1602 0.841254 38.5479 -0.153166 39.9374 1.25076L47.3129 8.7031C48.1769 9.57623 48.1769 10.9918 47.3129 11.8648L39.9374 19.3172C38.5531 20.7156 36.1602 19.7351 36.1602 17.7363V13.2649H2.97046C1.74843 13.2649 0.757812 12.264 0.757812 11.0292ZM45.7483 25.1887H12.5586V20.7173C12.5586 18.7318 10.1743 17.7289 8.78133 19.1364L1.40584 26.5887C0.541803 27.4618 0.541803 28.8774 1.40584 29.7504L8.78133 37.2028C10.1668 38.6026 12.5586 37.6189 12.5586 35.6219V31.1505H45.7483C46.9703 31.1505 47.9609 30.1496 47.9609 28.9148V27.4244C47.9609 26.1896 46.9703 25.1887 45.7483 25.1887Z" fill="black"/>
</svg>
