<svg width="37" height="22" viewBox="0 0 37 22" fill="none" xmlns="http://www.w3.org/2000/svg">
<path d="M36.5893 15.9335L30.7075 21.6041C30.16 22.132 29.2723 22.132 28.7248 21.6041L22.8429 15.9335C22.2954 15.4056 22.2954 14.5498 22.8429 14.022L23.4752 13.4124C24.0338 12.8739 24.9434 12.8864 25.4858 13.4401C26.3492 14.3215 27.8468 13.7102 27.8468 12.4764V8.5665C27.8468 6.92446 26.5156 5.59332 24.8736 5.59332H16.8907C16.5188 5.59331 16.1622 5.45091 15.8993 5.19745L14.9646 4.29634C14.0814 3.44478 14.7069 1.98886 15.956 1.98886H30.1835C30.9578 1.98886 31.5855 2.59402 31.5855 3.34054V12.4764C31.5855 13.7102 33.0831 14.3215 33.9465 13.4401C34.4889 12.8864 35.3985 12.8739 35.9571 13.4124L36.5894 14.022C37.1369 14.5498 37.1369 15.4057 36.5893 15.9335ZM21.1007 16.8026C20.9705 16.6771 20.8159 16.5775 20.6458 16.5096C20.4757 16.4417 20.2934 16.4067 20.1093 16.4067H12.1265C10.4844 16.4067 9.15322 15.0756 9.15322 13.4335V9.52363C9.15322 8.28983 10.6508 7.67851 11.5142 8.55986C12.0567 9.11353 12.9662 9.12609 13.5249 8.58751L14.1571 7.97802C14.7046 7.45013 14.7046 6.5943 14.1571 6.06647L8.27527 0.395914C7.72772 -0.131971 6.84001 -0.131971 6.29253 0.395914L0.410659 6.06652C-0.136886 6.59441 -0.136886 7.45024 0.410659 7.97807L1.04285 8.58756C1.60144 9.12609 2.51105 9.11359 3.05352 8.55991C3.91692 7.67855 5.41451 8.28987 5.41451 9.52367V18.6595C5.41451 19.406 6.04221 20.0112 6.81653 20.0112H21.044C22.2931 20.0112 22.9186 18.5553 22.0354 17.7037L21.1007 16.8026Z" fill="#BBBBBB"/>
</svg>
