<svg width="43" height="38" viewBox="0 0 43 38" fill="none" xmlns="http://www.w3.org/2000/svg">
<g filter="url(#filter0_d_331_5143)">
<path d="M21.6706 0C12.3984 0 4.88354 6.15089 4.88354 13.7421C4.88354 17.019 6.28684 20.0185 8.62129 22.3771C7.80161 25.7069 5.0606 28.6733 5.02781 28.7064C4.88354 28.8583 4.8442 29.0829 4.92945 29.2811C5.01469 29.4793 5.1983 29.5983 5.40814 29.5983C9.75573 29.5983 13.0148 27.4973 14.6279 26.2024C16.7722 27.015 19.1526 27.4841 21.6706 27.4841C30.9429 27.4841 38.4577 21.3332 38.4577 13.7421C38.4577 6.15089 30.9429 0 21.6706 0Z" fill="white"/>
<path d="M29.2967 16.1177L26.9346 18.3951C26.7147 18.607 26.3582 18.607 26.1383 18.3951L23.7761 16.1177C23.5562 15.9057 23.5562 15.562 23.7761 15.35L24.03 15.1052C24.2544 14.889 24.6197 14.894 24.8375 15.1164C25.1843 15.4703 25.7857 15.2248 25.7857 14.7293V13.1591C25.7857 12.4996 25.2511 11.9651 24.5916 11.9651H21.3857C21.2363 11.965 21.0931 11.9079 20.9875 11.8061L20.6121 11.4442C20.2574 11.1022 20.5087 10.5175 21.0103 10.5175H26.7241C27.0351 10.5175 27.2872 10.7605 27.2872 11.0603V14.7293C27.2872 15.2248 27.8886 15.4703 28.2354 15.1164C28.4532 14.894 28.8185 14.889 29.0429 15.1052L29.2968 15.35C29.5166 15.562 29.5166 15.9057 29.2967 16.1177ZM23.0764 16.4667C23.0241 16.4163 22.9621 16.3764 22.8938 16.3491C22.8254 16.3218 22.7522 16.3078 22.6783 16.3078H19.4723C18.8129 16.3078 18.2783 15.7732 18.2783 15.1137V13.5435C18.2783 13.048 18.8797 12.8025 19.2265 13.1564C19.4443 13.3788 19.8096 13.3838 20.034 13.1675L20.2878 12.9228C20.5077 12.7108 20.5077 12.3671 20.2878 12.1551L17.9257 9.87775C17.7058 9.66575 17.3493 9.66575 17.1294 9.87775L14.7672 12.1551C14.5473 12.3671 14.5473 12.7108 14.7672 12.9228L15.0211 13.1676C15.2454 13.3838 15.6107 13.3788 15.8286 13.1565C16.1753 12.8025 16.7768 13.048 16.7768 13.5435V17.2125C16.7768 17.5123 17.0289 17.7553 17.3398 17.7553H23.0537C23.5553 17.7553 23.8065 17.1706 23.4518 16.8286L23.0764 16.4667Z" fill="black"/>
</g>
<defs>
<filter id="filter0_d_331_5143" x="0.883545" y="0" width="41.5742" height="37.5984" filterUnits="userSpaceOnUse" color-interpolation-filters="sRGB">
<feFlood flood-opacity="0" result="BackgroundImageFix"/>
<feColorMatrix in="SourceAlpha" type="matrix" values="0 0 0 0 0 0 0 0 0 0 0 0 0 0 0 0 0 0 127 0" result="hardAlpha"/>
<feOffset dy="4"/>
<feGaussianBlur stdDeviation="2"/>
<feComposite in2="hardAlpha" operator="out"/>
<feColorMatrix type="matrix" values="0 0 0 0 0 0 0 0 0 0 0 0 0 0 0 0 0 0 0.25 0"/>
<feBlend mode="normal" in2="BackgroundImageFix" result="effect1_dropShadow_331_5143"/>
<feBlend mode="normal" in="SourceGraphic" in2="effect1_dropShadow_331_5143" result="shape"/>
</filter>
</defs>
</svg>
