<svg width="137" height="42" viewBox="0 0 137 42" fill="none" xmlns="http://www.w3.org/2000/svg">
<g filter="url(#filter0_d_331_5148)">
<path d="M23 0C12.5055 0 4 6.96172 4 15.5536C4 19.2625 5.58828 22.6574 8.23047 25.3269C7.30273 29.0956 4.20039 32.4531 4.16328 32.4905C4 32.6625 3.95547 32.9167 4.05195 33.1411C4.14844 33.3654 4.35625 33.5 4.59375 33.5C9.51445 33.5 13.2031 31.1221 15.0289 29.6565C17.4559 30.5762 20.15 31.1071 23 31.1071C33.4945 31.1071 42 24.1454 42 15.5536C42 6.96172 33.4945 0 23 0Z" fill="white"/>
<path d="M23 0H117.39C126.011 0 133 6.9888 133 15.6099V15.6099C133 24.1096 126.11 31 117.61 31H23V0Z" fill="white"/>
<path d="M36.1773 11.6316H37.4195V19H36.1773V11.6316ZM36.9142 12.7263V11.6316H38.3984C38.9387 11.6316 39.4054 11.7263 39.7984 11.9158C40.1914 12.0982 40.4966 12.3614 40.7142 12.7053C40.9387 13.0421 41.051 13.4456 41.051 13.9158C41.051 14.386 40.9387 14.793 40.7142 15.1368C40.4966 15.4807 40.1914 15.7474 39.7984 15.9368C39.4054 16.1193 38.9387 16.2105 38.3984 16.2105H36.9142V15.1158H38.3984C38.8265 15.1158 39.1703 15.014 39.43 14.8105C39.6896 14.607 39.8195 14.3088 39.8195 13.9158C39.8195 13.5228 39.6896 13.2281 39.43 13.0316C39.1703 12.8281 38.8265 12.7263 38.3984 12.7263H36.9142ZM41.481 16.5789C41.481 16.0807 41.5933 15.6421 41.8179 15.2632C42.0495 14.8842 42.3617 14.5895 42.7547 14.3789C43.1547 14.1614 43.6003 14.0526 44.0916 14.0526C44.5898 14.0526 45.0354 14.1614 45.4284 14.3789C45.8214 14.5895 46.1302 14.8842 46.3547 15.2632C46.5863 15.6421 46.7021 16.0807 46.7021 16.5789C46.7021 17.0702 46.5863 17.5088 46.3547 17.8947C46.1302 18.2737 45.8214 18.5719 45.4284 18.7895C45.0354 19 44.5898 19.1053 44.0916 19.1053C43.6003 19.1053 43.1547 19 42.7547 18.7895C42.3617 18.5719 42.0495 18.2737 41.8179 17.8947C41.5933 17.5088 41.481 17.0702 41.481 16.5789ZM42.6495 16.5789C42.6495 16.8807 42.7126 17.1474 42.8389 17.3789C42.9653 17.6035 43.1372 17.7825 43.3547 17.9158C43.5723 18.0421 43.8179 18.1053 44.0916 18.1053C44.3653 18.1053 44.6109 18.0421 44.8284 17.9158C45.046 17.7825 45.2179 17.6035 45.3442 17.3789C45.4705 17.1474 45.5337 16.8807 45.5337 16.5789C45.5337 16.2772 45.4705 16.0105 45.3442 15.7789C45.2179 15.5474 45.046 15.3684 44.8284 15.2421C44.6109 15.1158 44.3653 15.0526 44.0916 15.0526C43.8179 15.0526 43.5723 15.1158 43.3547 15.2421C43.1372 15.3684 42.9653 15.5474 42.8389 15.7789C42.7126 16.0105 42.6495 16.2772 42.6495 16.5789ZM48.0121 17.4C48.1735 17.5754 48.3314 17.7228 48.4858 17.8421C48.6402 17.9614 48.7981 18.0526 48.9595 18.1158C49.1209 18.1789 49.2823 18.2105 49.4437 18.2105C49.6472 18.2105 49.8051 18.1649 49.9174 18.0737C50.0367 17.9825 50.0963 17.8561 50.0963 17.6947C50.0963 17.5544 50.0507 17.4351 49.9595 17.3368C49.8683 17.2316 49.742 17.1439 49.5806 17.0737C49.4191 16.9965 49.2297 16.9193 49.0121 16.8421C48.7946 16.7579 48.577 16.6596 48.3595 16.5474C48.149 16.4281 47.9735 16.2737 47.8332 16.0842C47.6998 15.8947 47.6332 15.6561 47.6332 15.3684C47.6332 15.0737 47.7069 14.8281 47.8542 14.6316C48.0086 14.4351 48.2121 14.2912 48.4648 14.2C48.7244 14.1018 49.0016 14.0526 49.2963 14.0526C49.563 14.0526 49.8121 14.0912 50.0437 14.1684C50.2823 14.2456 50.4963 14.3474 50.6858 14.4737C50.8753 14.6 51.0367 14.7439 51.17 14.9053L50.5384 15.5789C50.3841 15.3895 50.1946 15.2351 49.97 15.1158C49.7455 14.9965 49.5139 14.9368 49.2753 14.9368C49.1069 14.9368 48.97 14.9719 48.8648 15.0421C48.7595 15.1123 48.7069 15.214 48.7069 15.3474C48.7069 15.4596 48.7525 15.5614 48.8437 15.6526C48.942 15.7368 49.0683 15.814 49.2227 15.8842C49.3841 15.9544 49.563 16.0281 49.7595 16.1053C50.0332 16.2105 50.2823 16.3263 50.5069 16.4526C50.7314 16.5789 50.9104 16.7333 51.0437 16.9158C51.177 17.0982 51.2437 17.3368 51.2437 17.6316C51.2437 18.0877 51.0858 18.4561 50.77 18.7368C50.4613 19.0105 50.0437 19.1474 49.5174 19.1474C49.1806 19.1474 48.8753 19.0982 48.6016 19C48.3279 18.8947 48.0858 18.7614 47.8753 18.6C47.6648 18.4316 47.4893 18.2561 47.349 18.0737L48.0121 17.4ZM51.5787 14.1579H54.3261V15.1579H51.5787V14.1579ZM52.3998 12.4737H53.5156V19H52.3998V12.4737ZM57.2154 19.1053C56.7242 19.1053 56.2891 19 55.9102 18.7895C55.5382 18.5789 55.2505 18.2842 55.047 17.9053C54.8435 17.5263 54.7417 17.0842 54.7417 16.5789C54.7417 16.0667 54.8435 15.6211 55.047 15.2421C55.2575 14.8632 55.5523 14.5719 55.9312 14.3684C56.3102 14.1579 56.7558 14.0526 57.2681 14.0526C57.7803 14.0526 58.2154 14.1509 58.5733 14.3474C58.9382 14.5439 59.2154 14.8281 59.4049 15.2C59.5944 15.5649 59.6891 16.007 59.6891 16.5263C59.6891 16.5825 59.6856 16.6421 59.6786 16.7053C59.6786 16.7684 59.6786 16.814 59.6786 16.8421H55.4259V16.0526H58.6996L58.3523 16.5368C58.3733 16.4947 58.3944 16.4386 58.4154 16.3684C58.4435 16.2982 58.4575 16.2386 58.4575 16.1895C58.4575 15.9298 58.4049 15.7053 58.2996 15.5158C58.2014 15.3263 58.061 15.1789 57.8786 15.0737C57.7031 14.9684 57.4961 14.9158 57.2575 14.9158C56.9698 14.9158 56.7242 14.9789 56.5207 15.1053C56.3242 15.2316 56.1698 15.414 56.0575 15.6526C55.9523 15.8912 55.8996 16.186 55.8996 16.5368C55.8926 16.8807 55.9417 17.1754 56.047 17.4211C56.1593 17.6667 56.3172 17.8526 56.5207 17.9789C56.7242 18.1053 56.9733 18.1684 57.2681 18.1684C57.5838 18.1684 57.8575 18.1053 58.0891 17.9789C58.3207 17.8526 58.5102 17.6596 58.6575 17.4L59.647 17.7895C59.3874 18.2246 59.0575 18.5544 58.6575 18.7789C58.2575 18.9965 57.7768 19.1053 57.2154 19.1053ZM61.9108 14.1579V19H60.7845V14.1579H61.9108ZM63.3529 15.3684C63.2547 15.2842 63.1564 15.2211 63.0582 15.1789C62.967 15.1368 62.8512 15.1158 62.7108 15.1158C62.5213 15.1158 62.367 15.1649 62.2477 15.2632C62.1284 15.3614 62.0406 15.4982 61.9845 15.6737C61.9354 15.8421 61.9108 16.0421 61.9108 16.2737L61.5319 16.0526C61.5319 15.6667 61.602 15.3263 61.7424 15.0316C61.8898 14.7298 62.0757 14.4912 62.3003 14.3158C62.5319 14.1333 62.7705 14.0421 63.0161 14.0421C63.1915 14.0421 63.3564 14.0702 63.5108 14.1263C63.6652 14.1825 63.7985 14.2772 63.9108 14.4105L63.3529 15.3684ZM67.8466 10.7895H68.994V19H67.8466V10.7895ZM72.5423 19.1053C72.0511 19.1053 71.616 19 71.237 18.7895C70.8651 18.5789 70.5774 18.2842 70.3739 17.9053C70.1704 17.5263 70.0686 17.0842 70.0686 16.5789C70.0686 16.0667 70.1704 15.6211 70.3739 15.2421C70.5844 14.8632 70.8792 14.5719 71.2581 14.3684C71.637 14.1579 72.0827 14.0526 72.5949 14.0526C73.1072 14.0526 73.5423 14.1509 73.9002 14.3474C74.2651 14.5439 74.5423 14.8281 74.7318 15.2C74.9213 15.5649 75.016 16.007 75.016 16.5263C75.016 16.5825 75.0125 16.6421 75.0055 16.7053C75.0055 16.7684 75.0055 16.814 75.0055 16.8421H70.7528V16.0526H74.0265L73.6792 16.5368C73.7002 16.4947 73.7213 16.4386 73.7423 16.3684C73.7704 16.2982 73.7844 16.2386 73.7844 16.1895C73.7844 15.9298 73.7318 15.7053 73.6265 15.5158C73.5283 15.3263 73.3879 15.1789 73.2055 15.0737C73.03 14.9684 72.823 14.9158 72.5844 14.9158C72.2967 14.9158 72.0511 14.9789 71.8476 15.1053C71.6511 15.2316 71.4967 15.414 71.3844 15.6526C71.2792 15.8912 71.2265 16.186 71.2265 16.5368C71.2195 16.8807 71.2686 17.1754 71.3739 17.4211C71.4862 17.6667 71.6441 17.8526 71.8476 17.9789C72.0511 18.1053 72.3002 18.1684 72.5949 18.1684C72.9107 18.1684 73.1844 18.1053 73.416 17.9789C73.6476 17.8526 73.837 17.6596 73.9844 17.4L74.9739 17.7895C74.7142 18.2246 74.3844 18.5544 73.9844 18.7789C73.5844 18.9965 73.1037 19.1053 72.5423 19.1053ZM79.8462 16.6211C80.0076 16.9088 80.1795 17.1579 80.362 17.3684C80.5514 17.5789 80.7585 17.7439 80.983 17.8632C81.2146 17.9825 81.4672 18.0421 81.7409 18.0421C82.0778 18.0421 82.3514 17.9509 82.562 17.7684C82.7725 17.586 82.8778 17.3474 82.8778 17.0526C82.8778 16.786 82.8111 16.5719 82.6778 16.4105C82.5514 16.2421 82.369 16.1018 82.1304 15.9895C81.8918 15.8702 81.6181 15.7544 81.3093 15.6421C81.1269 15.5789 80.9234 15.4947 80.6988 15.3895C80.4742 15.2772 80.2602 15.1404 80.0567 14.9789C79.8532 14.8105 79.6848 14.607 79.5514 14.3684C79.4181 14.1228 79.3514 13.8281 79.3514 13.4842C79.3514 13.0912 79.4532 12.7474 79.6567 12.4526C79.8602 12.1509 80.1339 11.9158 80.4778 11.7474C80.8286 11.5789 81.2251 11.4947 81.6672 11.4947C82.1023 11.4947 82.4813 11.5754 82.8041 11.7368C83.1269 11.8912 83.4006 12.0877 83.6251 12.3263C83.8497 12.5649 84.0216 12.814 84.1409 13.0737L83.1409 13.6421C83.0427 13.4596 82.9234 13.2912 82.783 13.1368C82.6427 12.9754 82.4778 12.8491 82.2883 12.7579C82.1058 12.6596 81.8918 12.6105 81.6462 12.6105C81.3023 12.6105 81.0497 12.6912 80.8883 12.8526C80.7269 13.007 80.6462 13.1895 80.6462 13.4C80.6462 13.5895 80.7023 13.7614 80.8146 13.9158C80.9339 14.0632 81.1164 14.2035 81.362 14.3368C81.6076 14.4702 81.9269 14.607 82.3199 14.7474C82.5444 14.8246 82.7655 14.9228 82.983 15.0421C83.2076 15.1614 83.4076 15.3088 83.583 15.4842C83.7655 15.6596 83.9128 15.8702 84.0251 16.1158C84.1374 16.3544 84.1935 16.6351 84.1935 16.9579C84.1935 17.3018 84.1234 17.6105 83.983 17.8842C83.8497 18.1579 83.6672 18.3895 83.4356 18.5789C83.2041 18.7614 82.9409 18.9018 82.6462 19C82.3585 19.1053 82.0567 19.1579 81.7409 19.1579C81.3128 19.1579 80.9128 19.0737 80.5409 18.9053C80.176 18.7298 79.8532 18.4982 79.5725 18.2105C79.2988 17.9228 79.0813 17.6105 78.9199 17.2737L79.8462 16.6211ZM84.6367 14.1579H85.8788L87.0051 17.0316L88.3525 13.7895L89.763 17.0526L90.8999 14.1579H92.142L89.8788 19.3368L88.3525 16.0737L86.8999 19.3368L84.6367 14.1579ZM93.5829 17.4947C93.5829 17.6561 93.6215 17.7965 93.6987 17.9158C93.7759 18.0281 93.8812 18.1123 94.0145 18.1684C94.1549 18.2246 94.3128 18.2526 94.4882 18.2526C94.7198 18.2526 94.9268 18.207 95.1093 18.1158C95.2987 18.0175 95.4496 17.8807 95.5619 17.7053C95.6742 17.5298 95.7303 17.3193 95.7303 17.0737L95.8987 17.7053C95.8987 18.014 95.8075 18.2737 95.625 18.4842C95.4496 18.6947 95.225 18.8526 94.9514 18.9579C94.6847 19.0561 94.411 19.1053 94.1303 19.1053C93.8286 19.1053 93.5478 19.0456 93.2882 18.9263C93.0286 18.807 92.8215 18.6316 92.6671 18.4C92.5128 18.1684 92.4356 17.8877 92.4356 17.5579C92.4356 17.0877 92.6005 16.7158 92.9303 16.4421C93.2601 16.1614 93.7268 16.0211 94.3303 16.0211C94.6531 16.0211 94.9303 16.0561 95.1619 16.1263C95.4005 16.1965 95.597 16.2807 95.7514 16.3789C95.9057 16.4702 96.0145 16.5544 96.0777 16.6316V17.2105C95.8601 17.0561 95.6286 16.9439 95.3829 16.8737C95.1373 16.8035 94.8777 16.7684 94.604 16.7684C94.3654 16.7684 94.1724 16.8 94.025 16.8632C93.8777 16.9193 93.7654 17 93.6882 17.1053C93.618 17.2105 93.5829 17.3404 93.5829 17.4947ZM93.225 15.4211L92.7619 14.6211C92.9864 14.4877 93.2707 14.3579 93.6145 14.2316C93.9584 14.1053 94.3584 14.0421 94.8145 14.0421C95.2075 14.0421 95.5584 14.1018 95.8671 14.2211C96.1759 14.3333 96.4145 14.5018 96.5829 14.7263C96.7584 14.9509 96.8461 15.2246 96.8461 15.5474V19H95.7303V15.7684C95.7303 15.614 95.7057 15.4877 95.6566 15.3895C95.6075 15.2912 95.5338 15.2105 95.4356 15.1474C95.3443 15.0842 95.2356 15.0386 95.1093 15.0105C94.9829 14.9825 94.8461 14.9684 94.6987 14.9684C94.4742 14.9684 94.2601 14.9965 94.0566 15.0526C93.8601 15.1018 93.6917 15.1649 93.5514 15.2421C93.411 15.3123 93.3022 15.3719 93.225 15.4211ZM99.2767 21.3158H98.1293V14.1579H99.2767V21.3158ZM103.287 16.5789C103.287 17.1123 103.178 17.5719 102.961 17.9579C102.743 18.3368 102.456 18.6281 102.098 18.8316C101.74 19.0281 101.35 19.1263 100.929 19.1263C100.522 19.1263 100.164 19.0246 99.8556 18.8211C99.5539 18.6105 99.3188 18.3158 99.1504 17.9368C98.9819 17.5509 98.8977 17.0982 98.8977 16.5789C98.8977 16.0526 98.9819 15.6 99.1504 15.2211C99.3188 14.8421 99.5539 14.5474 99.8556 14.3368C100.164 14.1263 100.522 14.0211 100.929 14.0211C101.35 14.0211 101.74 14.1228 102.098 14.3263C102.456 14.5298 102.743 14.8211 102.961 15.2C103.178 15.5719 103.287 16.0316 103.287 16.5789ZM102.108 16.5789C102.108 16.2561 102.042 15.9825 101.908 15.7579C101.775 15.5263 101.599 15.3544 101.382 15.2421C101.164 15.1228 100.922 15.0632 100.656 15.0632C100.431 15.0632 100.214 15.1228 100.003 15.2421C99.7925 15.3544 99.617 15.5228 99.4767 15.7474C99.3434 15.9719 99.2767 16.2491 99.2767 16.5789C99.2767 16.9088 99.3434 17.186 99.4767 17.4105C99.617 17.6351 99.7925 17.807 100.003 17.9263C100.214 18.0386 100.431 18.0947 100.656 18.0947C100.922 18.0947 101.164 18.0351 101.382 17.9158C101.599 17.7965 101.775 17.6246 101.908 17.4C102.042 17.1754 102.108 16.9018 102.108 16.5789Z" fill="black"/>
</g>
<defs>
<filter id="filter0_d_331_5148" x="0" y="0" width="137" height="41.5" filterUnits="userSpaceOnUse" color-interpolation-filters="sRGB">
<feFlood flood-opacity="0" result="BackgroundImageFix"/>
<feColorMatrix in="SourceAlpha" type="matrix" values="0 0 0 0 0 0 0 0 0 0 0 0 0 0 0 0 0 0 127 0" result="hardAlpha"/>
<feOffset dy="4"/>
<feGaussianBlur stdDeviation="2"/>
<feComposite in2="hardAlpha" operator="out"/>
<feColorMatrix type="matrix" values="0 0 0 0 0 0 0 0 0 0 0 0 0 0 0 0 0 0 0.25 0"/>
<feBlend mode="normal" in2="BackgroundImageFix" result="effect1_dropShadow_331_5148"/>
<feBlend mode="normal" in="SourceGraphic" in2="effect1_dropShadow_331_5148" result="shape"/>
</filter>
</defs>
</svg>
