<svg width="203" height="180" viewBox="0 0 203 180" fill="none" xmlns="http://www.w3.org/2000/svg">
<path d="M101.5 0.637451C45.4371 0.637451 0 37.8277 0 83.7263C0 103.54 8.48477 121.675 22.5996 135.936C17.6436 156.069 1.07051 174.005 0.872266 174.205C0 175.124 -0.237891 176.482 0.277539 177.681C0.792969 178.879 1.90312 179.598 3.17188 179.598C29.4588 179.598 49.1641 166.895 58.9176 159.065C71.8826 163.979 86.275 166.815 101.5 166.815C157.563 166.815 203 129.625 203 83.7263C203 37.8277 157.563 0.637451 101.5 0.637451Z" fill="white"/>
<path class="secondPath" d="M147.61 98.0904L133.328 111.86C131.998 113.142 129.843 113.142 128.513 111.86L114.231 98.0904C112.901 96.8086 112.901 94.7304 114.231 93.4487L115.766 91.9686C117.122 90.6609 119.331 90.6913 120.648 92.0359V92.0359C122.745 94.176 126.381 92.6916 126.381 89.6957V80.2016C126.381 76.2143 123.149 72.982 119.161 72.982H99.7771C98.8742 72.982 98.0083 72.6362 97.3697 72.0208L95.1001 69.8326C92.9555 67.7649 94.4744 64.2296 97.5075 64.2296H132.055C133.935 64.2296 135.459 65.699 135.459 67.5117V89.6956C135.459 92.6916 139.096 94.176 141.193 92.0359V92.0359C142.51 90.6914 144.718 90.6609 146.075 91.9686L147.61 93.4487C148.94 94.7304 148.94 96.8087 147.61 98.0904ZM110 100.201C109.684 99.8959 109.309 99.6541 108.895 99.4892C108.482 99.3243 108.04 99.2394 107.593 99.2394H88.2085C84.2212 99.2394 80.9888 96.0071 80.9888 92.0197V82.5257C80.9888 79.5298 84.6253 78.0453 86.7219 80.1854V80.1854C88.0391 81.5299 90.2477 81.5604 91.6042 80.2526L93.1393 78.7726C94.4689 77.4908 94.4689 75.4126 93.1393 74.1309L78.8569 60.3615C77.5274 59.0797 75.3718 59.0797 74.0424 60.3615L59.7599 74.1311C58.4303 75.4129 58.4303 77.491 59.7599 78.7727L61.295 80.2527C62.6514 81.5604 64.8601 81.53 66.1773 80.1856V80.1856C68.2739 78.0454 71.9104 79.5298 71.9104 82.5258V104.71C71.9104 106.522 73.4346 107.992 75.3148 107.992H109.862C112.895 107.992 114.414 104.457 112.27 102.389L110 100.201Z" fill="black"/>
</svg>
