<svg width="212" height="185" viewBox="0 0 212 185" fill="none" xmlns="http://www.w3.org/2000/svg">
<path d="M106.34 0.067627C48.092 0.067627 0.883545 38.4193 0.883545 85.7514C0.883545 106.184 9.69908 124.886 24.3642 139.592C19.2149 160.354 1.99579 178.85 1.78982 179.056C0.883545 180.003 0.63638 181.404 1.1719 182.64C1.70743 183.876 2.86086 184.617 4.17907 184.617C31.4908 184.617 51.9642 171.518 62.098 163.443C75.5685 168.51 90.5219 171.435 106.34 171.435C164.589 171.435 211.797 133.083 211.797 85.7514C211.797 38.4193 164.589 0.067627 106.34 0.067627Z" fill="white"/>
<path class="secondPath" d="M86.6603 110.206C86.6603 111.571 87.2026 112.88 88.1677 113.845C89.1329 114.811 90.442 115.353 91.807 115.353H122.687C124.052 115.353 125.361 114.811 126.326 113.845C127.291 112.88 127.833 111.571 127.833 110.206V74.1799H86.6603V110.206ZM115.825 82.7576C115.825 82.3026 116.005 81.8663 116.327 81.5445C116.649 81.2228 117.085 81.0421 117.54 81.0421C117.995 81.0421 118.431 81.2228 118.753 81.5445C119.075 81.8663 119.256 82.3026 119.256 82.7576V106.775C119.256 107.23 119.075 107.667 118.753 107.988C118.431 108.31 117.995 108.491 117.54 108.491C117.085 108.491 116.649 108.31 116.327 107.988C116.005 107.667 115.825 107.23 115.825 106.775V82.7576ZM105.531 82.7576C105.531 82.3026 105.712 81.8663 106.034 81.5445C106.355 81.2228 106.792 81.0421 107.247 81.0421C107.702 81.0421 108.138 81.2228 108.46 81.5445C108.782 81.8663 108.962 82.3026 108.962 82.7576V106.775C108.962 107.23 108.782 107.667 108.46 107.988C108.138 108.31 107.702 108.491 107.247 108.491C106.792 108.491 106.355 108.31 106.034 107.988C105.712 107.667 105.531 107.23 105.531 106.775V82.7576ZM95.238 82.7576C95.238 82.3026 95.4188 81.8663 95.7405 81.5445C96.0622 81.2228 96.4986 81.0421 96.9536 81.0421C97.4086 81.0421 97.8449 81.2228 98.1666 81.5445C98.4884 81.8663 98.6691 82.3026 98.6691 82.7576V106.775C98.6691 107.23 98.4884 107.667 98.1666 107.988C97.8449 108.31 97.4086 108.491 96.9536 108.491C96.4986 108.491 96.0622 108.31 95.7405 107.988C95.4188 107.667 95.238 107.23 95.238 106.775V82.7576ZM129.549 63.8867H116.682L115.674 61.8816C115.461 61.453 115.132 61.0924 114.725 60.8405C114.318 60.5885 113.848 60.4552 113.369 60.4556H101.114C100.636 60.4537 100.167 60.5865 99.7615 60.8388C99.3557 61.091 99.0291 61.4524 98.8192 61.8816L97.8113 63.8867H84.9448C84.4898 63.8867 84.0534 64.0674 83.7317 64.3891C83.41 64.7109 83.2292 65.1472 83.2292 65.6022V69.0333C83.2292 69.4883 83.41 69.9246 83.7317 70.2464C84.0534 70.5681 84.4898 70.7488 84.9448 70.7488H129.549C130.004 70.7488 130.44 70.5681 130.762 70.2464C131.084 69.9246 131.264 69.4883 131.264 69.0333V65.6022C131.264 65.1472 131.084 64.7109 130.762 64.3891C130.44 64.0674 130.004 63.8867 129.549 63.8867Z" fill="black"/>
</svg>
