<svg width="127" height="145" viewBox="0 0 127 145" fill="none" xmlns="http://www.w3.org/2000/svg">
<path d="M9.0625 131.406C9.0625 135.012 10.4947 138.469 13.044 141.018C15.5933 143.568 19.051 145 22.6562 145H104.219C107.824 145 111.282 143.568 113.831 141.018C116.38 138.469 117.812 135.012 117.812 131.406V36.25H9.0625V131.406ZM86.0937 58.9063C86.0937 57.7045 86.5711 56.552 87.4209 55.7022C88.2707 54.8524 89.4232 54.375 90.625 54.375C91.8267 54.375 92.9793 54.8524 93.8291 55.7022C94.6788 56.552 95.1562 57.7045 95.1562 58.9063V122.344C95.1562 123.546 94.6788 124.698 93.8291 125.548C92.9793 126.398 91.8267 126.875 90.625 126.875C89.4232 126.875 88.2707 126.398 87.4209 125.548C86.5711 124.698 86.0937 123.546 86.0937 122.344V58.9063ZM58.9062 58.9063C58.9062 57.7045 59.3836 56.552 60.2334 55.7022C61.0832 54.8524 62.2357 54.375 63.4375 54.375C64.6392 54.375 65.7918 54.8524 66.6416 55.7022C67.4913 56.552 67.9687 57.7045 67.9687 58.9063V122.344C67.9687 123.546 67.4913 124.698 66.6416 125.548C65.7918 126.398 64.6392 126.875 63.4375 126.875C62.2357 126.875 61.0832 126.398 60.2334 125.548C59.3836 124.698 58.9062 123.546 58.9062 122.344V58.9063ZM31.7187 58.9063C31.7187 57.7045 32.1961 56.552 33.0459 55.7022C33.8957 54.8524 35.0482 54.375 36.25 54.375C37.4518 54.375 38.6043 54.8524 39.4541 55.7022C40.3038 56.552 40.7812 57.7045 40.7812 58.9063V122.344C40.7812 123.546 40.3038 124.698 39.4541 125.548C38.6043 126.398 37.4518 126.875 36.25 126.875C35.0482 126.875 33.8957 126.398 33.0459 125.548C32.1961 124.698 31.7187 123.546 31.7187 122.344V58.9063ZM122.344 9.06255H88.3593L85.6972 3.76665C85.1333 2.63444 84.2647 1.68206 83.189 1.01663C82.1133 0.351205 80.8732 -0.000857529 79.6084 4.96532e-05H47.2383C45.9763 -0.00480177 44.7384 0.345948 43.6665 1.01211C42.5946 1.67828 41.7321 2.63292 41.1777 3.76665L38.5156 9.06255H4.53125C3.32949 9.06255 2.17695 9.53994 1.32717 10.3897C0.477398 11.2395 0 12.392 0 13.5938L0 22.6563C0 23.8581 0.477398 25.0106 1.32717 25.8604C2.17695 26.7101 3.32949 27.1875 4.53125 27.1875H122.344C123.545 27.1875 124.698 26.7101 125.548 25.8604C126.398 25.0106 126.875 23.8581 126.875 22.6563V13.5938C126.875 12.392 126.398 11.2395 125.548 10.3897C124.698 9.53994 123.545 9.06255 122.344 9.06255Z" fill="black"/>
</svg>
