<svg width="251" height="250" viewBox="0 0 251 250" fill="none" xmlns="http://www.w3.org/2000/svg">
<path d="M181.674 65.1366C166.418 50.8522 146.621 43.022 125.617 43.0405C87.8189 43.0737 55.1871 68.9908 46.1774 104.942C45.5215 107.559 43.1899 109.407 40.4918 109.407H12.5286C8.8697 109.407 6.09012 106.085 6.76696 102.489C17.3256 46.4194 66.5538 4.00146 125.692 4.00146C158.118 4.00146 187.564 16.7555 209.291 37.5189L226.72 20.0904C234.098 12.7125 246.713 17.9379 246.713 28.3721V93.7913C246.713 100.26 241.469 105.503 235.001 105.503H169.582C159.148 105.503 153.922 92.888 161.3 85.5097L181.674 65.1366ZM16.3823 144.542H81.8015C92.2357 144.542 97.461 157.157 90.0832 164.535L69.7096 184.909C84.9651 199.194 104.764 207.024 125.768 207.005C163.547 206.971 196.192 181.071 205.206 145.104C205.862 142.487 208.193 140.639 210.891 140.639H238.855C242.514 140.639 245.294 143.961 244.617 147.557C234.058 203.626 184.829 246.044 125.692 246.044C93.2658 246.044 63.8191 233.29 42.0919 212.526L24.6634 229.955C17.2855 237.333 4.67056 232.107 4.67056 221.673V156.254C4.67056 149.786 9.914 144.542 16.3823 144.542Z" fill="#32373B"/>
</svg>
