<svg width="343" height="343" viewBox="0 0 343 343" fill="none" xmlns="http://www.w3.org/2000/svg">
<rect width="343" height="343" fill="#1E1E1E"/>
<g id="Notif Panel" clip-path="url(#clip0_0_1)">
<rect width="1920" height="1080" transform="translate(-808 -188)" fill="white"/>
<g id="Profilss">
<rect x="-727" y="-30" width="1765" height="389" rx="30" fill="#EDEDED"/>
<g id="Demandes accept&#195;&#169;es" filter="url(#filter0_d_0_1)">
<rect id="Rectangle 32" x="-178" y="223" width="224" height="107" rx="20" fill="white"/>
<path id="Demandes accept&#195;&#169;es_2" d="M-159.505 319V304.48H-155.465C-154.025 304.48 -152.798 304.7 -151.785 305.14C-150.772 305.58 -149.958 306.16 -149.345 306.88C-148.718 307.6 -148.265 308.4 -147.985 309.28C-147.692 310.16 -147.545 311.047 -147.545 311.94C-147.545 313.02 -147.738 313.993 -148.125 314.86C-148.512 315.727 -149.038 316.473 -149.705 317.1C-150.372 317.713 -151.138 318.187 -152.005 318.52C-152.872 318.84 -153.792 319 -154.765 319H-159.505ZM-157.365 316.94H-155.165C-154.378 316.94 -153.658 316.827 -153.005 316.6C-152.338 316.373 -151.765 316.04 -151.285 315.6C-150.792 315.16 -150.412 314.62 -150.145 313.98C-149.878 313.34 -149.745 312.607 -149.745 311.78C-149.745 310.887 -149.898 310.113 -150.205 309.46C-150.498 308.793 -150.892 308.247 -151.385 307.82C-151.878 307.38 -152.432 307.06 -153.045 306.86C-153.645 306.647 -154.258 306.54 -154.885 306.54H-157.365V316.94ZM-140.888 319.2C-141.862 319.2 -142.695 319.013 -143.388 318.64C-144.082 318.253 -144.615 317.727 -144.988 317.06C-145.362 316.38 -145.548 315.607 -145.548 314.74C-145.548 313.913 -145.342 313.167 -144.928 312.5C-144.502 311.82 -143.935 311.28 -143.228 310.88C-142.508 310.48 -141.715 310.28 -140.848 310.28C-139.728 310.28 -138.802 310.607 -138.068 311.26C-137.322 311.913 -136.822 312.827 -136.568 314L-143.388 316.36L-143.868 315.16L-138.408 313.2L-138.828 313.46C-138.988 313.047 -139.242 312.687 -139.588 312.38C-139.935 312.06 -140.408 311.9 -141.008 311.9C-141.488 311.9 -141.922 312.02 -142.308 312.26C-142.682 312.487 -142.982 312.807 -143.208 313.22C-143.422 313.62 -143.528 314.093 -143.528 314.64C-143.528 315.2 -143.415 315.693 -143.188 316.12C-142.948 316.533 -142.628 316.86 -142.228 317.1C-141.815 317.34 -141.355 317.46 -140.848 317.46C-140.488 317.46 -140.148 317.393 -139.828 317.26C-139.495 317.127 -139.182 316.96 -138.888 316.76L-137.948 318.28C-138.388 318.56 -138.868 318.787 -139.388 318.96C-139.895 319.12 -140.395 319.2 -140.888 319.2ZM-132.441 310.62L-132.261 312.42L-132.341 312.28C-132.021 311.653 -131.581 311.167 -131.021 310.82C-130.461 310.46 -129.815 310.28 -129.081 310.28C-128.628 310.28 -128.221 310.353 -127.861 310.5C-127.488 310.647 -127.181 310.853 -126.941 311.12C-126.701 311.387 -126.548 311.72 -126.481 312.12L-126.581 312.18C-126.248 311.593 -125.808 311.133 -125.261 310.8C-124.701 310.453 -124.108 310.28 -123.481 310.28C-122.668 310.28 -122.021 310.513 -121.541 310.98C-121.048 311.447 -120.795 312.047 -120.781 312.78V319H-122.821V313.56C-122.835 313.147 -122.935 312.8 -123.121 312.52C-123.295 312.24 -123.608 312.087 -124.061 312.06C-124.541 312.06 -124.968 312.207 -125.341 312.5C-125.701 312.793 -125.981 313.173 -126.181 313.64C-126.381 314.107 -126.488 314.607 -126.501 315.14V319H-128.561V313.56C-128.575 313.147 -128.675 312.8 -128.861 312.52C-129.048 312.24 -129.375 312.087 -129.841 312.06C-130.321 312.06 -130.741 312.207 -131.101 312.5C-131.461 312.793 -131.741 313.18 -131.941 313.66C-132.128 314.127 -132.221 314.62 -132.221 315.14V319H-134.281V310.62H-132.441ZM-114.121 319.2C-114.908 319.2 -115.621 319.04 -116.261 318.72C-116.901 318.387 -117.408 317.893 -117.781 317.24C-118.155 316.587 -118.341 315.78 -118.341 314.82C-118.341 313.873 -118.148 313.06 -117.761 312.38C-117.361 311.7 -116.841 311.18 -116.201 310.82C-115.548 310.447 -114.841 310.26 -114.081 310.26C-113.281 310.26 -112.628 310.433 -112.121 310.78C-111.601 311.113 -111.195 311.507 -110.901 311.96L-111.041 312.28L-110.841 310.62H-108.941V319H-111.001V316.9L-110.781 317.4C-110.835 317.507 -110.948 317.66 -111.121 317.86C-111.295 318.047 -111.528 318.247 -111.821 318.46C-112.101 318.673 -112.435 318.853 -112.821 319C-113.195 319.133 -113.628 319.2 -114.121 319.2ZM-113.561 317.52C-113.121 317.52 -112.728 317.44 -112.381 317.28C-112.035 317.12 -111.741 316.893 -111.501 316.6C-111.261 316.307 -111.095 315.96 -111.001 315.56V313.82C-111.108 313.447 -111.288 313.127 -111.541 312.86C-111.795 312.58 -112.101 312.36 -112.461 312.2C-112.808 312.04 -113.195 311.96 -113.621 311.96C-114.101 311.96 -114.541 312.08 -114.941 312.32C-115.341 312.547 -115.661 312.867 -115.901 313.28C-116.141 313.693 -116.261 314.173 -116.261 314.72C-116.261 315.24 -116.141 315.713 -115.901 316.14C-115.648 316.567 -115.315 316.907 -114.901 317.16C-114.488 317.4 -114.041 317.52 -113.561 317.52ZM-103.945 310.62L-103.765 312.54L-103.845 312.28C-103.565 311.68 -103.132 311.2 -102.545 310.84C-101.959 310.467 -101.265 310.28 -100.465 310.28C-99.6786 310.28 -99.0319 310.513 -98.5252 310.98C-98.0052 311.447 -97.7386 312.053 -97.7252 312.8V319H-99.7852V313.52C-99.7986 313.093 -99.9252 312.747 -100.165 312.48C-100.405 312.2 -100.779 312.053 -101.285 312.04C-101.739 312.04 -102.152 312.18 -102.525 312.46C-102.899 312.727 -103.192 313.093 -103.405 313.56C-103.619 314.027 -103.725 314.567 -103.725 315.18V319H-105.785V310.62H-103.945ZM-91.1543 319.2C-91.941 319.2 -92.6476 319.02 -93.2743 318.66C-93.901 318.287 -94.3943 317.76 -94.7543 317.08C-95.1143 316.4 -95.2943 315.607 -95.2943 314.7C-95.2943 313.767 -95.101 312.973 -94.7143 312.32C-94.3276 311.653 -93.8076 311.147 -93.1543 310.8C-92.4876 310.44 -91.741 310.26 -90.9143 310.26C-90.2743 310.26 -89.6676 310.393 -89.0943 310.66C-88.5076 310.913 -88.0543 311.273 -87.7343 311.74L-87.7943 312.44V303.46H-85.7543V319H-87.8143V317.02L-87.5943 317.56C-88.0076 318.027 -88.5143 318.42 -89.1143 318.74C-89.7143 319.047 -90.3943 319.2 -91.1543 319.2ZM-90.5143 317.46C-90.0476 317.46 -89.6343 317.38 -89.2743 317.22C-88.9143 317.06 -88.6076 316.833 -88.3543 316.54C-88.101 316.233 -87.921 315.88 -87.8143 315.48V313.8C-87.9076 313.427 -88.0876 313.1 -88.3543 312.82C-88.6076 312.527 -88.921 312.3 -89.2943 312.14C-89.6676 311.98 -90.0743 311.9 -90.5143 311.9C-91.0076 311.9 -91.461 312.02 -91.8743 312.26C-92.2743 312.487 -92.601 312.807 -92.8543 313.22C-93.0943 313.633 -93.2143 314.113 -93.2143 314.66C-93.2143 315.18 -93.0943 315.653 -92.8543 316.08C-92.601 316.507 -92.2676 316.847 -91.8543 317.1C-91.441 317.34 -90.9943 317.46 -90.5143 317.46ZM-78.6616 319.2C-79.635 319.2 -80.4683 319.013 -81.1616 318.64C-81.855 318.253 -82.3883 317.727 -82.7616 317.06C-83.135 316.38 -83.3216 315.607 -83.3216 314.74C-83.3216 313.913 -83.115 313.167 -82.7016 312.5C-82.275 311.82 -81.7083 311.28 -81.0016 310.88C-80.2816 310.48 -79.4883 310.28 -78.6216 310.28C-77.5016 310.28 -76.575 310.607 -75.8416 311.26C-75.095 311.913 -74.595 312.827 -74.3416 314L-81.1616 316.36L-81.6416 315.16L-76.1816 313.2L-76.6016 313.46C-76.7616 313.047 -77.015 312.687 -77.3616 312.38C-77.7083 312.06 -78.1816 311.9 -78.7816 311.9C-79.2616 311.9 -79.695 312.02 -80.0816 312.26C-80.455 312.487 -80.755 312.807 -80.9816 313.22C-81.195 313.62 -81.3016 314.093 -81.3016 314.64C-81.3016 315.2 -81.1883 315.693 -80.9616 316.12C-80.7216 316.533 -80.4016 316.86 -80.0016 317.1C-79.5883 317.34 -79.1283 317.46 -78.6216 317.46C-78.2616 317.46 -77.9216 317.393 -77.6016 317.26C-77.2683 317.127 -76.955 316.96 -76.6616 316.76L-75.7216 318.28C-76.1616 318.56 -76.6416 318.787 -77.1616 318.96C-77.6683 319.12 -78.1683 319.2 -78.6616 319.2ZM-69.6148 319.18C-70.2281 319.18 -70.8214 319.073 -71.3948 318.86C-71.9681 318.633 -72.4414 318.307 -72.8148 317.88L-71.9348 316.72C-71.5748 317.053 -71.2148 317.307 -70.8548 317.48C-70.4814 317.64 -70.1281 317.72 -69.7948 317.72C-69.5281 317.72 -69.2881 317.693 -69.0748 317.64C-68.8614 317.573 -68.6881 317.467 -68.5548 317.32C-68.4214 317.173 -68.3548 316.98 -68.3548 316.74C-68.3548 316.46 -68.4481 316.24 -68.6348 316.08C-68.8214 315.92 -69.0614 315.787 -69.3548 315.68C-69.6481 315.573 -69.9614 315.473 -70.2948 315.38C-71.0014 315.153 -71.5348 314.833 -71.8948 314.42C-72.2548 313.993 -72.4348 313.493 -72.4348 312.92C-72.4348 312.48 -72.3281 312.067 -72.1148 311.68C-71.8881 311.28 -71.5481 310.953 -71.0948 310.7C-70.6414 310.447 -70.0814 310.32 -69.4148 310.32C-68.8014 310.32 -68.2614 310.393 -67.7948 310.54C-67.3281 310.673 -66.8948 310.907 -66.4948 311.24L-67.2948 312.48C-67.5348 312.24 -67.8214 312.06 -68.1548 311.94C-68.4748 311.807 -68.7681 311.733 -69.0348 311.72C-69.2748 311.72 -69.4948 311.76 -69.6948 311.84C-69.8948 311.907 -70.0548 312.013 -70.1748 312.16C-70.2948 312.293 -70.3548 312.453 -70.3548 312.64C-70.3681 312.907 -70.2814 313.127 -70.0948 313.3C-69.8948 313.46 -69.6414 313.593 -69.3348 313.7C-69.0281 313.793 -68.7281 313.893 -68.4348 314C-68.0214 314.12 -67.6548 314.287 -67.3348 314.5C-67.0148 314.7 -66.7614 314.947 -66.5748 315.24C-66.3881 315.533 -66.2948 315.907 -66.2948 316.36C-66.2948 316.853 -66.4148 317.32 -66.6548 317.76C-66.8948 318.187 -67.2614 318.533 -67.7548 318.8C-68.2481 319.053 -68.8681 319.18 -69.6148 319.18ZM-53.8868 319.2C-54.6735 319.2 -55.3868 319.04 -56.0268 318.72C-56.6668 318.387 -57.1735 317.893 -57.5468 317.24C-57.9201 316.587 -58.1068 315.78 -58.1068 314.82C-58.1068 313.873 -57.9135 313.06 -57.5268 312.38C-57.1268 311.7 -56.6068 311.18 -55.9668 310.82C-55.3135 310.447 -54.6068 310.26 -53.8468 310.26C-53.0468 310.26 -52.3935 310.433 -51.8868 310.78C-51.3668 311.113 -50.9601 311.507 -50.6668 311.96L-50.8068 312.28L-50.6068 310.62H-48.7068V319H-50.7668V316.9L-50.5468 317.4C-50.6001 317.507 -50.7135 317.66 -50.8868 317.86C-51.0601 318.047 -51.2935 318.247 -51.5868 318.46C-51.8668 318.673 -52.2001 318.853 -52.5868 319C-52.9601 319.133 -53.3935 319.2 -53.8868 319.2ZM-53.3268 317.52C-52.8868 317.52 -52.4935 317.44 -52.1468 317.28C-51.8001 317.12 -51.5068 316.893 -51.2668 316.6C-51.0268 316.307 -50.8601 315.96 -50.7668 315.56V313.82C-50.8735 313.447 -51.0535 313.127 -51.3068 312.86C-51.5601 312.58 -51.8668 312.36 -52.2268 312.2C-52.5735 312.04 -52.9601 311.96 -53.3868 311.96C-53.8668 311.96 -54.3068 312.08 -54.7068 312.32C-55.1068 312.547 -55.4268 312.867 -55.6668 313.28C-55.9068 313.693 -56.0268 314.173 -56.0268 314.72C-56.0268 315.24 -55.9068 315.713 -55.6668 316.14C-55.4135 316.567 -55.0801 316.907 -54.6668 317.16C-54.2535 317.4 -53.8068 317.52 -53.3268 317.52ZM-38.6909 318.22C-39.0642 318.527 -39.5175 318.767 -40.0509 318.94C-40.5709 319.113 -41.0975 319.2 -41.6309 319.2C-42.5509 319.2 -43.3642 319.02 -44.0709 318.66C-44.7642 318.3 -45.3042 317.793 -45.6909 317.14C-46.0775 316.487 -46.2709 315.707 -46.2709 314.8C-46.2709 313.907 -46.0642 313.133 -45.6509 312.48C-45.2375 311.813 -44.6909 311.307 -44.0109 310.96C-43.3309 310.6 -42.6109 310.42 -41.8509 310.42C-41.1575 310.42 -40.5442 310.513 -40.0109 310.7C-39.4775 310.887 -39.0175 311.147 -38.6309 311.48L-39.6509 312.82C-39.8775 312.633 -40.1642 312.467 -40.5109 312.32C-40.8442 312.173 -41.2309 312.1 -41.6709 312.1C-42.1375 312.1 -42.5642 312.22 -42.9509 312.46C-43.3375 312.687 -43.6442 313.007 -43.8709 313.42C-44.0975 313.82 -44.2109 314.28 -44.2109 314.8C-44.2109 315.293 -44.0975 315.753 -43.8709 316.18C-43.6309 316.593 -43.3042 316.92 -42.8909 317.16C-42.4775 317.4 -42.0042 317.52 -41.4709 317.52C-41.1242 317.52 -40.8042 317.473 -40.5109 317.38C-40.2175 317.273 -39.9575 317.127 -39.7309 316.94L-38.6909 318.22ZM-29.4721 318.22C-29.8454 318.527 -30.2988 318.767 -30.8321 318.94C-31.3521 319.113 -31.8788 319.2 -32.4121 319.2C-33.3321 319.2 -34.1454 319.02 -34.8521 318.66C-35.5454 318.3 -36.0854 317.793 -36.4721 317.14C-36.8588 316.487 -37.0521 315.707 -37.0521 314.8C-37.0521 313.907 -36.8454 313.133 -36.4321 312.48C-36.0188 311.813 -35.4721 311.307 -34.7921 310.96C-34.1121 310.6 -33.3921 310.42 -32.6321 310.42C-31.9388 310.42 -31.3254 310.513 -30.7921 310.7C-30.2588 310.887 -29.7988 311.147 -29.4121 311.48L-30.4321 312.82C-30.6588 312.633 -30.9454 312.467 -31.2921 312.32C-31.6254 312.173 -32.0121 312.1 -32.4521 312.1C-32.9188 312.1 -33.3454 312.22 -33.7321 312.46C-34.1188 312.687 -34.4254 313.007 -34.6521 313.42C-34.8788 313.82 -34.9921 314.28 -34.9921 314.8C-34.9921 315.293 -34.8788 315.753 -34.6521 316.18C-34.4121 316.593 -34.0854 316.92 -33.6721 317.16C-33.2588 317.4 -32.7854 317.52 -32.2521 317.52C-31.9054 317.52 -31.5854 317.473 -31.2921 317.38C-30.9988 317.273 -30.7388 317.127 -30.5121 316.94L-29.4721 318.22ZM-23.1734 319.2C-24.1467 319.2 -24.98 319.013 -25.6734 318.64C-26.3667 318.253 -26.9 317.727 -27.2734 317.06C-27.6467 316.38 -27.8334 315.607 -27.8334 314.74C-27.8334 313.913 -27.6267 313.167 -27.2134 312.5C-26.7867 311.82 -26.22 311.28 -25.5134 310.88C-24.7934 310.48 -24 310.28 -23.1334 310.28C-22.0134 310.28 -21.0867 310.607 -20.3534 311.26C-19.6067 311.913 -19.1067 312.827 -18.8534 314L-25.6734 316.36L-26.1534 315.16L-20.6934 313.2L-21.1134 313.46C-21.2734 313.047 -21.5267 312.687 -21.8734 312.38C-22.22 312.06 -22.6934 311.9 -23.2934 311.9C-23.7734 311.9 -24.2067 312.02 -24.5934 312.26C-24.9667 312.487 -25.2667 312.807 -25.4934 313.22C-25.7067 313.62 -25.8134 314.093 -25.8134 314.64C-25.8134 315.2 -25.7 315.693 -25.4734 316.12C-25.2334 316.533 -24.9134 316.86 -24.5134 317.1C-24.1 317.34 -23.64 317.46 -23.1334 317.46C-22.7734 317.46 -22.4334 317.393 -22.1134 317.26C-21.78 317.127 -21.4667 316.96 -21.1734 316.76L-20.2334 318.28C-20.6734 318.56 -21.1534 318.787 -21.6734 318.96C-22.18 319.12 -22.68 319.2 -23.1734 319.2ZM-11.5465 319.2C-12.1598 319.2 -12.7465 319.067 -13.3065 318.8C-13.8665 318.52 -14.3132 318.147 -14.6465 317.68L-14.5265 317.06V323.02H-16.5665V310.48H-14.7865L-14.5065 312.52L-14.7265 311.94C-14.3132 311.46 -13.8065 311.06 -13.2065 310.74C-12.5932 310.42 -11.9132 310.26 -11.1665 310.26C-10.3798 310.26 -9.67315 310.447 -9.04648 310.82C-8.41982 311.193 -7.92648 311.72 -7.56648 312.4C-7.20648 313.08 -7.02648 313.88 -7.02648 314.8C-7.02648 315.707 -7.22648 316.493 -7.62648 317.16C-8.01315 317.813 -8.54648 318.32 -9.22648 318.68C-9.90648 319.027 -10.6798 319.2 -11.5465 319.2ZM-11.9465 317.58C-11.4398 317.58 -10.9732 317.46 -10.5465 317.22C-10.1065 316.98 -9.75982 316.653 -9.50648 316.24C-9.23982 315.813 -9.10648 315.34 -9.10648 314.82C-9.10648 314.273 -9.23315 313.793 -9.48648 313.38C-9.72648 312.953 -10.0532 312.62 -10.4665 312.38C-10.8665 312.14 -11.3132 312.02 -11.8065 312.02C-12.2732 312.02 -12.6865 312.107 -13.0465 312.28C-13.4065 312.44 -13.7132 312.667 -13.9665 312.96C-14.2198 313.253 -14.3998 313.607 -14.5065 314.02V315.56C-14.4265 315.947 -14.2665 316.293 -14.0265 316.6C-13.7865 316.907 -13.4865 317.147 -13.1265 317.32C-12.7665 317.493 -12.3732 317.58 -11.9465 317.58ZM-3.79383 306.94H-1.73383V310.64H0.506172V312.26H-1.73383V319H-3.79383V312.26H-5.27383V310.64H-3.79383V306.94ZM6.67039 319.2C5.69706 319.2 4.86372 319.013 4.17039 318.64C3.47706 318.253 2.94372 317.727 2.57039 317.06C2.19706 316.38 2.01039 315.607 2.01039 314.74C2.01039 313.913 2.21706 313.167 2.63039 312.5C3.05706 311.82 3.62372 311.28 4.33039 310.88C5.05039 310.48 5.84372 310.28 6.71039 310.28C7.83039 310.28 8.75706 310.607 9.49039 311.26C10.2371 311.913 10.7371 312.827 10.9904 314L4.17039 316.36L3.69039 315.16L9.15039 313.2L8.73039 313.46C8.57039 313.047 8.31706 312.687 7.97039 312.38C7.62372 312.06 7.15039 311.9 6.55039 311.9C6.07039 311.9 5.63706 312.02 5.25039 312.26C4.87706 312.487 4.57706 312.807 4.35039 313.22C4.13706 313.62 4.03039 314.093 4.03039 314.64C4.03039 315.2 4.14372 315.693 4.37039 316.12C4.61039 316.533 4.93039 316.86 5.33039 317.1C5.74372 317.34 6.20372 317.46 6.71039 317.46C7.07039 317.46 7.41039 317.393 7.73039 317.26C8.06372 317.127 8.37706 316.96 8.67039 316.76L9.61039 318.28C9.17039 318.56 8.69039 318.787 8.17039 318.96C7.66372 319.12 7.16372 319.2 6.67039 319.2ZM9.01039 306.42L6.39039 309.1H5.09039L6.73039 306.42H9.01039ZM17.2173 319.2C16.2439 319.2 15.4106 319.013 14.7173 318.64C14.0239 318.253 13.4906 317.727 13.1173 317.06C12.7439 316.38 12.5573 315.607 12.5573 314.74C12.5573 313.913 12.7639 313.167 13.1773 312.5C13.6039 311.82 14.1706 311.28 14.8773 310.88C15.5973 310.48 16.3906 310.28 17.2573 310.28C18.3773 310.28 19.3039 310.607 20.0373 311.26C20.7839 311.913 21.2839 312.827 21.5373 314L14.7173 316.36L14.2373 315.16L19.6973 313.2L19.2773 313.46C19.1173 313.047 18.8639 312.687 18.5173 312.38C18.1706 312.06 17.6973 311.9 17.0973 311.9C16.6173 311.9 16.1839 312.02 15.7973 312.26C15.4239 312.487 15.1239 312.807 14.8973 313.22C14.6839 313.62 14.5773 314.093 14.5773 314.64C14.5773 315.2 14.6906 315.693 14.9173 316.12C15.1573 316.533 15.4773 316.86 15.8773 317.1C16.2906 317.34 16.7506 317.46 17.2573 317.46C17.6173 317.46 17.9573 317.393 18.2773 317.26C18.6106 317.127 18.9239 316.96 19.2173 316.76L20.1573 318.28C19.7173 318.56 19.2373 318.787 18.7173 318.96C18.2106 319.12 17.7106 319.2 17.2173 319.2ZM26.2641 319.18C25.6508 319.18 25.0575 319.073 24.4841 318.86C23.9108 318.633 23.4375 318.307 23.0641 317.88L23.9441 316.72C24.3041 317.053 24.6641 317.307 25.0241 317.48C25.3975 317.64 25.7508 317.72 26.0841 317.72C26.3508 317.72 26.5908 317.693 26.8041 317.64C27.0175 317.573 27.1908 317.467 27.3241 317.32C27.4575 317.173 27.5241 316.98 27.5241 316.74C27.5241 316.46 27.4308 316.24 27.2441 316.08C27.0575 315.92 26.8175 315.787 26.5241 315.68C26.2308 315.573 25.9175 315.473 25.5841 315.38C24.8775 315.153 24.3441 314.833 23.9841 314.42C23.6241 313.993 23.4441 313.493 23.4441 312.92C23.4441 312.48 23.5508 312.067 23.7641 311.68C23.9908 311.28 24.3308 310.953 24.7841 310.7C25.2375 310.447 25.7975 310.32 26.4641 310.32C27.0775 310.32 27.6175 310.393 28.0841 310.54C28.5508 310.673 28.9841 310.907 29.3841 311.24L28.5841 312.48C28.3441 312.24 28.0575 312.06 27.7241 311.94C27.4041 311.807 27.1108 311.733 26.8441 311.72C26.6041 311.72 26.3841 311.76 26.1841 311.84C25.9841 311.907 25.8241 312.013 25.7041 312.16C25.5841 312.293 25.5241 312.453 25.5241 312.64C25.5108 312.907 25.5975 313.127 25.7841 313.3C25.9841 313.46 26.2375 313.593 26.5441 313.7C26.8508 313.793 27.1508 313.893 27.4441 314C27.8575 314.12 28.2241 314.287 28.5441 314.5C28.8641 314.7 29.1175 314.947 29.3041 315.24C29.4908 315.533 29.5841 315.907 29.5841 316.36C29.5841 316.853 29.4641 317.32 29.2241 317.76C28.9841 318.187 28.6175 318.533 28.1241 318.8C27.6308 319.053 27.0108 319.18 26.2641 319.18Z" fill="black"/>
</g>
<g id="Demandes Refus&#195;&#169;es" filter="url(#filter1_d_0_1)">
<rect id="Rectangle 33" x="83" y="225" width="224" height="107" rx="20" fill="white"/>
<path id="1" d="M201.439 251.64H208.559V278H204.279V255.76H201.439V251.64Z" fill="black"/>
<path id="Demandes refus&#195;&#169;es" d="M109.034 321V306.48H113.074C114.514 306.48 115.741 306.7 116.754 307.14C117.767 307.58 118.581 308.16 119.194 308.88C119.821 309.6 120.274 310.4 120.554 311.28C120.847 312.16 120.994 313.047 120.994 313.94C120.994 315.02 120.801 315.993 120.414 316.86C120.027 317.727 119.501 318.473 118.834 319.1C118.167 319.713 117.401 320.187 116.534 320.52C115.667 320.84 114.747 321 113.774 321H109.034ZM111.174 318.94H113.374C114.161 318.94 114.881 318.827 115.534 318.6C116.201 318.373 116.774 318.04 117.254 317.6C117.747 317.16 118.127 316.62 118.394 315.98C118.661 315.34 118.794 314.607 118.794 313.78C118.794 312.887 118.641 312.113 118.334 311.46C118.041 310.793 117.647 310.247 117.154 309.82C116.661 309.38 116.107 309.06 115.494 308.86C114.894 308.647 114.281 308.54 113.654 308.54H111.174V318.94ZM127.651 321.2C126.678 321.2 125.844 321.013 125.151 320.64C124.458 320.253 123.924 319.727 123.551 319.06C123.178 318.38 122.991 317.607 122.991 316.74C122.991 315.913 123.198 315.167 123.611 314.5C124.038 313.82 124.604 313.28 125.311 312.88C126.031 312.48 126.824 312.28 127.691 312.28C128.811 312.28 129.738 312.607 130.471 313.26C131.218 313.913 131.718 314.827 131.971 316L125.151 318.36L124.671 317.16L130.131 315.2L129.711 315.46C129.551 315.047 129.298 314.687 128.951 314.38C128.604 314.06 128.131 313.9 127.531 313.9C127.051 313.9 126.618 314.02 126.231 314.26C125.858 314.487 125.558 314.807 125.331 315.22C125.118 315.62 125.011 316.093 125.011 316.64C125.011 317.2 125.124 317.693 125.351 318.12C125.591 318.533 125.911 318.86 126.311 319.1C126.724 319.34 127.184 319.46 127.691 319.46C128.051 319.46 128.391 319.393 128.711 319.26C129.044 319.127 129.358 318.96 129.651 318.76L130.591 320.28C130.151 320.56 129.671 320.787 129.151 320.96C128.644 321.12 128.144 321.2 127.651 321.2ZM136.098 312.62L136.278 314.42L136.198 314.28C136.518 313.653 136.958 313.167 137.518 312.82C138.078 312.46 138.724 312.28 139.458 312.28C139.911 312.28 140.318 312.353 140.678 312.5C141.051 312.647 141.358 312.853 141.598 313.12C141.838 313.387 141.991 313.72 142.058 314.12L141.958 314.18C142.291 313.593 142.731 313.133 143.278 312.8C143.838 312.453 144.431 312.28 145.058 312.28C145.871 312.28 146.518 312.513 146.998 312.98C147.491 313.447 147.744 314.047 147.758 314.78V321H145.718V315.56C145.704 315.147 145.604 314.8 145.418 314.52C145.244 314.24 144.931 314.087 144.478 314.06C143.998 314.06 143.571 314.207 143.198 314.5C142.838 314.793 142.558 315.173 142.358 315.64C142.158 316.107 142.051 316.607 142.038 317.14V321H139.978V315.56C139.964 315.147 139.864 314.8 139.678 314.52C139.491 314.24 139.164 314.087 138.698 314.06C138.218 314.06 137.798 314.207 137.438 314.5C137.078 314.793 136.798 315.18 136.598 315.66C136.411 316.127 136.318 316.62 136.318 317.14V321H134.258V312.62H136.098ZM154.418 321.2C153.631 321.2 152.918 321.04 152.278 320.72C151.638 320.387 151.131 319.893 150.758 319.24C150.385 318.587 150.198 317.78 150.198 316.82C150.198 315.873 150.391 315.06 150.778 314.38C151.178 313.7 151.698 313.18 152.338 312.82C152.991 312.447 153.698 312.26 154.458 312.26C155.258 312.26 155.911 312.433 156.418 312.78C156.938 313.113 157.345 313.507 157.638 313.96L157.498 314.28L157.698 312.62H159.598V321H157.538V318.9L157.758 319.4C157.705 319.507 157.591 319.66 157.418 319.86C157.245 320.047 157.011 320.247 156.718 320.46C156.438 320.673 156.105 320.853 155.718 321C155.345 321.133 154.911 321.2 154.418 321.2ZM154.978 319.52C155.418 319.52 155.811 319.44 156.158 319.28C156.505 319.12 156.798 318.893 157.038 318.6C157.278 318.307 157.445 317.96 157.538 317.56V315.82C157.431 315.447 157.251 315.127 156.998 314.86C156.745 314.58 156.438 314.36 156.078 314.2C155.731 314.04 155.345 313.96 154.918 313.96C154.438 313.96 153.998 314.08 153.598 314.32C153.198 314.547 152.878 314.867 152.638 315.28C152.398 315.693 152.278 316.173 152.278 316.72C152.278 317.24 152.398 317.713 152.638 318.14C152.891 318.567 153.225 318.907 153.638 319.16C154.051 319.4 154.498 319.52 154.978 319.52ZM164.594 312.62L164.774 314.54L164.694 314.28C164.974 313.68 165.407 313.2 165.994 312.84C166.58 312.467 167.274 312.28 168.074 312.28C168.86 312.28 169.507 312.513 170.014 312.98C170.534 313.447 170.8 314.053 170.814 314.8V321H168.754V315.52C168.74 315.093 168.614 314.747 168.374 314.48C168.134 314.2 167.76 314.053 167.254 314.04C166.8 314.04 166.387 314.18 166.014 314.46C165.64 314.727 165.347 315.093 165.134 315.56C164.92 316.027 164.814 316.567 164.814 317.18V321H162.754V312.62H164.594ZM177.385 321.2C176.598 321.2 175.891 321.02 175.265 320.66C174.638 320.287 174.145 319.76 173.785 319.08C173.425 318.4 173.245 317.607 173.245 316.7C173.245 315.767 173.438 314.973 173.825 314.32C174.211 313.653 174.731 313.147 175.385 312.8C176.051 312.44 176.798 312.26 177.625 312.26C178.265 312.26 178.871 312.393 179.445 312.66C180.031 312.913 180.485 313.273 180.805 313.74L180.745 314.44V305.46H182.785V321H180.725V319.02L180.945 319.56C180.531 320.027 180.025 320.42 179.425 320.74C178.825 321.047 178.145 321.2 177.385 321.2ZM178.025 319.46C178.491 319.46 178.905 319.38 179.265 319.22C179.625 319.06 179.931 318.833 180.185 318.54C180.438 318.233 180.618 317.88 180.725 317.48V315.8C180.631 315.427 180.451 315.1 180.185 314.82C179.931 314.527 179.618 314.3 179.245 314.14C178.871 313.98 178.465 313.9 178.025 313.9C177.531 313.9 177.078 314.02 176.665 314.26C176.265 314.487 175.938 314.807 175.685 315.22C175.445 315.633 175.325 316.113 175.325 316.66C175.325 317.18 175.445 317.653 175.685 318.08C175.938 318.507 176.271 318.847 176.685 319.1C177.098 319.34 177.545 319.46 178.025 319.46ZM189.877 321.2C188.904 321.2 188.071 321.013 187.377 320.64C186.684 320.253 186.151 319.727 185.777 319.06C185.404 318.38 185.217 317.607 185.217 316.74C185.217 315.913 185.424 315.167 185.837 314.5C186.264 313.82 186.831 313.28 187.537 312.88C188.257 312.48 189.051 312.28 189.917 312.28C191.037 312.28 191.964 312.607 192.697 313.26C193.444 313.913 193.944 314.827 194.197 316L187.377 318.36L186.897 317.16L192.357 315.2L191.937 315.46C191.777 315.047 191.524 314.687 191.177 314.38C190.831 314.06 190.357 313.9 189.757 313.9C189.277 313.9 188.844 314.02 188.457 314.26C188.084 314.487 187.784 314.807 187.557 315.22C187.344 315.62 187.237 316.093 187.237 316.64C187.237 317.2 187.351 317.693 187.577 318.12C187.817 318.533 188.137 318.86 188.537 319.1C188.951 319.34 189.411 319.46 189.917 319.46C190.277 319.46 190.617 319.393 190.937 319.26C191.271 319.127 191.584 318.96 191.877 318.76L192.817 320.28C192.377 320.56 191.897 320.787 191.377 320.96C190.871 321.12 190.371 321.2 189.877 321.2ZM198.924 321.18C198.311 321.18 197.718 321.073 197.144 320.86C196.571 320.633 196.098 320.307 195.724 319.88L196.604 318.72C196.964 319.053 197.324 319.307 197.684 319.48C198.058 319.64 198.411 319.72 198.744 319.72C199.011 319.72 199.251 319.693 199.464 319.64C199.678 319.573 199.851 319.467 199.984 319.32C200.118 319.173 200.184 318.98 200.184 318.74C200.184 318.46 200.091 318.24 199.904 318.08C199.718 317.92 199.478 317.787 199.184 317.68C198.891 317.573 198.578 317.473 198.244 317.38C197.538 317.153 197.004 316.833 196.644 316.42C196.284 315.993 196.104 315.493 196.104 314.92C196.104 314.48 196.211 314.067 196.424 313.68C196.651 313.28 196.991 312.953 197.444 312.7C197.898 312.447 198.458 312.32 199.124 312.32C199.738 312.32 200.278 312.393 200.744 312.54C201.211 312.673 201.644 312.907 202.044 313.24L201.244 314.48C201.004 314.24 200.718 314.06 200.384 313.94C200.064 313.807 199.771 313.733 199.504 313.72C199.264 313.72 199.044 313.76 198.844 313.84C198.644 313.907 198.484 314.013 198.364 314.16C198.244 314.293 198.184 314.453 198.184 314.64C198.171 314.907 198.258 315.127 198.444 315.3C198.644 315.46 198.898 315.593 199.204 315.7C199.511 315.793 199.811 315.893 200.104 316C200.518 316.12 200.884 316.287 201.204 316.5C201.524 316.7 201.778 316.947 201.964 317.24C202.151 317.533 202.244 317.907 202.244 318.36C202.244 318.853 202.124 319.32 201.884 319.76C201.644 320.187 201.278 320.533 200.784 320.8C200.291 321.053 199.671 321.18 198.924 321.18ZM212.992 312.62L213.192 315.02L213.092 314.7C213.319 314.193 213.639 313.76 214.052 313.4C214.466 313.04 214.892 312.767 215.332 312.58C215.786 312.38 216.166 312.28 216.472 312.28L216.372 314.32C215.732 314.28 215.172 314.4 214.692 314.68C214.226 314.96 213.859 315.333 213.592 315.8C213.326 316.267 213.192 316.767 213.192 317.3V321H211.152V312.62H212.992ZM222.397 321.2C221.424 321.2 220.59 321.013 219.897 320.64C219.204 320.253 218.67 319.727 218.297 319.06C217.924 318.38 217.737 317.607 217.737 316.74C217.737 315.913 217.944 315.167 218.357 314.5C218.784 313.82 219.35 313.28 220.057 312.88C220.777 312.48 221.57 312.28 222.437 312.28C223.557 312.28 224.484 312.607 225.217 313.26C225.964 313.913 226.464 314.827 226.717 316L219.897 318.36L219.417 317.16L224.877 315.2L224.457 315.46C224.297 315.047 224.044 314.687 223.697 314.38C223.35 314.06 222.877 313.9 222.277 313.9C221.797 313.9 221.364 314.02 220.977 314.26C220.604 314.487 220.304 314.807 220.077 315.22C219.864 315.62 219.757 316.093 219.757 316.64C219.757 317.2 219.87 317.693 220.097 318.12C220.337 318.533 220.657 318.86 221.057 319.1C221.47 319.34 221.93 319.46 222.437 319.46C222.797 319.46 223.137 319.393 223.457 319.26C223.79 319.127 224.104 318.96 224.397 318.76L225.337 320.28C224.897 320.56 224.417 320.787 223.897 320.96C223.39 321.12 222.89 321.2 222.397 321.2ZM229.704 321V314.44H228.284V312.62H229.704V309.22C229.704 308.02 229.99 307.093 230.564 306.44C231.137 305.787 231.97 305.46 233.064 305.46C233.357 305.46 233.684 305.507 234.044 305.6C234.404 305.68 234.724 305.813 235.004 306L234.144 307.5C234.024 307.367 233.884 307.273 233.724 307.22C233.577 307.167 233.424 307.14 233.264 307.14C232.797 307.14 232.43 307.3 232.164 307.62C231.897 307.94 231.764 308.487 231.764 309.26V312.62H234.404V314.44H231.764V321H229.704ZM239.496 321.34C238.723 321.34 238.09 321.107 237.596 320.64C237.103 320.173 236.843 319.573 236.816 318.84V312.62H238.876V318.1C238.903 318.527 239.023 318.88 239.236 319.16C239.463 319.427 239.823 319.567 240.316 319.58C240.77 319.58 241.17 319.447 241.516 319.18C241.876 318.9 242.156 318.527 242.356 318.06C242.57 317.58 242.676 317.033 242.676 316.42V312.62H244.736V321H242.876L242.716 319.06L242.796 319.38C242.623 319.753 242.376 320.093 242.056 320.4C241.736 320.693 241.356 320.92 240.916 321.08C240.476 321.253 240.003 321.34 239.496 321.34ZM250.331 321.18C249.717 321.18 249.124 321.073 248.551 320.86C247.977 320.633 247.504 320.307 247.131 319.88L248.011 318.72C248.371 319.053 248.731 319.307 249.091 319.48C249.464 319.64 249.817 319.72 250.151 319.72C250.417 319.72 250.657 319.693 250.871 319.64C251.084 319.573 251.257 319.467 251.391 319.32C251.524 319.173 251.591 318.98 251.591 318.74C251.591 318.46 251.497 318.24 251.311 318.08C251.124 317.92 250.884 317.787 250.591 317.68C250.297 317.573 249.984 317.473 249.651 317.38C248.944 317.153 248.411 316.833 248.051 316.42C247.691 315.993 247.511 315.493 247.511 314.92C247.511 314.48 247.617 314.067 247.831 313.68C248.057 313.28 248.397 312.953 248.851 312.7C249.304 312.447 249.864 312.32 250.531 312.32C251.144 312.32 251.684 312.393 252.151 312.54C252.617 312.673 253.051 312.907 253.451 313.24L252.651 314.48C252.411 314.24 252.124 314.06 251.791 313.94C251.471 313.807 251.177 313.733 250.911 313.72C250.671 313.72 250.451 313.76 250.251 313.84C250.051 313.907 249.891 314.013 249.771 314.16C249.651 314.293 249.591 314.453 249.591 314.64C249.577 314.907 249.664 315.127 249.851 315.3C250.051 315.46 250.304 315.593 250.611 315.7C250.917 315.793 251.217 315.893 251.511 316C251.924 316.12 252.291 316.287 252.611 316.5C252.931 316.7 253.184 316.947 253.371 317.24C253.557 317.533 253.651 317.907 253.651 318.36C253.651 318.853 253.531 319.32 253.291 319.76C253.051 320.187 252.684 320.533 252.191 320.8C251.697 321.053 251.077 321.18 250.331 321.18ZM260.131 321.2C259.158 321.2 258.325 321.013 257.631 320.64C256.938 320.253 256.405 319.727 256.031 319.06C255.658 318.38 255.471 317.607 255.471 316.74C255.471 315.913 255.678 315.167 256.091 314.5C256.518 313.82 257.085 313.28 257.791 312.88C258.511 312.48 259.305 312.28 260.171 312.28C261.291 312.28 262.218 312.607 262.951 313.26C263.698 313.913 264.198 314.827 264.451 316L257.631 318.36L257.151 317.16L262.611 315.2L262.191 315.46C262.031 315.047 261.778 314.687 261.431 314.38C261.085 314.06 260.611 313.9 260.011 313.9C259.531 313.9 259.098 314.02 258.711 314.26C258.338 314.487 258.038 314.807 257.811 315.22C257.598 315.62 257.491 316.093 257.491 316.64C257.491 317.2 257.605 317.693 257.831 318.12C258.071 318.533 258.391 318.86 258.791 319.1C259.205 319.34 259.665 319.46 260.171 319.46C260.531 319.46 260.871 319.393 261.191 319.26C261.525 319.127 261.838 318.96 262.131 318.76L263.071 320.28C262.631 320.56 262.151 320.787 261.631 320.96C261.125 321.12 260.625 321.2 260.131 321.2ZM262.471 308.42L259.851 311.1H258.551L260.191 308.42H262.471ZM270.678 321.2C269.705 321.2 268.872 321.013 268.178 320.64C267.485 320.253 266.952 319.727 266.578 319.06C266.205 318.38 266.018 317.607 266.018 316.74C266.018 315.913 266.225 315.167 266.638 314.5C267.065 313.82 267.632 313.28 268.338 312.88C269.058 312.48 269.852 312.28 270.718 312.28C271.838 312.28 272.765 312.607 273.498 313.26C274.245 313.913 274.745 314.827 274.998 316L268.178 318.36L267.698 317.16L273.158 315.2L272.738 315.46C272.578 315.047 272.325 314.687 271.978 314.38C271.632 314.06 271.158 313.9 270.558 313.9C270.078 313.9 269.645 314.02 269.258 314.26C268.885 314.487 268.585 314.807 268.358 315.22C268.145 315.62 268.038 316.093 268.038 316.64C268.038 317.2 268.152 317.693 268.378 318.12C268.618 318.533 268.938 318.86 269.338 319.1C269.752 319.34 270.212 319.46 270.718 319.46C271.078 319.46 271.418 319.393 271.738 319.26C272.072 319.127 272.385 318.96 272.678 318.76L273.618 320.28C273.178 320.56 272.698 320.787 272.178 320.96C271.672 321.12 271.172 321.2 270.678 321.2ZM279.725 321.18C279.112 321.18 278.518 321.073 277.945 320.86C277.372 320.633 276.898 320.307 276.525 319.88L277.405 318.72C277.765 319.053 278.125 319.307 278.485 319.48C278.858 319.64 279.212 319.72 279.545 319.72C279.812 319.72 280.052 319.693 280.265 319.64C280.478 319.573 280.652 319.467 280.785 319.32C280.918 319.173 280.985 318.98 280.985 318.74C280.985 318.46 280.892 318.24 280.705 318.08C280.518 317.92 280.278 317.787 279.985 317.68C279.692 317.573 279.378 317.473 279.045 317.38C278.338 317.153 277.805 316.833 277.445 316.42C277.085 315.993 276.905 315.493 276.905 314.92C276.905 314.48 277.012 314.067 277.225 313.68C277.452 313.28 277.792 312.953 278.245 312.7C278.698 312.447 279.258 312.32 279.925 312.32C280.538 312.32 281.078 312.393 281.545 312.54C282.012 312.673 282.445 312.907 282.845 313.24L282.045 314.48C281.805 314.24 281.518 314.06 281.185 313.94C280.865 313.807 280.572 313.733 280.305 313.72C280.065 313.72 279.845 313.76 279.645 313.84C279.445 313.907 279.285 314.013 279.165 314.16C279.045 314.293 278.985 314.453 278.985 314.64C278.972 314.907 279.058 315.127 279.245 315.3C279.445 315.46 279.698 315.593 280.005 315.7C280.312 315.793 280.612 315.893 280.905 316C281.318 316.12 281.685 316.287 282.005 316.5C282.325 316.7 282.578 316.947 282.765 317.24C282.952 317.533 283.045 317.907 283.045 318.36C283.045 318.853 282.925 319.32 282.685 319.76C282.445 320.187 282.078 320.533 281.585 320.8C281.092 321.053 280.472 321.18 279.725 321.18Z" fill="black"/>
<ellipse id="Ellipse 11" cx="132" cy="264.5" rx="31" ry="30.5" fill="#E6E6E6"/>
<g id="&#240;&#159;&#166;&#134; icon &#34;Times&#34;">
<path id="Vector" d="M138.054 263.992L147.147 254.899C148.262 253.783 148.262 251.974 147.147 250.858L145.126 248.837C144.01 247.721 142.201 247.721 141.084 248.837L131.992 257.929L122.899 248.837C121.783 247.721 119.974 247.721 118.858 248.837L116.837 250.858C115.721 251.973 115.721 253.782 116.837 254.899L125.929 263.992L116.837 273.084C115.721 274.2 115.721 276.009 116.837 277.126L118.858 279.147C119.973 280.262 121.783 280.262 122.899 279.147L131.992 270.054L141.084 279.147C142.2 280.262 144.01 280.262 145.126 279.147L147.147 277.126C148.262 276.01 148.262 274.201 147.147 273.084L138.054 263.992Z" fill="black"/>
</g>
</g>
<g id="Profil">
<g id="user-circle">
<path id="Vector_2" d="M171.1 5.3468C79.5359 5.3468 5.34863 79.5341 5.34863 171.099C5.34863 262.663 79.5359 336.85 171.1 336.85C262.665 336.85 336.852 262.663 336.852 171.099C336.852 79.5341 262.665 5.3468 171.1 5.3468ZM171.1 69.5088C203.582 69.5088 229.916 95.8419 229.916 128.324C229.916 160.806 203.582 187.139 171.1 187.139C138.618 187.139 112.285 160.806 112.285 128.324C112.285 95.8419 138.618 69.5088 171.1 69.5088ZM171.1 299.423C131.868 299.423 96.7126 281.644 73.1866 253.841C85.7516 230.181 110.347 213.873 139.019 213.873C140.623 213.873 142.228 214.141 143.765 214.608C152.453 217.416 161.543 219.22 171.1 219.22C180.658 219.22 189.814 217.416 198.436 214.608C199.973 214.141 201.577 213.873 203.181 213.873C231.854 213.873 256.449 230.181 269.014 253.841C245.488 281.644 210.333 299.423 171.1 299.423Z" fill="#757575"/>
</g>
<ellipse id="Ellipse 12" cx="307.856" cy="49.3908" rx="50.6223" ry="48.6831" fill="#66FF63"/>
</g>
</g>
</g>
<defs>
<filter id="filter0_d_0_1" x="-180" y="221" width="248" height="131" filterUnits="userSpaceOnUse" color-interpolation-filters="sRGB">
<feFlood flood-opacity="0" result="BackgroundImageFix"/>
<feColorMatrix in="SourceAlpha" type="matrix" values="0 0 0 0 0 0 0 0 0 0 0 0 0 0 0 0 0 0 127 0" result="hardAlpha"/>
<feOffset dx="10" dy="10"/>
<feGaussianBlur stdDeviation="6"/>
<feComposite in2="hardAlpha" operator="out"/>
<feColorMatrix type="matrix" values="0 0 0 0 0 0 0 0 0 0 0 0 0 0 0 0 0 0 0.25 0"/>
<feBlend mode="normal" in2="BackgroundImageFix" result="effect1_dropShadow_0_1"/>
<feBlend mode="normal" in="SourceGraphic" in2="effect1_dropShadow_0_1" result="shape"/>
</filter>
<filter id="filter1_d_0_1" x="81" y="223" width="248" height="131" filterUnits="userSpaceOnUse" color-interpolation-filters="sRGB">
<feFlood flood-opacity="0" result="BackgroundImageFix"/>
<feColorMatrix in="SourceAlpha" type="matrix" values="0 0 0 0 0 0 0 0 0 0 0 0 0 0 0 0 0 0 127 0" result="hardAlpha"/>
<feOffset dx="10" dy="10"/>
<feGaussianBlur stdDeviation="6"/>
<feComposite in2="hardAlpha" operator="out"/>
<feColorMatrix type="matrix" values="0 0 0 0 0 0 0 0 0 0 0 0 0 0 0 0 0 0 0.25 0"/>
<feBlend mode="normal" in2="BackgroundImageFix" result="effect1_dropShadow_0_1"/>
<feBlend mode="normal" in="SourceGraphic" in2="effect1_dropShadow_0_1" result="shape"/>
</filter>
<clipPath id="clip0_0_1">
<rect width="1920" height="1080" fill="white" transform="translate(-808 -188)"/>
</clipPath>
</defs>
</svg>
