<svg width="175" height="207" viewBox="0 0 175 207" fill="none" xmlns="http://www.w3.org/2000/svg">
<path d="M137.102 5.83297L87.4131 64.3301L37.7245 5.83297C31.6272 -1.34511 21.7378 -1.34511 15.6406 5.83297L4.59869 18.8323C-1.49852 26.0104 -1.49852 37.653 4.59869 44.831L54.2873 103.328L4.59869 161.825C-1.49852 169.003 -1.49852 180.646 4.59869 187.824L15.6406 200.823C21.7378 208.001 31.6272 208.001 37.7245 200.823L87.4131 142.326L137.102 200.823C143.199 208.001 153.088 208.001 159.186 200.823L170.228 187.824C176.325 180.646 176.325 169.003 170.228 161.825L120.539 103.328L170.228 44.831C176.325 37.653 176.325 26.0104 170.228 18.8323L159.186 5.83297C153.088 -1.34511 143.199 -1.34511 137.102 5.83297Z" fill="#32373B"/>
</svg>
