<svg width="148" height="148" viewBox="0 0 148 148" fill="none" xmlns="http://www.w3.org/2000/svg">
<g id="user-circle">
<path id="Vector" d="M74 2.3125C34.3984 2.3125 2.3125 34.3984 2.3125 74C2.3125 113.602 34.3984 145.688 74 145.688C113.602 145.688 145.688 113.602 145.688 74C145.688 34.3984 113.602 2.3125 74 2.3125ZM74 30.0625C88.0484 30.0625 99.4375 41.4516 99.4375 55.5C99.4375 69.5484 88.0484 80.9375 74 80.9375C59.9516 80.9375 48.5625 69.5484 48.5625 55.5C48.5625 41.4516 59.9516 30.0625 74 30.0625ZM74 129.5C57.032 129.5 41.8273 121.811 31.6523 109.786C37.0867 99.5531 47.7242 92.5 60.125 92.5C60.8187 92.5 61.5125 92.6156 62.1773 92.818C65.9352 94.032 69.8664 94.8125 74 94.8125C78.1336 94.8125 82.0938 94.032 85.8227 92.818C86.4875 92.6156 87.1813 92.5 87.875 92.5C100.276 92.5 110.913 99.5531 116.348 109.786C106.173 121.811 90.968 129.5 74 129.5Z" fill="#757575"/>
</g>
</svg>
